<?xml version="1.0" encoding="UTF-8" standalone="no"?>
<svg
   xmlns:ns1="http://www.iki.fi/pav/software/textext/"
   xmlns:dc="http://purl.org/dc/elements/1.1/"
   xmlns:cc="http://creativecommons.org/ns#"
   xmlns:rdf="http://www.w3.org/1999/02/22-rdf-syntax-ns#"
   xmlns:svg="http://www.w3.org/2000/svg"
   xmlns="http://www.w3.org/2000/svg"
   xmlns:sodipodi="http://sodipodi.sourceforge.net/DTD/sodipodi-0.dtd"
   xmlns:inkscape="http://www.inkscape.org/namespaces/inkscape"
   width="210mm"
   height="297mm"
   viewBox="0 0 210 297"
   version="1.1"
   id="svg8"
   sodipodi:docname="edaemi.svg"
   inkscape:version="1.0.1 (c497b03c, 2020-09-10)">
  <defs
     id="defs2">
    <marker
       style="overflow:visible;"
       id="Arrow2Mend"
       refX="0.0"
       refY="0.0"
       orient="auto"
       inkscape:stockid="Arrow2Mend"
       inkscape:isstock="true">
      <path
         transform="scale(0.6) rotate(180) translate(0,0)"
         d="M 8.7185878,4.0337352 L -2.2072895,0.016013256 L 8.7185884,-4.0017078 C 6.9730900,-1.6296469 6.9831476,1.6157441 8.7185878,4.0337352 z "
         style="fill-rule:evenodd;stroke-width:0.625;stroke-linejoin:round;stroke:#000000;stroke-opacity:1;fill:#000000;fill-opacity:1"
         id="path1451" />
    </marker>
    <marker
       style="overflow:visible;"
       id="Arrow1Mend"
       refX="0.0"
       refY="0.0"
       orient="auto"
       inkscape:stockid="Arrow1Mend"
       inkscape:isstock="true">
      <path
         transform="scale(0.4) rotate(180) translate(10,0)"
         style="fill-rule:evenodd;stroke:#000000;stroke-width:1pt;stroke-opacity:1;fill:#000000;fill-opacity:1"
         d="M 0.0,0.0 L 5.0,-5.0 L -12.5,0.0 L 5.0,5.0 L 0.0,0.0 z "
         id="path1433" />
    </marker>
    <marker
       style="overflow:visible"
       id="Arrow1Lstart"
       refX="0.0"
       refY="0.0"
       orient="auto"
       inkscape:stockid="Arrow1Lstart"
       inkscape:isstock="true">
      <path
         transform="scale(0.8) translate(12.5,0)"
         style="fill-rule:evenodd;stroke:#000000;stroke-width:1pt;stroke-opacity:1;fill:#000000;fill-opacity:1"
         d="M 0.0,0.0 L 5.0,-5.0 L -12.5,0.0 L 5.0,5.0 L 0.0,0.0 z "
         id="path1424" />
    </marker>
    <inkscape:path-effect
       effect="spiro"
       id="path-effect1422"
       is_visible="true"
       lpeversion="1" />
    <inkscape:path-effect
       effect="spiro"
       id="path-effect1418"
       is_visible="true"
       lpeversion="1" />
    <inkscape:path-effect
       effect="spiro"
       id="path-effect1113"
       is_visible="true"
       lpeversion="1" />
    <inkscape:path-effect
       effect="spiro"
       id="path-effect1094"
       is_visible="true"
       lpeversion="1" />
    <inkscape:path-effect
       effect="spiro"
       id="path-effect1090"
       is_visible="true"
       lpeversion="1" />
    <inkscape:path-effect
       effect="spiro"
       id="path-effect1086"
       is_visible="true"
       lpeversion="1" />
    <inkscape:path-effect
       effect="spiro"
       id="path-effect1050"
       is_visible="true"
       lpeversion="1" />
    <inkscape:path-effect
       effect="spiro"
       id="path-effect1031"
       is_visible="true"
       lpeversion="1" />
    <inkscape:path-effect
       effect="spiro"
       id="path-effect1029"
       is_visible="true"
       lpeversion="1" />
    <inkscape:path-effect
       effect="spiro"
       id="path-effect1017"
       is_visible="true"
       lpeversion="1" />
    <inkscape:path-effect
       effect="spiro"
       id="path-effect1015"
       is_visible="true"
       lpeversion="1" />
    <inkscape:path-effect
       effect="spiro"
       id="path-effect991"
       is_visible="true"
       lpeversion="1" />
    <inkscape:path-effect
       effect="spiro"
       id="path-effect972"
       is_visible="true"
       lpeversion="1" />
    <inkscape:path-effect
       effect="spiro"
       id="path-effect970"
       is_visible="true"
       lpeversion="1" />
    <inkscape:path-effect
       effect="spiro"
       id="path-effect958"
       is_visible="true"
       lpeversion="1" />
    <inkscape:path-effect
       effect="spiro"
       id="path-effect956"
       is_visible="true"
       lpeversion="1" />
    <inkscape:path-effect
       effect="spiro"
       id="path-effect944"
       is_visible="true"
       lpeversion="1" />
    <inkscape:path-effect
       effect="spiro"
       id="path-effect942"
       is_visible="true"
       lpeversion="1" />
    <inkscape:path-effect
       effect="spiro"
       id="path-effect930"
       is_visible="true"
       lpeversion="1" />
    <inkscape:path-effect
       effect="spiro"
       id="path-effect928"
       is_visible="true"
       lpeversion="1" />
    <inkscape:path-effect
       effect="spiro"
       id="path-effect916"
       is_visible="true"
       lpeversion="1" />
    <inkscape:path-effect
       effect="spiro"
       id="path-effect914"
       is_visible="true"
       lpeversion="1" />
    <inkscape:path-effect
       effect="spiro"
       id="path-effect902"
       is_visible="true"
       lpeversion="1" />
    <inkscape:path-effect
       effect="spiro"
       id="path-effect900"
       is_visible="true"
       lpeversion="1" />
    <inkscape:path-effect
       effect="spiro"
       id="path-effect888"
       is_visible="true"
       lpeversion="1" />
    <inkscape:path-effect
       effect="spiro"
       id="path-effect886"
       is_visible="true"
       lpeversion="1" />
    <inkscape:path-effect
       effect="spiro"
       id="path-effect862"
       is_visible="true"
       lpeversion="1" />
    <inkscape:path-effect
       effect="spiro"
       id="path-effect843"
       is_visible="true"
       lpeversion="1" />
    <inkscape:path-effect
       effect="spiro"
       id="path-effect839"
       is_visible="true"
       lpeversion="1" />
    <inkscape:path-effect
       effect="spiro"
       id="path-effect835"
       is_visible="true"
       lpeversion="1" />
  </defs>
  <sodipodi:namedview
     id="base"
     pagecolor="#ffffff"
     bordercolor="#666666"
     borderopacity="1.0"
     inkscape:pageopacity="0.0"
     inkscape:pageshadow="2"
     inkscape:zoom="3.2988122"
     inkscape:cx="267.23935"
     inkscape:cy="516.01426"
     inkscape:document-units="mm"
     inkscape:current-layer="layer1"
     inkscape:document-rotation="0"
     showgrid="false"
     inkscape:window-width="1252"
     inkscape:window-height="855"
     inkscape:window-x="120"
     inkscape:window-y="106"
     inkscape:window-maximized="0" />
  <metadata
     id="metadata5">
    <rdf:RDF>
      <cc:Work
         rdf:about="">
        <dc:format>image/svg+xml</dc:format>
        <dc:type
           rdf:resource="http://purl.org/dc/dcmitype/StillImage" />
        <dc:title></dc:title>
      </cc:Work>
    </rdf:RDF>
  </metadata>
  <g
     inkscape:label="Layer 1"
     inkscape:groupmode="layer"
     id="layer1">
    <path
       style="fill:none;stroke:#000000;stroke-width:0.264583px;stroke-linecap:butt;stroke-linejoin:miter;stroke-opacity:1"
       d="M 55.045236,149.28029 H 90.944305"
       id="path833"
       inkscape:path-effect="#path-effect835"
       inkscape:original-d="m 55.045236,149.28029 c 11.966623,2.7e-4 23.932978,2.7e-4 35.899069,0" />
    <path
       style="fill:none;stroke:#000000;stroke-width:0.220464px;stroke-linecap:butt;stroke-linejoin:miter;stroke-opacity:1"
       d="M 90.944305,149.28029 V 124.14754"
       id="path837"
       inkscape:path-effect="#path-effect839"
       inkscape:original-d="m 90.944305,149.28029 c 2.64e-4,-8.3774 2.64e-4,-16.75498 0,-25.13275" />
    <path
       style="fill:none;stroke:#000000;stroke-width:0.264583px;stroke-linecap:butt;stroke-linejoin:miter;stroke-opacity:1"
       d="m 91.080034,128.08055 4.94503,-2.85501"
       id="path841-9"
       inkscape:path-effect="#path-effect902"
       inkscape:original-d="m 91.080034,128.08055 c 1.64861,-0.9514 3.29695,-1.90307 4.94503,-2.85501" />
    <path
       style="fill:none;stroke:#000000;stroke-width:0.264583px;stroke-linecap:butt;stroke-linejoin:miter;stroke-opacity:1"
       d="m 91.139914,130.73621 4.94502,-2.85501"
       id="path841-7-0"
       inkscape:path-effect="#path-effect900"
       inkscape:original-d="m 91.139914,130.73621 c 1.6486,-0.9514 3.29695,-1.90307 4.94502,-2.85501" />
    <path
       style="fill:none;stroke:#000000;stroke-width:0.264583px;stroke-linecap:butt;stroke-linejoin:miter;stroke-opacity:1"
       d="m 90.985798,134.11206 4.94502,-2.85501"
       id="path841-2"
       inkscape:path-effect="#path-effect916"
       inkscape:original-d="m 90.985798,134.11206 c 1.6486,-0.9514 3.29695,-1.90307 4.94502,-2.85501" />
    <path
       style="fill:none;stroke:#000000;stroke-width:0.264583px;stroke-linecap:butt;stroke-linejoin:miter;stroke-opacity:1"
       d="m 91.045668,136.76772 4.94503,-2.85501"
       id="path841-7-3"
       inkscape:path-effect="#path-effect914"
       inkscape:original-d="m 91.045668,136.76772 c 1.64861,-0.9514 3.29695,-1.90307 4.94503,-2.85501" />
    <path
       style="fill:none;stroke:#000000;stroke-width:0.264583px;stroke-linecap:butt;stroke-linejoin:miter;stroke-opacity:1"
       d="m 91.080036,139.57811 4.945028,-2.85501"
       id="path841-99"
       inkscape:path-effect="#path-effect930"
       inkscape:original-d="m 91.080036,139.57811 c 1.648608,-0.9514 3.296951,-1.90307 4.945028,-2.85501" />
    <path
       style="fill:none;stroke:#000000;stroke-width:0.264583px;stroke-linecap:butt;stroke-linejoin:miter;stroke-opacity:1"
       d="m 91.139909,142.23377 4.945028,-2.85501"
       id="path841-7-70"
       inkscape:path-effect="#path-effect928"
       inkscape:original-d="m 91.139909,142.23377 c 1.648608,-0.9514 3.296951,-1.90307 4.945028,-2.85501" />
    <path
       style="fill:none;stroke:#000000;stroke-width:0.264583px;stroke-linecap:butt;stroke-linejoin:miter;stroke-opacity:1"
       d="m 91.080037,144.57294 4.945031,-2.85501"
       id="path841-39"
       inkscape:path-effect="#path-effect944"
       inkscape:original-d="m 91.080037,144.57294 c 1.648611,-0.9514 3.296951,-1.90307 4.945031,-2.85501" />
    <path
       style="fill:none;stroke:#000000;stroke-width:0.264583px;stroke-linecap:butt;stroke-linejoin:miter;stroke-opacity:1"
       d="m 91.13991,147.2286 4.945028,-2.85501"
       id="path841-7-8"
       inkscape:path-effect="#path-effect942"
       inkscape:original-d="m 91.13991,147.2286 c 1.648608,-0.9514 3.296948,-1.90307 4.945028,-2.85501" />
    <path
       style="fill:none;stroke:#000000;stroke-width:0.264583px;stroke-linecap:butt;stroke-linejoin:miter;stroke-opacity:1"
       d="m 82.132402,152.07307 4.945028,-2.85501"
       id="path841-6"
       inkscape:path-effect="#path-effect958"
       inkscape:original-d="m 82.132402,152.07307 c 1.648608,-0.9514 3.296951,-1.90307 4.945028,-2.85501" />
    <path
       style="fill:none;stroke:#000000;stroke-width:0.264583px;stroke-linecap:butt;stroke-linejoin:miter;stroke-opacity:1"
       d="m 88.412259,150.8648 4.945028,-2.85501"
       id="path841-7-5"
       inkscape:path-effect="#path-effect956"
       inkscape:original-d="m 88.412259,150.8648 c 1.648608,-0.9514 3.296951,-1.90307 4.945028,-2.85501" />
    <path
       style="fill:none;stroke:#000000;stroke-width:0.264583px;stroke-linecap:butt;stroke-linejoin:miter;stroke-opacity:1"
       d="m 77.444857,152.215 4.945028,-2.85501"
       id="path841-6-3"
       inkscape:path-effect="#path-effect991"
       inkscape:original-d="m 77.444857,152.215 c 1.648608,-0.9514 3.296951,-1.90307 4.945028,-2.85501" />
    <path
       style="fill:none;stroke:#000000;stroke-width:0.264583px;stroke-linecap:butt;stroke-linejoin:miter;stroke-opacity:1"
       d="m 72.343497,152.23827 4.945028,-2.85501"
       id="path841-6-9"
       inkscape:path-effect="#path-effect1017"
       inkscape:original-d="m 72.343497,152.23827 c 1.648608,-0.9514 3.296951,-1.90307 4.945028,-2.85501" />
    <path
       style="fill:none;stroke:#000000;stroke-width:0.264583px;stroke-linecap:butt;stroke-linejoin:miter;stroke-opacity:1"
       d="m 67.655952,152.3802 4.945028,-2.85501"
       id="path841-6-3-9"
       inkscape:path-effect="#path-effect1015"
       inkscape:original-d="m 67.655952,152.3802 c 1.648608,-0.9514 3.296951,-1.90307 4.945028,-2.85501" />
    <path
       style="fill:none;stroke:#000000;stroke-width:0.264583px;stroke-linecap:butt;stroke-linejoin:miter;stroke-opacity:1"
       d="m 62.542309,152.14403 4.945029,-2.85501"
       id="path841-6-91"
       inkscape:path-effect="#path-effect1031"
       inkscape:original-d="m 62.542309,152.14403 c 1.648609,-0.9514 3.296951,-1.90307 4.945029,-2.85501" />
    <path
       style="fill:none;stroke:#000000;stroke-width:0.264583px;stroke-linecap:butt;stroke-linejoin:miter;stroke-opacity:1"
       d="m 57.854764,152.28596 4.945028,-2.85501"
       id="path841-6-3-7"
       inkscape:path-effect="#path-effect1029"
       inkscape:original-d="m 57.854764,152.28596 c 1.648608,-0.9514 3.296952,-1.90307 4.945028,-2.85501" />
    <path
       style="fill:none;stroke:#000000;stroke-width:0.264583px;stroke-linecap:butt;stroke-linejoin:miter;stroke-opacity:1"
       d="m 53.4131,152.02651 4.945028,-2.85501"
       id="path841-6-3-7-2"
       inkscape:path-effect="#path-effect1050"
       inkscape:original-d="m 53.4131,152.02651 c 1.648608,-0.9514 3.296952,-1.90307 4.945028,-2.85501" />
    <circle
       style="fill:none;stroke:#000000;stroke-width:0.2;stroke-linejoin:round;stroke-miterlimit:4;stroke-dasharray:none;stroke-dashoffset:0"
       id="path1052"
       cx="67.995728"
       cy="148.19583"
       r="0.9895429" />
    <circle
       style="fill:none;stroke:#000000;stroke-width:0.2;stroke-linejoin:round;stroke-miterlimit:4;stroke-dasharray:none;stroke-dashoffset:0"
       id="path1052-3"
       cx="79.917366"
       cy="148.24295"
       r="0.9895429" />
    <g
       id="g1118"
       transform="translate(2.1675702,8.1048277)">
      <path
         style="fill:none;stroke:#000000;stroke-width:0.264583px;stroke-linecap:butt;stroke-linejoin:miter;stroke-opacity:1"
         d="M 62.953777,139.10146 H 80.294339"
         id="path1084"
         inkscape:path-effect="#path-effect1086"
         inkscape:original-d="m 62.953777,139.10146 c 5.78045,2.7e-4 11.560638,2.7e-4 17.340562,0" />
      <path
         style="fill:none;stroke:#000000;stroke-width:0.264583px;stroke-linecap:butt;stroke-linejoin:miter;stroke-opacity:1"
         d="M 80.294339,139.10146 V 128.54633"
         id="path1088"
         inkscape:path-effect="#path-effect1090"
         inkscape:original-d="m 80.294339,139.10146 c 2.64e-4,-3.51811 2.64e-4,-7.03648 0,-10.55513" />
      <path
         style="fill:none;stroke:#000000;stroke-width:0.264583px;stroke-linecap:butt;stroke-linejoin:miter;stroke-opacity:1"
         d="M 62.953777,139.10146 80.294339,128.54633"
         id="path1092"
         inkscape:path-effect="#path-effect1094"
         inkscape:original-d="m 62.953777,139.10146 c 5.78045,-3.51811 11.560638,-7.03649 17.340562,-10.55513" />
    </g>
    <rect
       style="fill:none;stroke:#000000;stroke-width:0.2;stroke-linejoin:round;stroke-miterlimit:4;stroke-dasharray:none;stroke-dashoffset:0"
       id="rect1120"
       width="5.794508"
       height="3.581203"
       x="-11.774243"
       y="156.02727"
       transform="rotate(-30.886128)" />
    <g
       transform="matrix(0.16952369,-0.12334675,0.12334675,0.16952369,72.454839,140.1694)"
       ns1:version="1.2.0"
       ns1:texconverter="pdflatex"
       ns1:pdfconverter="inkscape"
       ns1:text="$$m$$"
       ns1:preamble="/Users/mbh/Library/Application Support/org.inkscape.Inkscape/config/inkscape/extensions/textext/default_packages.tex"
       ns1:scale="0.594278907548945"
       ns1:alignment="middle center"
       ns1:jacobian_sqrt="0.209649"
       id="g1193">
      <defs
         id="id-e493f4fa-8760-40b3-a2b8-349da2b7a778">
        <g
           id="id-e746dcd8-494e-4cc1-b7c2-ce97fe5e0d4d">
          <symbol
             overflow="visible"
             id="id-be6aebb5-a13d-461c-a05f-9ca6f9eb244d">
            <path
               style="stroke:none;stroke-width:0"
               d=""
               id="id-6359e4ba-0203-4b00-85ab-091c3470f5b5" />
          </symbol>
          <symbol
             overflow="visible"
             id="id-74b27c5c-5ad9-4604-800c-6cccad37a3c1">
            <path
               style="stroke:none;stroke-width:0"
               d="m 8.453125,-1.421875 c 0,-0.109375 -0.09375,-0.109375 -0.125,-0.109375 -0.09375,0 -0.09375,0.03125 -0.140625,0.1875 -0.15625,0.53125 -0.46875,1.234375 -1.015625,1.234375 -0.171875,0 -0.25,-0.09375 -0.25,-0.328125 0,-0.25 0.09375,-0.484375 0.1875,-0.703125 0.1875,-0.53125 0.609375,-1.625 0.609375,-2.203125 0,-0.640625 -0.40625,-1.0625 -1.15625,-1.0625 -0.734375,0 -1.25,0.4375 -1.625,0.96875 0,-0.125 -0.03125,-0.46875 -0.3125,-0.703125 -0.25,-0.21875 -0.5625,-0.265625 -0.8125,-0.265625 -0.90625,0 -1.390625,0.640625 -1.5625,0.875 -0.046875,-0.578125 -0.46875,-0.875 -0.921875,-0.875 -0.453125,0 -0.640625,0.390625 -0.734375,0.5625 -0.171875,0.359375 -0.296875,0.9375 -0.296875,0.96875 0,0.109375 0.109375,0.109375 0.109375,0.109375 0.109375,0 0.109375,-0.015625 0.171875,-0.234375 0.171875,-0.703125 0.375,-1.1875 0.734375,-1.1875 0.15625,0 0.296875,0.078125 0.296875,0.453125 0,0.21875 -0.03125,0.328125 -0.15625,0.84375 L 0.875,-0.59375 c -0.03125,0.15625 -0.09375,0.390625 -0.09375,0.4375 0,0.171875 0.140625,0.265625 0.296875,0.265625 0.125,0 0.296875,-0.078125 0.375,-0.28125 0,-0.015625 0.125,-0.484375 0.1875,-0.734375 l 0.21875,-0.890625 C 1.90625,-2.03125 1.96875,-2.25 2.03125,-2.46875 l 0.125,-0.5 c 0.140625,-0.3125 0.671875,-1.21875 1.625,-1.21875 0.453125,0 0.53125,0.375 0.53125,0.703125 0,0.25 -0.0625,0.53125 -0.140625,0.828125 L 3.890625,-1.5 C 3.78125,-1.140625 3.78125,-1.078125 3.6875,-0.75 c -0.03125,0.203125 -0.125,0.546875 -0.125,0.59375 0,0.171875 0.140625,0.265625 0.28125,0.265625 0.3125,0 0.375,-0.25 0.453125,-0.5625 l 0.59375,-2.40625 c 0.03125,-0.125 0.5625,-1.328125 1.65625,-1.328125 0.421875,0 0.53125,0.34375 0.53125,0.703125 0,0.5625 -0.421875,1.703125 -0.625,2.234375 -0.078125,0.234375 -0.125,0.34375 -0.125,0.546875 0,0.46875 0.34375,0.8125 0.8125,0.8125 0.9375,0 1.3125,-1.453125 1.3125,-1.53125 z m 0,0"
               id="id-f885c7b0-7d67-4a43-a5d7-8b648bffa1e8" />
          </symbol>
        </g>
      </defs>
      <g
         id="id-79df719d-8c19-4da2-b36d-7c13b96d5d81"
         transform="translate(-301.547,-142.314)">
        <g
           style="fill:#000000;fill-opacity:1"
           id="id-52648258-a585-4960-9b46-397a47339ae7">
          <g
             transform="translate(301.25,146.72)"
             id="g1189">
            <path
               style="stroke:none;stroke-width:0"
               d="m 8.453125,-1.421875 c 0,-0.109375 -0.09375,-0.109375 -0.125,-0.109375 -0.09375,0 -0.09375,0.03125 -0.140625,0.1875 -0.15625,0.53125 -0.46875,1.234375 -1.015625,1.234375 -0.171875,0 -0.25,-0.09375 -0.25,-0.328125 0,-0.25 0.09375,-0.484375 0.1875,-0.703125 0.1875,-0.53125 0.609375,-1.625 0.609375,-2.203125 0,-0.640625 -0.40625,-1.0625 -1.15625,-1.0625 -0.734375,0 -1.25,0.4375 -1.625,0.96875 0,-0.125 -0.03125,-0.46875 -0.3125,-0.703125 -0.25,-0.21875 -0.5625,-0.265625 -0.8125,-0.265625 -0.90625,0 -1.390625,0.640625 -1.5625,0.875 -0.046875,-0.578125 -0.46875,-0.875 -0.921875,-0.875 -0.453125,0 -0.640625,0.390625 -0.734375,0.5625 -0.171875,0.359375 -0.296875,0.9375 -0.296875,0.96875 0,0.109375 0.109375,0.109375 0.109375,0.109375 0.109375,0 0.109375,-0.015625 0.171875,-0.234375 0.171875,-0.703125 0.375,-1.1875 0.734375,-1.1875 0.15625,0 0.296875,0.078125 0.296875,0.453125 0,0.21875 -0.03125,0.328125 -0.15625,0.84375 L 0.875,-0.59375 c -0.03125,0.15625 -0.09375,0.390625 -0.09375,0.4375 0,0.171875 0.140625,0.265625 0.296875,0.265625 0.125,0 0.296875,-0.078125 0.375,-0.28125 0,-0.015625 0.125,-0.484375 0.1875,-0.734375 l 0.21875,-0.890625 C 1.90625,-2.03125 1.96875,-2.25 2.03125,-2.46875 l 0.125,-0.5 c 0.140625,-0.3125 0.671875,-1.21875 1.625,-1.21875 0.453125,0 0.53125,0.375 0.53125,0.703125 0,0.25 -0.0625,0.53125 -0.140625,0.828125 L 3.890625,-1.5 C 3.78125,-1.140625 3.78125,-1.078125 3.6875,-0.75 c -0.03125,0.203125 -0.125,0.546875 -0.125,0.59375 0,0.171875 0.140625,0.265625 0.28125,0.265625 0.3125,0 0.375,-0.25 0.453125,-0.5625 l 0.59375,-2.40625 c 0.03125,-0.125 0.5625,-1.328125 1.65625,-1.328125 0.421875,0 0.53125,0.34375 0.53125,0.703125 0,0.5625 -0.421875,1.703125 -0.625,2.234375 -0.078125,0.234375 -0.125,0.34375 -0.125,0.546875 0,0.46875 0.34375,0.8125 0.8125,0.8125 0.9375,0 1.3125,-1.453125 1.3125,-1.53125 z m 0,0"
               id="id-b66c0a07-a9ac-4a98-91ba-e46505f8bdb7" />
          </g>
        </g>
      </g>
    </g>
    <g
       transform="matrix(0.209649,0,0,0.209649,77.274017,142.68373)"
       ns1:version="1.2.0"
       ns1:texconverter="pdflatex"
       ns1:pdfconverter="inkscape"
       ns1:text="$$M$$"
       ns1:preamble="/Users/mbh/Library/Application Support/org.inkscape.Inkscape/config/inkscape/extensions/textext/default_packages.tex"
       ns1:scale="0.594278907548945"
       ns1:alignment="middle center"
       ns1:jacobian_sqrt="0.209649"
       id="g1290">
      <defs
         id="id-bad8feb3-2e58-45ad-aebb-9cbefb832e13">
        <g
           id="id-2ceb8708-d2c6-484b-aa1b-33d2c0c8d3d1">
          <symbol
             overflow="visible"
             id="id-ff6f85e0-9512-44e3-9ac6-a4be6df3c147">
            <path
               style="stroke:none;stroke-width:0"
               d=""
               id="id-d5605df7-1bbf-4894-b66f-4e1c94646508" />
          </symbol>
          <symbol
             overflow="visible"
             id="id-f4d24435-11a1-4d54-b383-095de7b60c9f">
            <path
               style="stroke:none;stroke-width:0"
               d="M 8.78125,-0.203125 C 8.78125,-0.3125 8.6875,-0.3125 8.5,-0.3125 c -0.359375,0 -0.640625,0 -0.640625,-0.171875 0,-0.046875 0,-0.0625 0.046875,-0.25 l 1.328125,-5.3125 C 9.328125,-6.40625 9.34375,-6.5 10.09375,-6.5 c 0.21875,0 0.3125,0 0.3125,-0.203125 0,-0.109375 -0.09375,-0.109375 -0.265625,-0.109375 h -1.3125 c -0.265625,0 -0.28125,0 -0.390625,0.1875 L 4.796875,-0.9375 4.015625,-6.578125 C 3.984375,-6.8125 3.96875,-6.8125 3.703125,-6.8125 H 2.34375 c -0.1875,0 -0.296875,0 -0.296875,0.1875 0,0.125 0.09375,0.125 0.28125,0.125 0.140625,0 0.3125,0.015625 0.4375,0.015625 0.15625,0.03125 0.21875,0.046875 0.21875,0.171875 0,0.03125 -0.015625,0.0625 -0.046875,0.1875 l -1.265625,5.0625 c -0.09375,0.40625 -0.265625,0.71875 -1.078125,0.75 -0.046875,0 -0.171875,0.015625 -0.171875,0.1875 0,0.09375 0.0625,0.125 0.140625,0.125 0.3125,0 0.65625,-0.03125 1,-0.03125 C 1.890625,-0.03125 2.25,0 2.578125,0 c 0.046875,0 0.1875,0 0.1875,-0.203125 0,-0.109375 -0.109375,-0.109375 -0.1875,-0.109375 -0.5625,0 -0.671875,-0.203125 -0.671875,-0.4375 0,-0.0625 0,-0.125 0.03125,-0.234375 L 3.296875,-6.40625 H 3.3125 l 0.859375,6.171875 C 4.1875,-0.109375 4.203125,0 4.3125,0 4.421875,0 4.484375,-0.109375 4.53125,-0.171875 l 4.03125,-6.3125 h 0.015625 l -1.4375,5.703125 c -0.09375,0.390625 -0.109375,0.46875 -0.90625,0.46875 -0.15625,0 -0.265625,0 -0.265625,0.1875 C 5.96875,0 6.078125,0 6.109375,0 L 7.34375,-0.03125 C 7.75,-0.03125 8.1875,0 8.59375,0 c 0.0625,0 0.1875,0 0.1875,-0.203125 z m 0,0"
               id="id-ae367ca6-d54d-4d80-8ea7-c1e523ce25bd" />
          </symbol>
        </g>
      </defs>
      <g
         id="id-d0757a75-ec11-4b17-bfd0-b00a0afb2ba3"
         transform="translate(-300.67,-139.907)">
        <g
           style="fill:#000000;fill-opacity:1"
           id="id-db1fc8d5-93f0-42d6-be4f-774dd00be49a">
          <g
             transform="translate(300.248,146.72)"
             id="g1286">
            <path
               style="stroke:none;stroke-width:0"
               d="M 8.78125,-0.203125 C 8.78125,-0.3125 8.6875,-0.3125 8.5,-0.3125 c -0.359375,0 -0.640625,0 -0.640625,-0.171875 0,-0.046875 0,-0.0625 0.046875,-0.25 l 1.328125,-5.3125 C 9.328125,-6.40625 9.34375,-6.5 10.09375,-6.5 c 0.21875,0 0.3125,0 0.3125,-0.203125 0,-0.109375 -0.09375,-0.109375 -0.265625,-0.109375 h -1.3125 c -0.265625,0 -0.28125,0 -0.390625,0.1875 L 4.796875,-0.9375 4.015625,-6.578125 C 3.984375,-6.8125 3.96875,-6.8125 3.703125,-6.8125 H 2.34375 c -0.1875,0 -0.296875,0 -0.296875,0.1875 0,0.125 0.09375,0.125 0.28125,0.125 0.140625,0 0.3125,0.015625 0.4375,0.015625 0.15625,0.03125 0.21875,0.046875 0.21875,0.171875 0,0.03125 -0.015625,0.0625 -0.046875,0.1875 l -1.265625,5.0625 c -0.09375,0.40625 -0.265625,0.71875 -1.078125,0.75 -0.046875,0 -0.171875,0.015625 -0.171875,0.1875 0,0.09375 0.0625,0.125 0.140625,0.125 0.3125,0 0.65625,-0.03125 1,-0.03125 C 1.890625,-0.03125 2.25,0 2.578125,0 c 0.046875,0 0.1875,0 0.1875,-0.203125 0,-0.109375 -0.109375,-0.109375 -0.1875,-0.109375 -0.5625,0 -0.671875,-0.203125 -0.671875,-0.4375 0,-0.0625 0,-0.125 0.03125,-0.234375 L 3.296875,-6.40625 H 3.3125 l 0.859375,6.171875 C 4.1875,-0.109375 4.203125,0 4.3125,0 4.421875,0 4.484375,-0.109375 4.53125,-0.171875 l 4.03125,-6.3125 h 0.015625 l -1.4375,5.703125 c -0.09375,0.390625 -0.109375,0.46875 -0.90625,0.46875 -0.15625,0 -0.265625,0 -0.265625,0.1875 C 5.96875,0 6.078125,0 6.109375,0 L 7.34375,-0.03125 C 7.75,-0.03125 8.1875,0 8.59375,0 c 0.0625,0 0.1875,0 0.1875,-0.203125 z m 0,0"
               id="id-c728cbdd-2ff9-4a7c-958b-11ea77cc95a3" />
          </g>
        </g>
      </g>
    </g>
    <path
       style="fill:none;stroke:#000000;stroke-width:0.2;stroke-linejoin:round;stroke-miterlimit:4;stroke-dasharray:none;stroke-dashoffset:0"
       id="path1305"
       sodipodi:type="arc"
       sodipodi:cx="68.065659"
       sodipodi:cy="146.51479"
       sodipodi:rx="1.3665116"
       sodipodi:ry="1.3665116"
       sodipodi:start="4.8775376"
       sodipodi:end="0.48426244"
       sodipodi:arc-type="arc"
       d="m 68.290312,145.16687 a 1.3665116,1.3665116 0 0 1 0.999392,0.74041 1.3665116,1.3665116 0 0 1 -0.01466,1.24369"
       sodipodi:open="true" />
    <g
       transform="matrix(0.209649,0,0,0.209649,70.882789,144.76087)"
       ns1:version="1.2.0"
       ns1:texconverter="pdflatex"
       ns1:pdfconverter="inkscape"
       ns1:text="$$\theta$$"
       ns1:preamble="/Users/mbh/Library/Application Support/org.inkscape.Inkscape/config/inkscape/extensions/textext/default_packages.tex"
       ns1:scale="0.594278907548945"
       ns1:alignment="middle center"
       ns1:jacobian_sqrt="0.209649"
       id="g1401">
      <defs
         id="id-70e3fab6-a878-4be6-9884-b8731340d587">
        <g
           id="id-05604598-934c-4172-b8cf-28b2145e571a">
          <symbol
             overflow="visible"
             id="id-63146941-1d4b-41ef-a477-34a01169f6df">
            <path
               style="stroke:none;stroke-width:0"
               d=""
               id="id-10ca6114-4f2a-435f-b1d0-c438655af679" />
          </symbol>
          <symbol
             overflow="visible"
             id="id-634c1c69-b5b7-4b0d-9549-313e8a03752c">
            <path
               style="stroke:none;stroke-width:0"
               d="m 4.53125,-4.984375 c 0,-0.65625 -0.171875,-2.046875 -1.1875,-2.046875 -1.390625,0 -2.921875,2.8125 -2.921875,5.09375 0,0.9375 0.28125,2.046875 1.1875,2.046875 1.40625,0 2.921875,-2.859375 2.921875,-5.09375 z M 3.5625,-3.625 H 1.46875 C 1.640625,-4.25 1.84375,-5.046875 2.25,-5.765625 2.515625,-6.25 2.875,-6.8125 3.328125,-6.8125 c 0.484375,0 0.546875,0.640625 0.546875,1.203125 0,0.5 -0.078125,1 -0.3125,1.984375 z M 3.46875,-3.296875 C 3.359375,-2.84375 3.15625,-2 2.765625,-1.28125 c -0.34375,0.6875 -0.71875,1.171875 -1.15625,1.171875 -0.328125,0 -0.53125,-0.296875 -0.53125,-1.21875 0,-0.421875 0.0625,-1 0.3125,-1.96875 z m 0,0"
               id="id-160268f7-cf93-4067-8949-2ca55761d2d9" />
          </symbol>
        </g>
      </defs>
      <g
         id="id-848f8669-315c-4a28-a55c-6008f71ba2fb"
         transform="translate(-303.569,-139.689)">
        <g
           style="fill:#000000;fill-opacity:1"
           id="id-f5850e79-bf7e-4d1e-a23d-0932df3afab6">
          <g
             transform="translate(303.147,146.72)"
             id="g1397">
            <path
               style="stroke:none;stroke-width:0"
               d="m 4.53125,-4.984375 c 0,-0.65625 -0.171875,-2.046875 -1.1875,-2.046875 -1.390625,0 -2.921875,2.8125 -2.921875,5.09375 0,0.9375 0.28125,2.046875 1.1875,2.046875 1.40625,0 2.921875,-2.859375 2.921875,-5.09375 z M 3.5625,-3.625 H 1.46875 C 1.640625,-4.25 1.84375,-5.046875 2.25,-5.765625 2.515625,-6.25 2.875,-6.8125 3.328125,-6.8125 c 0.484375,0 0.546875,0.640625 0.546875,1.203125 0,0.5 -0.078125,1 -0.3125,1.984375 z M 3.46875,-3.296875 C 3.359375,-2.84375 3.15625,-2 2.765625,-1.28125 c -0.34375,0.6875 -0.71875,1.171875 -1.15625,1.171875 -0.328125,0 -0.53125,-0.296875 -0.53125,-1.21875 0,-0.421875 0.0625,-1 0.3125,-1.96875 z m 0,0"
               id="id-f160cdd9-a008-4d9d-9ee0-2c1b782b07d9" />
          </g>
        </g>
      </g>
    </g>
    <path
       style="fill:none;stroke:#000000;stroke-width:0.15;stroke-linecap:butt;stroke-linejoin:miter;stroke-opacity:1;stroke-miterlimit:4;stroke-dasharray:none"
       d="m 75.790413,138.26365 15.210682,-8.78189"
       id="path1416"
       inkscape:path-effect="#path-effect1418"
       inkscape:original-d="m 75.790413,138.26365 c 5.070491,-2.92704 10.140718,-5.85433 15.210682,-8.78189" />
    <path
       style="fill:none;stroke:#000000;stroke-width:0.15;stroke-linecap:butt;stroke-linejoin:miter;stroke-opacity:1;marker-end:url(#Arrow2Mend);stroke-miterlimit:4;stroke-dasharray:none"
       d="M 65.121347,147.20629 H 59.521409"
       id="path1420"
       inkscape:path-effect="#path-effect1422"
       inkscape:original-d="m 65.121347,147.20629 c -1.866442,2.6e-4 -3.733089,2.6e-4 -5.599938,0" />
    <g
       transform="matrix(0.209649,0,0,0.209649,59.451188,143.89476)"
       ns1:version="1.2.0"
       ns1:texconverter="pdflatex"
       ns1:pdfconverter="inkscape"
       ns1:text="$$F$$"
       ns1:preamble="/Users/mbh/Library/Application Support/org.inkscape.Inkscape/config/inkscape/extensions/textext/default_packages.tex"
       ns1:scale="0.594278907548945"
       ns1:alignment="middle center"
       ns1:jacobian_sqrt="0.209649"
       id="g1867">
      <defs
         id="id-07d475ae-d4ef-48d4-9f55-069dd9772597">
        <g
           id="id-54d32a0f-ad20-4922-8708-996587bc5976">
          <symbol
             overflow="visible"
             id="id-f4e88943-73bb-4e45-96a9-fd7448d92345">
            <path
               style="stroke:none;stroke-width:0"
               d=""
               id="id-7ff2f844-aadd-4921-9833-3d26cdefef59" />
          </symbol>
          <symbol
             overflow="visible"
             id="id-68f55148-08bd-40cf-a19c-59ef3a7f1f7f">
            <path
               style="stroke:none;stroke-width:0"
               d="M 7.25,-4.78125 7.453125,-6.515625 C 7.484375,-6.78125 7.4375,-6.78125 7.1875,-6.78125 H 2.296875 c -0.1875,0 -0.296875,0 -0.296875,0.203125 0,0.109375 0.09375,0.109375 0.28125,0.109375 0.375,0 0.65625,0 0.65625,0.171875 0,0.046875 0,0.0625 -0.0625,0.25 L 1.5625,-0.78125 c -0.09375,0.390625 -0.109375,0.46875 -0.90625,0.46875 -0.171875,0 -0.28125,0 -0.28125,0.1875 C 0.375,0 0.5,0 0.53125,0 L 1.84375,-0.03125 3.328125,0 c 0.09375,0 0.203125,0 0.203125,-0.1875 0,-0.078125 -0.046875,-0.109375 -0.046875,-0.109375 C 3.453125,-0.3125 3.421875,-0.3125 3.203125,-0.3125 c -0.21875,0 -0.265625,0 -0.515625,-0.015625 -0.296875,-0.03125 -0.328125,-0.078125 -0.328125,-0.203125 0,0 0,-0.078125 0.046875,-0.21875 l 0.609375,-2.484375 h 0.96875 c 0.75,0 0.828125,0.15625 0.828125,0.4375 0,0.078125 0,0.1875 -0.0625,0.5 C 4.71875,-2.25 4.71875,-2.1875 4.71875,-2.1875 c 0,0.078125 0.0625,0.109375 0.109375,0.109375 0.109375,0 0.109375,-0.03125 0.15625,-0.203125 L 5.53125,-4.453125 c 0.03125,-0.109375 0.03125,-0.125 0.03125,-0.15625 0,0 -0.015625,-0.109375 -0.125,-0.109375 -0.09375,0 -0.109375,0.046875 -0.140625,0.21875 C 5.078125,-3.734375 4.859375,-3.546875 4,-3.546875 H 3.09375 l 0.640625,-2.53125 C 3.828125,-6.4375 3.84375,-6.46875 4.28125,-6.46875 h 1.3125 c 1.21875,0 1.453125,0.328125 1.453125,1.09375 0,0.234375 0,0.265625 -0.03125,0.546875 C 7,-4.703125 7,-4.6875 7,-4.65625 c 0,0.046875 0.03125,0.125 0.125,0.125 0.109375,0 0.109375,-0.0625 0.125,-0.25 z m 0,0"
               id="id-b76e5095-d717-4951-aaca-22f990510708" />
          </symbol>
        </g>
      </defs>
      <g
         id="id-bb47792d-3449-42e1-bb53-64c687f696d6"
         transform="translate(-302.104,-139.939)">
        <g
           style="fill:#000000;fill-opacity:1"
           id="id-af0c0385-c69e-4941-b586-cb01ec6f6764">
          <g
             transform="translate(301.729,146.72)"
             id="g1863">
            <path
               style="stroke:none;stroke-width:0"
               d="M 7.25,-4.78125 7.453125,-6.515625 C 7.484375,-6.78125 7.4375,-6.78125 7.1875,-6.78125 H 2.296875 c -0.1875,0 -0.296875,0 -0.296875,0.203125 0,0.109375 0.09375,0.109375 0.28125,0.109375 0.375,0 0.65625,0 0.65625,0.171875 0,0.046875 0,0.0625 -0.0625,0.25 L 1.5625,-0.78125 c -0.09375,0.390625 -0.109375,0.46875 -0.90625,0.46875 -0.171875,0 -0.28125,0 -0.28125,0.1875 C 0.375,0 0.5,0 0.53125,0 L 1.84375,-0.03125 3.328125,0 c 0.09375,0 0.203125,0 0.203125,-0.1875 0,-0.078125 -0.046875,-0.109375 -0.046875,-0.109375 C 3.453125,-0.3125 3.421875,-0.3125 3.203125,-0.3125 c -0.21875,0 -0.265625,0 -0.515625,-0.015625 -0.296875,-0.03125 -0.328125,-0.078125 -0.328125,-0.203125 0,0 0,-0.078125 0.046875,-0.21875 l 0.609375,-2.484375 h 0.96875 c 0.75,0 0.828125,0.15625 0.828125,0.4375 0,0.078125 0,0.1875 -0.0625,0.5 C 4.71875,-2.25 4.71875,-2.1875 4.71875,-2.1875 c 0,0.078125 0.0625,0.109375 0.109375,0.109375 0.109375,0 0.109375,-0.03125 0.15625,-0.203125 L 5.53125,-4.453125 c 0.03125,-0.109375 0.03125,-0.125 0.03125,-0.15625 0,0 -0.015625,-0.109375 -0.125,-0.109375 -0.09375,0 -0.109375,0.046875 -0.140625,0.21875 C 5.078125,-3.734375 4.859375,-3.546875 4,-3.546875 H 3.09375 l 0.640625,-2.53125 C 3.828125,-6.4375 3.84375,-6.46875 4.28125,-6.46875 h 1.3125 c 1.21875,0 1.453125,0.328125 1.453125,1.09375 0,0.234375 0,0.265625 -0.03125,0.546875 C 7,-4.703125 7,-4.6875 7,-4.65625 c 0,0.046875 0.03125,0.125 0.125,0.125 0.109375,0 0.109375,-0.0625 0.125,-0.25 z m 0,0"
               id="id-193528fd-877f-4180-b2aa-4b0acae903f0" />
          </g>
        </g>
      </g>
    </g>
  </g>
</svg>
