<?xml version="1.0" encoding="UTF-8" standalone="no"?>
<svg
   xmlns:ns14="http://www.iki.fi/pav/software/textext/"
   xmlns:dc="http://purl.org/dc/elements/1.1/"
   xmlns:cc="http://creativecommons.org/ns#"
   xmlns:rdf="http://www.w3.org/1999/02/22-rdf-syntax-ns#"
   xmlns:svg="http://www.w3.org/2000/svg"
   xmlns="http://www.w3.org/2000/svg"
   xmlns:sodipodi="http://sodipodi.sourceforge.net/DTD/sodipodi-0.dtd"
   xmlns:inkscape="http://www.inkscape.org/namespaces/inkscape"
   width="210mm"
   height="297mm"
   viewBox="0 0 210 297"
   version="1.1"
   id="svg8"
   sodipodi:docname="kubb-spring-kubb.svg"
   inkscape:version="1.0.1 (c497b03c, 2020-09-10)">
  <defs
     id="defs2">
    <inkscape:path-effect
       effect="spiro"
       id="path-effect911"
       is_visible="true"
       lpeversion="1" />
    <inkscape:path-effect
       effect="spiro"
       id="path-effect902"
       is_visible="true"
       lpeversion="1" />
    <inkscape:path-effect
       effect="spiro"
       id="path-effect893"
       is_visible="true"
       lpeversion="1" />
    <inkscape:path-effect
       effect="spiro"
       id="path-effect884"
       is_visible="true"
       lpeversion="1" />
    <inkscape:path-effect
       effect="spiro"
       id="path-effect875"
       is_visible="true"
       lpeversion="1" />
    <inkscape:path-effect
       effect="spiro"
       id="path-effect866"
       is_visible="true"
       lpeversion="1" />
    <inkscape:path-effect
       effect="spiro"
       id="path-effect847"
       is_visible="true"
       lpeversion="1" />
    <inkscape:path-effect
       effect="spiro"
       id="path-effect843"
       is_visible="true"
       lpeversion="1" />
    <inkscape:path-effect
       effect="spiro"
       id="path-effect839"
       is_visible="true"
       lpeversion="1" />
    <inkscape:path-effect
       effect="spiro"
       id="path-effect835"
       is_visible="true"
       lpeversion="1" />
  </defs>
  <sodipodi:namedview
     id="base"
     pagecolor="#ffffff"
     bordercolor="#666666"
     borderopacity="1.0"
     inkscape:pageopacity="0.0"
     inkscape:pageshadow="2"
     inkscape:zoom="2.427214"
     inkscape:cx="351.07636"
     inkscape:cy="383.01902"
     inkscape:document-units="mm"
     inkscape:current-layer="layer1"
     inkscape:document-rotation="0"
     showgrid="false"
     inkscape:window-width="1252"
     inkscape:window-height="855"
     inkscape:window-x="50"
     inkscape:window-y="113"
     inkscape:window-maximized="0" />
  <metadata
     id="metadata5">
    <rdf:RDF>
      <cc:Work
         rdf:about="">
        <dc:format>image/svg+xml</dc:format>
        <dc:type
           rdf:resource="http://purl.org/dc/dcmitype/StillImage" />
        <dc:title></dc:title>
      </cc:Work>
    </rdf:RDF>
  </metadata>
  <g
     inkscape:label="Layer 1"
     inkscape:groupmode="layer"
     id="layer1">
    <path
       style="fill:none;stroke:#000000;stroke-width:0.264583px;stroke-linecap:butt;stroke-linejoin:miter;stroke-opacity:1"
       d="M 71.160803,80.623676 V 112.41893"
       id="path833"
       inkscape:path-effect="#path-effect835"
       inkscape:original-d="m 71.160803,80.623676 c 2.65e-4,10.598682 2.65e-4,21.197094 0,31.795254" />
    <path
       style="fill:none;stroke:#000000;stroke-width:0.221355px;stroke-linecap:butt;stroke-linejoin:miter;stroke-opacity:1"
       d="M 71.160803,112.41893 H 118.2901"
       id="path841"
       inkscape:path-effect="#path-effect843"
       inkscape:original-d="m 71.160803,112.41893 c 15.70995,2.6e-4 31.419717,2.6e-4 47.129297,0" />
    <path
       style="fill:none;stroke:#000000;stroke-width:0.264583px;stroke-linecap:butt;stroke-linejoin:miter;stroke-opacity:1"
       d="m 66.389829,85.333971 4.71235,-2.720676"
       id="path845"
       inkscape:path-effect="#path-effect847"
       inkscape:original-d="m 66.389829,85.333971 c 1.571048,-0.906629 3.141831,-1.81352 4.71235,-2.720676" />
    <path
       style="fill:none;stroke:#000000;stroke-width:0.264583px;stroke-linecap:butt;stroke-linejoin:miter;stroke-opacity:1"
       d="m 66.252338,89.254329 4.71235,-2.720676"
       id="path845-2"
       inkscape:path-effect="#path-effect866"
       inkscape:original-d="m 66.252338,89.254329 c 1.571048,-0.906629 3.141831,-1.81352 4.71235,-2.720676" />
    <path
       style="fill:none;stroke:#000000;stroke-width:0.264583px;stroke-linecap:butt;stroke-linejoin:miter;stroke-opacity:1"
       d="m 66.593674,93.862363 4.712351,-2.720676"
       id="path845-3"
       inkscape:path-effect="#path-effect875"
       inkscape:original-d="m 66.593674,93.862363 c 1.571048,-0.906629 3.141832,-1.81352 4.712351,-2.720676" />
    <path
       style="fill:none;stroke:#000000;stroke-width:0.264583px;stroke-linecap:butt;stroke-linejoin:miter;stroke-opacity:1"
       d="m 66.423006,98.811733 4.71235,-2.720676"
       id="path845-9"
       inkscape:path-effect="#path-effect884"
       inkscape:original-d="m 66.423006,98.811733 c 1.571048,-0.906629 3.141831,-1.81352 4.71235,-2.720676" />
    <path
       style="fill:none;stroke:#000000;stroke-width:0.264583px;stroke-linecap:butt;stroke-linejoin:miter;stroke-opacity:1"
       d="m 66.423006,103.41977 4.712351,-2.72068"
       id="path845-97"
       inkscape:path-effect="#path-effect893"
       inkscape:original-d="m 66.423006,103.41977 c 1.571048,-0.90663 3.141832,-1.81352 4.712351,-2.72068" />
    <path
       style="fill:none;stroke:#000000;stroke-width:0.264583px;stroke-linecap:butt;stroke-linejoin:miter;stroke-opacity:1"
       d="m 66.593674,107.68646 4.71235,-2.72067"
       id="path845-0"
       inkscape:path-effect="#path-effect902"
       inkscape:original-d="m 66.593674,107.68646 c 1.571048,-0.90663 3.141831,-1.81351 4.71235,-2.72067" />
    <path
       style="fill:none;stroke:#000000;stroke-width:0.264583px;stroke-linecap:butt;stroke-linejoin:miter;stroke-opacity:1"
       d="m 66.423007,111.44116 4.71235,-2.72068"
       id="path845-39"
       inkscape:path-effect="#path-effect911"
       inkscape:original-d="m 66.423007,111.44116 c 1.57105,-0.90663 3.14183,-1.81352 4.71235,-2.72068" />
    <path
       style="fill:none;stroke:#000000;stroke-width:0.140582;stroke-linecap:butt;stroke-linejoin:miter;stroke-miterlimit:10;stroke-opacity:1"
       d="m 90.074908,104.96579 c -0.0717,1.10932 -0.49885,1.99953 -1.01424,1.99953 -0.515383,0 -0.942573,-0.89021 -1.014233,-1.99953 -0.0717,-1.1107 0.21359,-2.00091 0.585663,-2.00091 0.37207,0 0.65733,0.89021 0.58567,2.00091 -0.0717,1.10932 -0.49885,1.99953 -1.014243,1.99953 -0.51538,0 -0.94257,-0.89021 -1.01423,-1.99953 -0.0717,-1.1107 0.21359,-2.00091 0.58566,-2.00091 0.37345,0 0.65733,0.89021 0.58705,2.00091 -0.0717,1.10932 -0.49885,1.99953 -1.01424,1.99953 -0.51538,0 -0.94395,-0.89021 -1.01423,-1.99953 -0.0717,-1.1107 0.21221,-2.00091 0.58566,-2.00091 0.37207,0 0.65733,0.89021 0.58567,2.00091 -0.0717,1.10932 -0.49885,1.99953 -1.01424,1.99953 -0.51538,0 -0.94258,-0.89021 -1.01423,-1.99953 -0.0717,-1.1107 0.21359,-2.00091 0.58566,-2.00091 0.37207,0 0.65733,0.89021 0.58567,2.00091 -0.0717,1.10932 -0.49885,1.99953 -1.01424,1.99953 -0.51538,0 -0.94258,-0.89021 -1.01423,-1.99953 -0.0717,-1.1107 0.21359,-2.00091 0.58566,-2.00091 0.37345,0 0.65733,0.89021 0.58567,2.00091 -0.0703,1.10932 -0.49885,1.99953 -1.01286,1.99953 -0.51539,0 -0.94396,-0.89021 -1.01424,-1.99953 -0.0717,-1.1107 0.21222,-2.00091 0.58567,-2.00091 0.37207,0 0.65733,0.89021 0.58567,2.00091 -0.0717,1.10932 -0.49885,1.99953 -1.01424,1.99953 -0.51539,0 -0.94258,-0.89021 -1.01424,-1.99953 -0.0717,-1.1107 0.2136,-2.00091 0.58567,-2.00091 0.37207,0 0.65733,0.89021 0.58567,2.00091 -0.0717,1.10932 -0.49885,1.99953 -1.01424,1.99953 -0.51539,0 -0.94258,-0.89021 -1.01423,-1.99953 -0.0717,-1.1107 0.21359,-2.00091 0.58566,-2.00091 0.37345,0 0.65733,0.89021 0.58567,2.00091 -0.0703,1.10932 -0.49885,1.99953 -1.01424,1.99953 -0.51538,0 -0.94258,-0.89021 -1.012859,-1.99953 -0.0717,-1.1107 0.212219,-2.00091 0.585668,-2.00091 0.37207,0 0.65732,0.89021 0.58567,2.00091 -0.0717,1.10932 -0.49885,1.99953 -1.01424,1.99953 -0.515389,0 -0.94258,-0.89021 -1.01424,-1.99953 -0.0717,-1.1107 0.213601,-2.00091 0.58567,-2.00091 0.37207,0 0.65733,0.89021 0.58567,2.00091 -0.0717,1.10932 -0.498849,1.99953 -1.01424,1.99953 -0.515389,0 -0.94258,-0.89021 -1.01424,-1.99953 -0.0717,-1.1107 0.2136,-2.00091 0.585671,-2.00091 0.37345,0 0.65733,0.89021 0.58567,2.00091 -0.0703,1.10932 -0.49885,1.99953 -1.01424,1.99953 -0.515391,0 -0.94258,-0.89021 -1.01286,-1.99953 -0.0717,-1.1107 0.21222,-2.00091 0.58567,-2.00091 0.372069,0 0.65732,0.89021 0.58567,2.00091 -0.0717,1.10932 -0.498851,1.99953 -1.014241,1.99953 -0.515389,0 -0.94258,-0.89021 -1.01424,-1.99953 -0.0717,-1.1107 0.2136,-2.00091 0.58567,-2.00091 0.37207,0 0.65732,0.89021 0.58567,2.00091 -0.0717,1.10932 -0.498849,1.99953 -1.01424,1.99953 -0.51539,0 -0.94258,-0.89021 -1.01424,-1.99953 -0.0717,-1.1107 0.2136,-2.00091 0.585671,-2.00091 0.37345,0 0.657319,0.89021 0.58567,2.00091 -0.0703,1.10932 -0.49885,1.99953 -1.01424,1.99953 -0.515391,0 -0.94258,-0.89021 -1.01424,-1.99953 -0.0703,-1.1107 0.2136,-2.00091 0.587049,-2.00091 0.37207,0 0.657321,0.89021 0.585661,2.00091 -0.0717,1.10932 -0.498851,1.99953 -1.014231,1.99953 -0.515389,0 -0.94258,-0.89021 -1.01424,-1.99953 -0.0717,-1.1107 0.2136,-2.00091 0.58567,-2.00091 0.37207,0 0.65732,0.89021 0.58566,2.00091 -0.0717,1.10932 -0.498849,1.99953 -1.01423,1.99953 -0.51539,0 -0.942579,-0.89021 -1.01424,-1.99953 -0.0717,-1.1107 0.2136,-2.00091 0.585671,-2.00091 0.373449,0 0.657319,0.89021 0.585659,2.00091 -0.0703,1.10932 -0.49884,1.99953 -1.014229,1.99953 -0.515391,0 -0.942581,-0.89021 -1.014241,-1.99953 -0.0703,-1.1107 0.2136,-2.00091 0.58705,-2.00091 0.37207,0 0.655941,0.89021 0.585661,2.00091 -0.0717,1.10932 -0.498851,1.99953 -1.014231,1.99953 -0.51539,0 -0.94258,-0.89021 -1.01424,-1.99953 -0.0717,-1.1107 0.2136,-2.00091 0.58567,-2.00091 0.37207,0 0.65732,0.89021 0.58566,2.00091 -0.0717,1.10932 -0.49885,1.99953 -1.01423,1.99953 -0.51539,0 -0.94258,-0.89021 -1.01424,-1.99953 h -0.46302"
       id="path7229-3" />
    <g
       id="g2420"
       transform="matrix(1.8929431,0,0,1.8929431,-101.03874,-82.860372)">
      <circle
         style="fill:none;stroke:#000000;stroke-width:0.15;stroke-linejoin:round;stroke-miterlimit:4;stroke-dasharray:none;stroke-dashoffset:0"
         id="path2398"
         cx="103.0507"
         cy="102.21281"
         r="0.83781058" />
      <circle
         style="fill:none;stroke:#000000;stroke-width:0.15;stroke-linejoin:round;stroke-miterlimit:4;stroke-dasharray:none;stroke-dashoffset:0"
         id="path2398-4"
         cx="107.01634"
         cy="102.2129"
         r="0.83781058" />
      <rect
         style="fill:none;stroke:#000000;stroke-width:0.12542;stroke-linejoin:round;stroke-miterlimit:4;stroke-dasharray:none;stroke-dashoffset:0"
         id="rect2415"
         width="7.8533964"
         height="3.4797878"
         x="100.97799"
         y="97.788185" />
    </g>
    <g
       transform="matrix(0.209649,0,0,0.209649,96.055517,104.6296)"
       ns14:version="1.2.0"
       ns14:texconverter="pdflatex"
       ns14:pdfconverter="inkscape"
       ns14:text="$$M$$"
       ns14:preamble="/Users/mbh/Library/Application Support/org.inkscape.Inkscape/config/inkscape/extensions/textext/default_packages.tex"
       ns14:scale="0.594278907548945"
       ns14:alignment="middle center"
       ns14:jacobian_sqrt="0.209649"
       id="g2460">
      <defs
         id="id-ea44f35e-bd38-46aa-8ed1-e7f2ec604380">
        <g
           id="id-d0301a9c-9c02-4a87-b3ac-ac62c969048d">
          <symbol
             overflow="visible"
             id="id-f057741e-7f34-434a-aae7-470018fd86d9">
            <path
               style="stroke:none;stroke-width:0"
               d=""
               id="id-3cb448fc-976c-41b5-855b-830e27cd2328" />
          </symbol>
          <symbol
             overflow="visible"
             id="id-84a6a21e-a76c-496f-ab34-edb2369290d0">
            <path
               style="stroke:none;stroke-width:0"
               d="M 8.78125,-0.203125 C 8.78125,-0.3125 8.6875,-0.3125 8.5,-0.3125 c -0.359375,0 -0.640625,0 -0.640625,-0.171875 0,-0.046875 0,-0.0625 0.046875,-0.25 l 1.328125,-5.3125 C 9.328125,-6.40625 9.34375,-6.5 10.09375,-6.5 c 0.21875,0 0.3125,0 0.3125,-0.203125 0,-0.109375 -0.09375,-0.109375 -0.265625,-0.109375 h -1.3125 c -0.265625,0 -0.28125,0 -0.390625,0.1875 L 4.796875,-0.9375 4.015625,-6.578125 C 3.984375,-6.8125 3.96875,-6.8125 3.703125,-6.8125 H 2.34375 c -0.1875,0 -0.296875,0 -0.296875,0.1875 0,0.125 0.09375,0.125 0.28125,0.125 0.140625,0 0.3125,0.015625 0.4375,0.015625 0.15625,0.03125 0.21875,0.046875 0.21875,0.171875 0,0.03125 -0.015625,0.0625 -0.046875,0.1875 l -1.265625,5.0625 c -0.09375,0.40625 -0.265625,0.71875 -1.078125,0.75 -0.046875,0 -0.171875,0.015625 -0.171875,0.1875 0,0.09375 0.0625,0.125 0.140625,0.125 0.3125,0 0.65625,-0.03125 1,-0.03125 C 1.890625,-0.03125 2.25,0 2.578125,0 c 0.046875,0 0.1875,0 0.1875,-0.203125 0,-0.109375 -0.109375,-0.109375 -0.1875,-0.109375 -0.5625,0 -0.671875,-0.203125 -0.671875,-0.4375 0,-0.0625 0,-0.125 0.03125,-0.234375 L 3.296875,-6.40625 H 3.3125 l 0.859375,6.171875 C 4.1875,-0.109375 4.203125,0 4.3125,0 4.421875,0 4.484375,-0.109375 4.53125,-0.171875 l 4.03125,-6.3125 h 0.015625 l -1.4375,5.703125 c -0.09375,0.390625 -0.109375,0.46875 -0.90625,0.46875 -0.15625,0 -0.265625,0 -0.265625,0.1875 C 5.96875,0 6.078125,0 6.109375,0 L 7.34375,-0.03125 C 7.75,-0.03125 8.1875,0 8.59375,0 c 0.0625,0 0.1875,0 0.1875,-0.203125 z m 0,0"
               id="id-4f276b14-4685-45a0-b9ec-1c308442a1fe" />
          </symbol>
        </g>
      </defs>
      <g
         id="id-92ebb83c-3317-41a4-a6bc-c1fa1527f264"
         transform="translate(-300.67,-139.907)">
        <g
           style="fill:#000000;fill-opacity:1"
           id="id-66252ea6-b7d3-4c49-b98d-6bd078b9732e">
          <g
             transform="translate(300.248,146.72)"
             id="g2456">
            <path
               style="stroke:none;stroke-width:0"
               d="M 8.78125,-0.203125 C 8.78125,-0.3125 8.6875,-0.3125 8.5,-0.3125 c -0.359375,0 -0.640625,0 -0.640625,-0.171875 0,-0.046875 0,-0.0625 0.046875,-0.25 l 1.328125,-5.3125 C 9.328125,-6.40625 9.34375,-6.5 10.09375,-6.5 c 0.21875,0 0.3125,0 0.3125,-0.203125 0,-0.109375 -0.09375,-0.109375 -0.265625,-0.109375 h -1.3125 c -0.265625,0 -0.28125,0 -0.390625,0.1875 L 4.796875,-0.9375 4.015625,-6.578125 C 3.984375,-6.8125 3.96875,-6.8125 3.703125,-6.8125 H 2.34375 c -0.1875,0 -0.296875,0 -0.296875,0.1875 0,0.125 0.09375,0.125 0.28125,0.125 0.140625,0 0.3125,0.015625 0.4375,0.015625 0.15625,0.03125 0.21875,0.046875 0.21875,0.171875 0,0.03125 -0.015625,0.0625 -0.046875,0.1875 l -1.265625,5.0625 c -0.09375,0.40625 -0.265625,0.71875 -1.078125,0.75 -0.046875,0 -0.171875,0.015625 -0.171875,0.1875 0,0.09375 0.0625,0.125 0.140625,0.125 0.3125,0 0.65625,-0.03125 1,-0.03125 C 1.890625,-0.03125 2.25,0 2.578125,0 c 0.046875,0 0.1875,0 0.1875,-0.203125 0,-0.109375 -0.109375,-0.109375 -0.1875,-0.109375 -0.5625,0 -0.671875,-0.203125 -0.671875,-0.4375 0,-0.0625 0,-0.125 0.03125,-0.234375 L 3.296875,-6.40625 H 3.3125 l 0.859375,6.171875 C 4.1875,-0.109375 4.203125,0 4.3125,0 4.421875,0 4.484375,-0.109375 4.53125,-0.171875 l 4.03125,-6.3125 h 0.015625 l -1.4375,5.703125 c -0.09375,0.390625 -0.109375,0.46875 -0.90625,0.46875 -0.15625,0 -0.265625,0 -0.265625,0.1875 C 5.96875,0 6.078125,0 6.109375,0 L 7.34375,-0.03125 C 7.75,-0.03125 8.1875,0 8.59375,0 c 0.0625,0 0.1875,0 0.1875,-0.203125 z m 0,0"
               id="id-2623b2c2-fe99-4a50-9308-22ab76469e88" />
          </g>
        </g>
      </g>
    </g>
    <rect
       style="fill:none;stroke:#000000;stroke-width:0.15;stroke-linejoin:round;stroke-miterlimit:4;stroke-dasharray:none;stroke-dashoffset:0"
       id="rect2475"
       width="4.8905649"
       height="4.8905649"
       x="95.275459"
       y="97.358475" />
    <g
       transform="matrix(0.209649,0,0,0.209649,96.700047,99.526208)"
       ns14:version="1.2.0"
       ns14:texconverter="pdflatex"
       ns14:pdfconverter="inkscape"
       ns14:text="$$m$$"
       ns14:preamble="/Users/mbh/Library/Application Support/org.inkscape.Inkscape/config/inkscape/extensions/textext/default_packages.tex"
       ns14:scale="0.594278907548945"
       ns14:alignment="middle center"
       ns14:jacobian_sqrt="0.209649"
       id="g2527">
      <defs
         id="id-b3236b66-d12e-4320-96a5-de9c64d42c95">
        <g
           id="id-ae47fd48-7ebb-48ce-84a0-8aabe3e90e31">
          <symbol
             overflow="visible"
             id="id-664fda22-cde5-406d-880d-675b0b17a89b">
            <path
               style="stroke:none;stroke-width:0"
               d=""
               id="id-df70b4fc-ac8c-44df-b1d2-64b3796c5fa3" />
          </symbol>
          <symbol
             overflow="visible"
             id="id-cca29e82-6f40-415c-b6aa-993d37f93b57">
            <path
               style="stroke:none;stroke-width:0"
               d="m 8.453125,-1.421875 c 0,-0.109375 -0.09375,-0.109375 -0.125,-0.109375 -0.09375,0 -0.09375,0.03125 -0.140625,0.1875 -0.15625,0.53125 -0.46875,1.234375 -1.015625,1.234375 -0.171875,0 -0.25,-0.09375 -0.25,-0.328125 0,-0.25 0.09375,-0.484375 0.1875,-0.703125 0.1875,-0.53125 0.609375,-1.625 0.609375,-2.203125 0,-0.640625 -0.40625,-1.0625 -1.15625,-1.0625 -0.734375,0 -1.25,0.4375 -1.625,0.96875 0,-0.125 -0.03125,-0.46875 -0.3125,-0.703125 -0.25,-0.21875 -0.5625,-0.265625 -0.8125,-0.265625 -0.90625,0 -1.390625,0.640625 -1.5625,0.875 -0.046875,-0.578125 -0.46875,-0.875 -0.921875,-0.875 -0.453125,0 -0.640625,0.390625 -0.734375,0.5625 -0.171875,0.359375 -0.296875,0.9375 -0.296875,0.96875 0,0.109375 0.109375,0.109375 0.109375,0.109375 0.109375,0 0.109375,-0.015625 0.171875,-0.234375 0.171875,-0.703125 0.375,-1.1875 0.734375,-1.1875 0.15625,0 0.296875,0.078125 0.296875,0.453125 0,0.21875 -0.03125,0.328125 -0.15625,0.84375 L 0.875,-0.59375 c -0.03125,0.15625 -0.09375,0.390625 -0.09375,0.4375 0,0.171875 0.140625,0.265625 0.296875,0.265625 0.125,0 0.296875,-0.078125 0.375,-0.28125 0,-0.015625 0.125,-0.484375 0.1875,-0.734375 l 0.21875,-0.890625 C 1.90625,-2.03125 1.96875,-2.25 2.03125,-2.46875 l 0.125,-0.5 c 0.140625,-0.3125 0.671875,-1.21875 1.625,-1.21875 0.453125,0 0.53125,0.375 0.53125,0.703125 0,0.25 -0.0625,0.53125 -0.140625,0.828125 L 3.890625,-1.5 C 3.78125,-1.140625 3.78125,-1.078125 3.6875,-0.75 c -0.03125,0.203125 -0.125,0.546875 -0.125,0.59375 0,0.171875 0.140625,0.265625 0.28125,0.265625 0.3125,0 0.375,-0.25 0.453125,-0.5625 l 0.59375,-2.40625 c 0.03125,-0.125 0.5625,-1.328125 1.65625,-1.328125 0.421875,0 0.53125,0.34375 0.53125,0.703125 0,0.5625 -0.421875,1.703125 -0.625,2.234375 -0.078125,0.234375 -0.125,0.34375 -0.125,0.546875 0,0.46875 0.34375,0.8125 0.8125,0.8125 0.9375,0 1.3125,-1.453125 1.3125,-1.53125 z m 0,0"
               id="id-92375dd1-7ae6-43ea-a65f-ece0eafbe8cb" />
          </symbol>
        </g>
      </defs>
      <g
         id="id-90446570-3ec7-4b59-a1ca-cf21cbff5a48"
         transform="translate(-301.547,-142.314)">
        <g
           style="fill:#000000;fill-opacity:1"
           id="id-fbdee9aa-0e20-43e6-9add-9d8551f31557">
          <g
             transform="translate(301.25,146.72)"
             id="g2523">
            <path
               style="stroke:none;stroke-width:0"
               d="m 8.453125,-1.421875 c 0,-0.109375 -0.09375,-0.109375 -0.125,-0.109375 -0.09375,0 -0.09375,0.03125 -0.140625,0.1875 -0.15625,0.53125 -0.46875,1.234375 -1.015625,1.234375 -0.171875,0 -0.25,-0.09375 -0.25,-0.328125 0,-0.25 0.09375,-0.484375 0.1875,-0.703125 0.1875,-0.53125 0.609375,-1.625 0.609375,-2.203125 0,-0.640625 -0.40625,-1.0625 -1.15625,-1.0625 -0.734375,0 -1.25,0.4375 -1.625,0.96875 0,-0.125 -0.03125,-0.46875 -0.3125,-0.703125 -0.25,-0.21875 -0.5625,-0.265625 -0.8125,-0.265625 -0.90625,0 -1.390625,0.640625 -1.5625,0.875 -0.046875,-0.578125 -0.46875,-0.875 -0.921875,-0.875 -0.453125,0 -0.640625,0.390625 -0.734375,0.5625 -0.171875,0.359375 -0.296875,0.9375 -0.296875,0.96875 0,0.109375 0.109375,0.109375 0.109375,0.109375 0.109375,0 0.109375,-0.015625 0.171875,-0.234375 0.171875,-0.703125 0.375,-1.1875 0.734375,-1.1875 0.15625,0 0.296875,0.078125 0.296875,0.453125 0,0.21875 -0.03125,0.328125 -0.15625,0.84375 L 0.875,-0.59375 c -0.03125,0.15625 -0.09375,0.390625 -0.09375,0.4375 0,0.171875 0.140625,0.265625 0.296875,0.265625 0.125,0 0.296875,-0.078125 0.375,-0.28125 0,-0.015625 0.125,-0.484375 0.1875,-0.734375 l 0.21875,-0.890625 C 1.90625,-2.03125 1.96875,-2.25 2.03125,-2.46875 l 0.125,-0.5 c 0.140625,-0.3125 0.671875,-1.21875 1.625,-1.21875 0.453125,0 0.53125,0.375 0.53125,0.703125 0,0.25 -0.0625,0.53125 -0.140625,0.828125 L 3.890625,-1.5 C 3.78125,-1.140625 3.78125,-1.078125 3.6875,-0.75 c -0.03125,0.203125 -0.125,0.546875 -0.125,0.59375 0,0.171875 0.140625,0.265625 0.28125,0.265625 0.3125,0 0.375,-0.25 0.453125,-0.5625 l 0.59375,-2.40625 c 0.03125,-0.125 0.5625,-1.328125 1.65625,-1.328125 0.421875,0 0.53125,0.34375 0.53125,0.703125 0,0.5625 -0.421875,1.703125 -0.625,2.234375 -0.078125,0.234375 -0.125,0.34375 -0.125,0.546875 0,0.46875 0.34375,0.8125 0.8125,0.8125 0.9375,0 1.3125,-1.453125 1.3125,-1.53125 z m 0,0"
               id="id-81ee4c29-fcd8-4187-ab8a-b241a5d47b32" />
          </g>
        </g>
      </g>
    </g>
    <path
       style="fill:none;stroke:#000000;stroke-width:0.0547933;stroke-linecap:butt;stroke-linejoin:miter;stroke-miterlimit:4;stroke-dasharray:none;stroke-opacity:1"
       d="m 89.243816,107.92034 c 5e-4,2.2038 -4.54976,-0.11952 -4.969672,1.50298 -0.482247,-1.65034 -5.307162,0.704 -5.27874,-1.62393"
       id="path1255-9-6-6"
       sodipodi:nodetypes="ccc" />
    <g
       transform="matrix(0.209649,0,0,0.209649,83.589945,110.46842)"
       ns14:version="1.2.0"
       ns14:texconverter="pdflatex"
       ns14:pdfconverter="inkscape"
       ns14:text="$$x$$"
       ns14:preamble="/Users/mbh/Library/Application Support/org.inkscape.Inkscape/config/inkscape/extensions/textext/default_packages.tex"
       ns14:scale="0.594278907548945"
       ns14:alignment="middle center"
       ns14:jacobian_sqrt="0.209649"
       id="g3252">
      <defs
         id="id-304c4c3a-f9ad-455e-9ae5-7fb5d596258f">
        <g
           id="id-88fd8385-5b48-46ad-a45a-85947d7fca80">
          <symbol
             overflow="visible"
             id="id-1d3036c9-d25c-48ae-a416-8063bb0f130c">
            <path
               style="stroke:none;stroke-width:0"
               d=""
               id="id-17d5a6a0-e2dc-4ab5-826c-2811ae4ac9a9" />
          </symbol>
          <symbol
             overflow="visible"
             id="id-b9272261-6b0a-47b8-ba8b-93bc18d7dc18">
            <path
               style="stroke:none;stroke-width:0"
               d="m 4.9375,-1.421875 c 0,-0.109375 -0.078125,-0.109375 -0.109375,-0.109375 -0.09375,0 -0.109375,0.046875 -0.140625,0.109375 -0.328125,1.078125 -1,1.3125 -1.3125,1.3125 -0.390625,0 -0.546875,-0.3125 -0.546875,-0.65625 0,-0.21875 0.046875,-0.4375 0.15625,-0.875 l 0.34375,-1.375 C 3.390625,-3.265625 3.625,-4.1875 4.3125,-4.1875 c 0.046875,0 0.296875,0 0.5,0.125 C 4.53125,-4 4.34375,-3.765625 4.34375,-3.515625 c 0,0.15625 0.109375,0.34375 0.375,0.34375 0.21875,0 0.53125,-0.171875 0.53125,-0.578125 0,-0.515625 -0.578125,-0.65625 -0.921875,-0.65625 -0.578125,0 -0.921875,0.53125 -1.046875,0.75 -0.25,-0.65625 -0.78125,-0.75 -1.078125,-0.75 -1.03125,0 -1.609375,1.28125 -1.609375,1.53125 0,0.109375 0.125,0.109375 0.125,0.109375 0.078125,0 0.109375,-0.03125 0.125,-0.109375 0.34375,-1.0625 1,-1.3125 1.34375,-1.3125 0.1875,0 0.53125,0.09375 0.53125,0.671875 0,0.3125 -0.171875,0.96875 -0.53125,2.375 -0.15625,0.609375 -0.515625,1.03125 -0.953125,1.03125 -0.0625,0 -0.28125,0 -0.5,-0.125 0.25,-0.0625 0.46875,-0.265625 0.46875,-0.546875 0,-0.265625 -0.21875,-0.34375 -0.359375,-0.34375 -0.3125,0 -0.546875,0.25 -0.546875,0.578125 0,0.453125 0.484375,0.65625 0.921875,0.65625 0.671875,0 1.03125,-0.703125 1.046875,-0.75 0.125,0.359375 0.484375,0.75 1.078125,0.75 1.03125,0 1.59375,-1.28125 1.59375,-1.53125 z m 0,0"
               id="id-feb726f4-4fcf-470a-bbc6-62126ef387d5" />
          </symbol>
        </g>
      </defs>
      <g
         id="id-cdfa87d9-0c67-493f-b693-cb4bd3e56aa7"
         transform="translate(-303.074,-142.314)">
        <g
           style="fill:#000000;fill-opacity:1"
           id="id-f05f9c1f-1920-4fcb-b902-d9e292714d86">
          <g
             transform="translate(302.777,146.72)"
             id="g3248">
            <path
               style="stroke:none;stroke-width:0"
               d="m 4.9375,-1.421875 c 0,-0.109375 -0.078125,-0.109375 -0.109375,-0.109375 -0.09375,0 -0.109375,0.046875 -0.140625,0.109375 -0.328125,1.078125 -1,1.3125 -1.3125,1.3125 -0.390625,0 -0.546875,-0.3125 -0.546875,-0.65625 0,-0.21875 0.046875,-0.4375 0.15625,-0.875 l 0.34375,-1.375 C 3.390625,-3.265625 3.625,-4.1875 4.3125,-4.1875 c 0.046875,0 0.296875,0 0.5,0.125 C 4.53125,-4 4.34375,-3.765625 4.34375,-3.515625 c 0,0.15625 0.109375,0.34375 0.375,0.34375 0.21875,0 0.53125,-0.171875 0.53125,-0.578125 0,-0.515625 -0.578125,-0.65625 -0.921875,-0.65625 -0.578125,0 -0.921875,0.53125 -1.046875,0.75 -0.25,-0.65625 -0.78125,-0.75 -1.078125,-0.75 -1.03125,0 -1.609375,1.28125 -1.609375,1.53125 0,0.109375 0.125,0.109375 0.125,0.109375 0.078125,0 0.109375,-0.03125 0.125,-0.109375 0.34375,-1.0625 1,-1.3125 1.34375,-1.3125 0.1875,0 0.53125,0.09375 0.53125,0.671875 0,0.3125 -0.171875,0.96875 -0.53125,2.375 -0.15625,0.609375 -0.515625,1.03125 -0.953125,1.03125 -0.0625,0 -0.28125,0 -0.5,-0.125 0.25,-0.0625 0.46875,-0.265625 0.46875,-0.546875 0,-0.265625 -0.21875,-0.34375 -0.359375,-0.34375 -0.3125,0 -0.546875,0.25 -0.546875,0.578125 0,0.453125 0.484375,0.65625 0.921875,0.65625 0.671875,0 1.03125,-0.703125 1.046875,-0.75 0.125,0.359375 0.484375,0.75 1.078125,0.75 1.03125,0 1.59375,-1.28125 1.59375,-1.53125 z m 0,0"
               id="id-69d18c94-8a1b-46f1-8587-8edcbae466a6" />
          </g>
        </g>
      </g>
    </g>
    <g
       transform="matrix(0.209649,0,0,0.209649,81.092635,99.750765)"
       ns14:version="1.2.0"
       ns14:texconverter="pdflatex"
       ns14:pdfconverter="inkscape"
       ns14:text="$$k$$"
       ns14:preamble="/Users/mbh/Library/Application Support/org.inkscape.Inkscape/config/inkscape/extensions/textext/default_packages.tex"
       ns14:scale="0.594278907548945"
       ns14:alignment="middle center"
       ns14:jacobian_sqrt="0.209649"
       id="g3340">
      <defs
         id="id-bbb957e6-ee47-4689-9139-339624bc2077">
        <g
           id="id-5a02d36d-ad35-443c-9c61-4ddfeacc1ddc">
          <symbol
             overflow="visible"
             id="id-48b93063-c69e-4c76-94cf-63e48dcb08e8">
            <path
               style="stroke:none;stroke-width:0"
               d=""
               id="id-b0fb4bed-3e4b-4f25-b55b-b7be9bc0103c" />
          </symbol>
          <symbol
             overflow="visible"
             id="id-9f633ed7-864b-4c44-9157-fa48a02a3022">
            <path
               style="stroke:none;stroke-width:0"
               d="m 4.890625,-1.421875 c 0,-0.109375 -0.09375,-0.109375 -0.125,-0.109375 -0.09375,0 -0.109375,0.046875 -0.140625,0.1875 -0.203125,0.71875 -0.421875,1.234375 -0.859375,1.234375 -0.203125,0 -0.328125,-0.109375 -0.328125,-0.46875 0,-0.171875 0.046875,-0.40625 0.078125,-0.5625 C 3.5625,-1.3125 3.5625,-1.34375 3.5625,-1.453125 3.5625,-2.09375 2.9375,-2.375 2.078125,-2.5 2.390625,-2.671875 2.71875,-2.984375 2.9375,-3.234375 3.421875,-3.765625 3.875,-4.1875 4.359375,-4.1875 c 0.0625,0 0.078125,0 0.09375,0.015625 0.125,0.015625 0.125,0.015625 0.21875,0.078125 0.015625,0 0.015625,0.015625 0.03125,0.03125 -0.46875,0.03125 -0.5625,0.421875 -0.5625,0.546875 0,0.15625 0.109375,0.34375 0.375,0.34375 0.265625,0 0.546875,-0.21875 0.546875,-0.609375 0,-0.296875 -0.234375,-0.625 -0.671875,-0.625 -0.28125,0 -0.734375,0.078125 -1.453125,0.875 -0.34375,0.375 -0.734375,0.78125 -1.109375,0.921875 L 2.859375,-6.8125 c 0,0 0,-0.109375 -0.125,-0.109375 -0.234375,0 -0.953125,0.078125 -1.21875,0.109375 -0.078125,0 -0.1875,0.015625 -0.1875,0.1875 0,0.125 0.09375,0.125 0.234375,0.125 0.484375,0 0.5,0.0625 0.5,0.171875 L 2.03125,-6.125 0.59375,-0.390625 c -0.046875,0.140625 -0.046875,0.15625 -0.046875,0.21875 0,0.234375 0.203125,0.28125 0.296875,0.28125 0.125,0 0.265625,-0.09375 0.328125,-0.203125 0.046875,-0.09375 0.5,-1.9375 0.5625,-2.1875 0.34375,0.03125 1.15625,0.1875 1.15625,0.84375 0,0.078125 0,0.109375 -0.03125,0.21875 -0.015625,0.109375 -0.03125,0.234375 -0.03125,0.34375 0,0.578125 0.390625,0.984375 0.90625,0.984375 0.296875,0 0.578125,-0.15625 0.796875,-0.53125 0.25,-0.4375 0.359375,-1 0.359375,-1 z m 0,0"
               id="id-07efee3f-1484-47f2-a2d3-8bd80cb0e744" />
          </symbol>
        </g>
      </defs>
      <g
         id="id-2b1f0824-5551-4ffa-b0ef-2ce8f42c4bd6"
         transform="translate(-303.421,-139.798)">
        <g
           style="fill:#000000;fill-opacity:1"
           id="id-8d3caa9a-f87c-4d63-b543-99be2eb711bc">
          <g
             transform="translate(302.874,146.72)"
             id="g3336">
            <path
               style="stroke:none;stroke-width:0"
               d="m 4.890625,-1.421875 c 0,-0.109375 -0.09375,-0.109375 -0.125,-0.109375 -0.09375,0 -0.109375,0.046875 -0.140625,0.1875 -0.203125,0.71875 -0.421875,1.234375 -0.859375,1.234375 -0.203125,0 -0.328125,-0.109375 -0.328125,-0.46875 0,-0.171875 0.046875,-0.40625 0.078125,-0.5625 C 3.5625,-1.3125 3.5625,-1.34375 3.5625,-1.453125 3.5625,-2.09375 2.9375,-2.375 2.078125,-2.5 2.390625,-2.671875 2.71875,-2.984375 2.9375,-3.234375 3.421875,-3.765625 3.875,-4.1875 4.359375,-4.1875 c 0.0625,0 0.078125,0 0.09375,0.015625 0.125,0.015625 0.125,0.015625 0.21875,0.078125 0.015625,0 0.015625,0.015625 0.03125,0.03125 -0.46875,0.03125 -0.5625,0.421875 -0.5625,0.546875 0,0.15625 0.109375,0.34375 0.375,0.34375 0.265625,0 0.546875,-0.21875 0.546875,-0.609375 0,-0.296875 -0.234375,-0.625 -0.671875,-0.625 -0.28125,0 -0.734375,0.078125 -1.453125,0.875 -0.34375,0.375 -0.734375,0.78125 -1.109375,0.921875 L 2.859375,-6.8125 c 0,0 0,-0.109375 -0.125,-0.109375 -0.234375,0 -0.953125,0.078125 -1.21875,0.109375 -0.078125,0 -0.1875,0.015625 -0.1875,0.1875 0,0.125 0.09375,0.125 0.234375,0.125 0.484375,0 0.5,0.0625 0.5,0.171875 L 2.03125,-6.125 0.59375,-0.390625 c -0.046875,0.140625 -0.046875,0.15625 -0.046875,0.21875 0,0.234375 0.203125,0.28125 0.296875,0.28125 0.125,0 0.265625,-0.09375 0.328125,-0.203125 0.046875,-0.09375 0.5,-1.9375 0.5625,-2.1875 0.34375,0.03125 1.15625,0.1875 1.15625,0.84375 0,0.078125 0,0.109375 -0.03125,0.21875 -0.015625,0.109375 -0.03125,0.234375 -0.03125,0.34375 0,0.578125 0.390625,0.984375 0.90625,0.984375 0.296875,0 0.578125,-0.15625 0.796875,-0.53125 0.25,-0.4375 0.359375,-1 0.359375,-1 z m 0,0"
               id="id-7cec48a1-e3d5-4216-a085-e9a08e0eea5d" />
          </g>
        </g>
      </g>
    </g>
  </g>
</svg>
