<?xml version="1.0" encoding="UTF-8" standalone="no"?>
<svg
   xmlns:ns1="http://www.iki.fi/pav/software/textext/"
   xmlns:dc="http://purl.org/dc/elements/1.1/"
   xmlns:cc="http://creativecommons.org/ns#"
   xmlns:rdf="http://www.w3.org/1999/02/22-rdf-syntax-ns#"
   xmlns:svg="http://www.w3.org/2000/svg"
   xmlns="http://www.w3.org/2000/svg"
   xmlns:sodipodi="http://sodipodi.sourceforge.net/DTD/sodipodi-0.dtd"
   xmlns:inkscape="http://www.inkscape.org/namespaces/inkscape"
   width="210mm"
   height="297mm"
   viewBox="0 0 210 297"
   version="1.1"
   id="svg8"
   sodipodi:docname="orkuvardveisla-kula.svg"
   inkscape:version="1.0.1 (c497b03c, 2020-09-10)">
  <defs
     id="defs2">
    <inkscape:path-effect
       effect="spiro"
       id="path-effect5503"
       is_visible="true"
       lpeversion="1" />
    <inkscape:path-effect
       effect="spiro"
       id="path-effect5501"
       is_visible="true"
       lpeversion="1" />
    <inkscape:path-effect
       effect="spiro"
       id="path-effect5489"
       is_visible="true"
       lpeversion="1" />
    <inkscape:path-effect
       effect="spiro"
       id="path-effect5487"
       is_visible="true"
       lpeversion="1" />
    <inkscape:path-effect
       effect="spiro"
       id="path-effect5475"
       is_visible="true"
       lpeversion="1" />
    <inkscape:path-effect
       effect="spiro"
       id="path-effect5473"
       is_visible="true"
       lpeversion="1" />
    <inkscape:path-effect
       effect="spiro"
       id="path-effect5461"
       is_visible="true"
       lpeversion="1" />
    <inkscape:path-effect
       effect="spiro"
       id="path-effect5459"
       is_visible="true"
       lpeversion="1" />
    <inkscape:path-effect
       effect="spiro"
       id="path-effect5447"
       is_visible="true"
       lpeversion="1" />
    <inkscape:path-effect
       effect="spiro"
       id="path-effect5445"
       is_visible="true"
       lpeversion="1" />
    <inkscape:path-effect
       effect="spiro"
       id="path-effect5421"
       is_visible="true"
       lpeversion="1" />
    <inkscape:path-effect
       effect="spiro"
       id="path-effect5402"
       is_visible="true"
       lpeversion="1" />
    <inkscape:path-effect
       effect="spiro"
       id="path-effect5229"
       is_visible="true"
       lpeversion="1" />
    <inkscape:path-effect
       effect="spiro"
       id="path-effect4394"
       is_visible="true"
       lpeversion="1" />
    <inkscape:path-effect
       effect="spiro"
       id="path-effect4380"
       is_visible="true"
       lpeversion="1" />
    <inkscape:path-effect
       effect="spiro"
       id="path-effect847"
       is_visible="true"
       lpeversion="1" />
    <inkscape:path-effect
       effect="spiro"
       id="path-effect843"
       is_visible="true"
       lpeversion="1" />
    <inkscape:path-effect
       effect="spiro"
       id="path-effect839"
       is_visible="true"
       lpeversion="1" />
    <inkscape:path-effect
       effect="spiro"
       id="path-effect835"
       is_visible="true"
       lpeversion="1" />
  </defs>
  <sodipodi:namedview
     id="base"
     pagecolor="#ffffff"
     bordercolor="#666666"
     borderopacity="1.0"
     inkscape:pageopacity="0.0"
     inkscape:pageshadow="2"
     inkscape:zoom="2.3286444"
     inkscape:cx="273.49756"
     inkscape:cy="397.81075"
     inkscape:document-units="mm"
     inkscape:current-layer="layer1"
     inkscape:document-rotation="0"
     showgrid="false"
     inkscape:window-width="1252"
     inkscape:window-height="855"
     inkscape:window-x="262"
     inkscape:window-y="23"
     inkscape:window-maximized="0" />
  <metadata
     id="metadata5">
    <rdf:RDF>
      <cc:Work
         rdf:about="">
        <dc:format>image/svg+xml</dc:format>
        <dc:type
           rdf:resource="http://purl.org/dc/dcmitype/StillImage" />
        <dc:title></dc:title>
      </cc:Work>
    </rdf:RDF>
  </metadata>
  <g
     inkscape:label="Layer 1"
     inkscape:groupmode="layer"
     id="layer1">
    <path
       style="fill:none;stroke:#000000;stroke-width:0.264583px;stroke-linecap:butt;stroke-linejoin:miter;stroke-opacity:1"
       d="M 42.827156,97.261676 V 113.27183"
       id="path833"
       inkscape:path-effect="#path-effect835"
       inkscape:original-d="m 42.827156,97.261676 c 2.65e-4,5.336984 2.65e-4,10.673704 0,16.010154" />
    <path
       style="fill:none;stroke:#000000;stroke-width:0.24064px;stroke-linecap:butt;stroke-linejoin:miter;stroke-opacity:1"
       d="M 42.827156,113.27183 H 77.785317"
       id="path841"
       inkscape:path-effect="#path-effect843"
       inkscape:original-d="m 42.827156,113.27183 c 11.652939,2.6e-4 23.305659,2.6e-4 34.958161,0" />
    <path
       style="fill:none;stroke:#000000;stroke-width:0.264583px;stroke-linecap:butt;stroke-linejoin:miter;stroke-opacity:1"
       d="M 77.785317,113.27183 101.2098,99.747698"
       id="path845"
       inkscape:path-effect="#path-effect847"
       inkscape:original-d="M 77.785317,113.27183 C 85.59374,108.76405 93.401899,104.25601 101.2098,99.747698" />
    <path
       style="fill:none;stroke:#000000;stroke-width:0.140582;stroke-linecap:butt;stroke-linejoin:miter;stroke-miterlimit:10;stroke-opacity:1"
       d="m 61.652,109.17964 c -0.0717,1.10932 -0.49885,1.99953 -1.01424,1.99953 -0.51538,0 -0.94257,-0.89021 -1.01423,-1.99953 -0.0717,-1.1107 0.21359,-2.00091 0.58566,-2.00091 0.37207,0 0.65733,0.89021 0.58567,2.00091 -0.0717,1.10932 -0.49885,1.99953 -1.01424,1.99953 -0.51538,0 -0.94257,-0.89021 -1.01423,-1.99953 -0.0717,-1.1107 0.21359,-2.00091 0.58566,-2.00091 0.37345,0 0.65733,0.89021 0.58705,2.00091 -0.0717,1.10932 -0.49885,1.99953 -1.01424,1.99953 -0.51538,0 -0.94395,-0.89021 -1.01423,-1.99953 -0.0717,-1.1107 0.21221,-2.00091 0.58566,-2.00091 0.37207,0 0.65733,0.89021 0.58567,2.00091 -0.0717,1.10932 -0.49885,1.99953 -1.01424,1.99953 -0.51538,0 -0.94258,-0.89021 -1.01423,-1.99953 -0.0717,-1.1107 0.21359,-2.00091 0.58566,-2.00091 0.37207,0 0.65733,0.89021 0.58567,2.00091 -0.0717,1.10932 -0.49885,1.99953 -1.01424,1.99953 -0.51538,0 -0.94258,-0.89021 -1.01423,-1.99953 -0.0717,-1.1107 0.21359,-2.00091 0.58566,-2.00091 0.37345,0 0.65733,0.89021 0.58567,2.00091 -0.0703,1.10932 -0.49885,1.99953 -1.01286,1.99953 -0.51539,0 -0.94396,-0.89021 -1.01424,-1.99953 -0.0717,-1.1107 0.21222,-2.00091 0.58567,-2.00091 0.37207,0 0.65733,0.89021 0.58567,2.00091 -0.0717,1.10932 -0.49885,1.99953 -1.01424,1.99953 -0.51539,0 -0.94258,-0.89021 -1.01424,-1.99953 -0.0717,-1.1107 0.2136,-2.00091 0.58567,-2.00091 0.37207,0 0.65733,0.89021 0.58567,2.00091 -0.0717,1.10932 -0.49885,1.99953 -1.01424,1.99953 -0.51539,0 -0.94258,-0.89021 -1.01423,-1.99953 -0.0717,-1.1107 0.21359,-2.00091 0.58566,-2.00091 0.37345,0 0.65733,0.89021 0.58567,2.00091 -0.0703,1.10932 -0.49885,1.99953 -1.01424,1.99953 -0.51538,0 -0.942581,-0.89021 -1.01286,-1.99953 -0.0717,-1.1107 0.21222,-2.00091 0.585669,-2.00091 0.37207,0 0.65732,0.89021 0.58567,2.00091 -0.0717,1.10932 -0.49885,1.99953 -1.01424,1.99953 -0.51539,0 -0.94258,-0.89021 -1.01424,-1.99953 -0.0717,-1.1107 0.2136,-2.00091 0.58567,-2.00091 0.37207,0 0.65733,0.89021 0.58567,2.00091 -0.0717,1.10932 -0.49885,1.99953 -1.01424,1.99953 -0.51539,0 -0.94258,-0.89021 -1.01424,-1.99953 -0.0717,-1.1107 0.2136,-2.00091 0.58567,-2.00091 0.37345,0 0.65733,0.89021 0.58567,2.00091 -0.0703,1.10932 -0.49885,1.99953 -1.01424,1.99953 -0.51539,0 -0.94258,-0.89021 -1.01286,-1.99953 -0.0717,-1.1107 0.21222,-2.00091 0.58567,-2.00091 0.37207,0 0.65732,0.89021 0.58567,2.00091 -0.0717,1.10932 -0.49885,1.99953 -1.01424,1.99953 -0.51539,0 -0.94258,-0.89021 -1.01424,-1.99953 -0.0717,-1.1107 0.2136,-2.00091 0.58567,-2.00091 0.37207,0 0.65732,0.89021 0.58567,2.00091 -0.0717,1.10932 -0.49885,1.99953 -1.01424,1.99953 -0.51539,0 -0.94258,-0.89021 -1.01424,-1.99953 -0.0717,-1.1107 0.2136,-2.00091 0.58567,-2.00091 0.37345,0 0.65732,0.89021 0.58567,2.00091 -0.0703,1.10932 -0.49885,1.99953 -1.01424,1.99953 -0.51539,0 -0.94258,-0.89021 -1.01424,-1.99953 -0.0703,-1.1107 0.2136,-2.00091 0.58705,-2.00091 0.37207,0 0.65732,0.89021 0.58566,2.00091 -0.0717,1.10932 -0.49885,1.99953 -1.01423,1.99953 -0.51539,0 -0.94258,-0.89021 -1.01424,-1.99953 -0.0717,-1.1107 0.2136,-2.00091 0.58567,-2.00091 0.37207,0 0.65732,0.89021 0.58566,2.00091 -0.0717,1.10932 -0.49885,1.99953 -1.01423,1.99953 -0.51539,0 -0.94258,-0.89021 -1.01424,-1.99953 -0.0717,-1.1107 0.2136,-2.00091 0.58567,-2.00091 0.37345,0 0.65732,0.89021 0.58566,2.00091 -0.0703,1.10932 -0.49884,1.99953 -1.01423,1.99953 -0.51539,0 -0.94258,-0.89021 -1.01424,-1.99953 -0.0703,-1.1107 0.2136,-2.00091 0.58705,-2.00091 0.37207,0 0.65594,0.89021 0.58566,2.00091 -0.0717,1.10932 -0.49885,1.99953 -1.01423,1.99953 -0.51539,0 -0.94258,-0.89021 -1.01424,-1.99953 -0.0717,-1.1107 0.2136,-2.00091 0.58567,-2.00091 0.37207,0 0.65732,0.89021 0.58566,2.00091 -0.0717,1.10932 -0.49885,1.99953 -1.01423,1.99953 -0.51539,0 -0.94258,-0.89021 -1.01424,-1.99953 h -0.46302"
       id="path7229-3" />
    <circle
       style="fill:#999999;stroke-width:0.15;stroke-linejoin:round"
       id="path4388"
       cx="64.308205"
       cy="110.02541"
       r="3.1884313" />
    <path
       style="fill:none;stroke:#000000;stroke-width:0.15;stroke-linejoin:round;stroke-opacity:1"
       id="path4390"
       sodipodi:type="arc"
       sodipodi:cx="19.937775"
       sodipodi:cy="-136.67876"
       sodipodi:rx="1.5215151"
       sodipodi:ry="1.5215151"
       sodipodi:start="3.0548543"
       sodipodi:end="4.1637605"
       sodipodi:arc-type="arc"
       d="m 18.42198,-136.54695 a 1.5215151,1.5215151 0 0 1 0.722298,-1.43003"
       transform="rotate(136.53624)"
       sodipodi:open="true" />
    <path
       style="fill:none;stroke:#000000;stroke-width:0.26499999;stroke-linecap:butt;stroke-linejoin:miter;stroke-miterlimit:4;stroke-dasharray:1.05999995,0.26499999;stroke-dashoffset:0;stroke-opacity:1"
       d="m 77.785317,113.27183 h 8.857234"
       id="path4392"
       inkscape:path-effect="#path-effect4394"
       inkscape:original-d="m 77.785317,113.27183 c 2.952676,2.6e-4 5.905087,2.6e-4 8.857234,0" />
    <g
       transform="matrix(0.209649,0,0,0.209649,82.47668,111.13746)"
       ns1:version="1.2.0"
       ns1:texconverter="pdflatex"
       ns1:pdfconverter="inkscape"
       ns1:text="$$\theta$$"
       ns1:preamble="/Users/mbh/Library/Application Support/org.inkscape.Inkscape/config/inkscape/extensions/textext/default_packages.tex"
       ns1:scale="0.594278907548945"
       ns1:alignment="middle center"
       ns1:jacobian_sqrt="0.209649"
       id="g4423">
      <defs
         id="id-b2ca09be-5182-41b1-a169-b21fb3bc458c">
        <g
           id="id-05d17e11-59dc-4245-9b65-41481bc93057">
          <symbol
             overflow="visible"
             id="id-0aa4f2b3-6b93-4d3a-aba2-d07666a244bd">
            <path
               style="stroke:none;stroke-width:0"
               d=""
               id="id-40a4e2b9-f4bb-47af-a956-531742ef11e7" />
          </symbol>
          <symbol
             overflow="visible"
             id="id-9fcb8d09-c071-4b7d-aa3f-341d6abeaed2">
            <path
               style="stroke:none;stroke-width:0"
               d="m 4.53125,-4.984375 c 0,-0.65625 -0.171875,-2.046875 -1.1875,-2.046875 -1.390625,0 -2.921875,2.8125 -2.921875,5.09375 0,0.9375 0.28125,2.046875 1.1875,2.046875 1.40625,0 2.921875,-2.859375 2.921875,-5.09375 z M 3.5625,-3.625 H 1.46875 C 1.640625,-4.25 1.84375,-5.046875 2.25,-5.765625 2.515625,-6.25 2.875,-6.8125 3.328125,-6.8125 c 0.484375,0 0.546875,0.640625 0.546875,1.203125 0,0.5 -0.078125,1 -0.3125,1.984375 z M 3.46875,-3.296875 C 3.359375,-2.84375 3.15625,-2 2.765625,-1.28125 c -0.34375,0.6875 -0.71875,1.171875 -1.15625,1.171875 -0.328125,0 -0.53125,-0.296875 -0.53125,-1.21875 0,-0.421875 0.0625,-1 0.3125,-1.96875 z m 0,0"
               id="id-35342965-fc6f-4ead-8b52-77646d7543ce" />
          </symbol>
        </g>
      </defs>
      <g
         id="id-ded259a7-64b0-4a9e-92fb-e1288d3a577f"
         transform="translate(-303.569,-139.689)">
        <g
           style="fill:#000000;fill-opacity:1"
           id="id-c06a9a94-483b-4771-bcd7-ac70792ab82d">
          <g
             transform="translate(303.147,146.72)"
             id="g4419">
            <path
               style="stroke:none;stroke-width:0"
               d="m 4.53125,-4.984375 c 0,-0.65625 -0.171875,-2.046875 -1.1875,-2.046875 -1.390625,0 -2.921875,2.8125 -2.921875,5.09375 0,0.9375 0.28125,2.046875 1.1875,2.046875 1.40625,0 2.921875,-2.859375 2.921875,-5.09375 z M 3.5625,-3.625 H 1.46875 C 1.640625,-4.25 1.84375,-5.046875 2.25,-5.765625 2.515625,-6.25 2.875,-6.8125 3.328125,-6.8125 c 0.484375,0 0.546875,0.640625 0.546875,1.203125 0,0.5 -0.078125,1 -0.3125,1.984375 z M 3.46875,-3.296875 C 3.359375,-2.84375 3.15625,-2 2.765625,-1.28125 c -0.34375,0.6875 -0.71875,1.171875 -1.15625,1.171875 -0.328125,0 -0.53125,-0.296875 -0.53125,-1.21875 0,-0.421875 0.0625,-1 0.3125,-1.96875 z m 0,0"
               id="id-fe9b4fc7-b869-4a4c-b620-758caeb9a7f9" />
          </g>
        </g>
      </g>
    </g>
    <path
       style="fill:none;stroke:#000000;stroke-width:0.075;stroke-linecap:butt;stroke-linejoin:miter;stroke-miterlimit:4;stroke-dasharray:none;stroke-opacity:1"
       d="m 55.151653,114.86126 c -0.0087,1.51709 4.230374,-0.0357 4.614727,1.08548 0.454497,-1.13116 4.931476,0.53891 4.913713,-1.06393"
       id="path1255-9-6"
       sodipodi:nodetypes="ccc" />
    <g
       transform="matrix(0.209649,0,0,0.209649,59.282463,117.02684)"
       ns1:version="1.2.0"
       ns1:texconverter="pdflatex"
       ns1:pdfconverter="inkscape"
       ns1:text="$$x$$"
       ns1:preamble="/Users/mbh/Library/Application Support/org.inkscape.Inkscape/config/inkscape/extensions/textext/default_packages.tex"
       ns1:scale="0.594278907548945"
       ns1:alignment="middle center"
       ns1:jacobian_sqrt="0.209649"
       id="g5131">
      <defs
         id="id-5eb1c5ad-13cb-4935-88cb-106a0b3679ca">
        <g
           id="id-98285872-ee8a-4fed-85f6-c5ea1d69e071">
          <symbol
             overflow="visible"
             id="id-8dc86195-3fec-4597-8089-35b5dfc638d5">
            <path
               style="stroke:none;stroke-width:0"
               d=""
               id="id-637923d7-2677-44df-abf3-b10732533451" />
          </symbol>
          <symbol
             overflow="visible"
             id="id-f57a25ad-ed60-4397-b905-4f37ac865d24">
            <path
               style="stroke:none;stroke-width:0"
               d="m 4.9375,-1.421875 c 0,-0.109375 -0.078125,-0.109375 -0.109375,-0.109375 -0.09375,0 -0.109375,0.046875 -0.140625,0.109375 -0.328125,1.078125 -1,1.3125 -1.3125,1.3125 -0.390625,0 -0.546875,-0.3125 -0.546875,-0.65625 0,-0.21875 0.046875,-0.4375 0.15625,-0.875 l 0.34375,-1.375 C 3.390625,-3.265625 3.625,-4.1875 4.3125,-4.1875 c 0.046875,0 0.296875,0 0.5,0.125 C 4.53125,-4 4.34375,-3.765625 4.34375,-3.515625 c 0,0.15625 0.109375,0.34375 0.375,0.34375 0.21875,0 0.53125,-0.171875 0.53125,-0.578125 0,-0.515625 -0.578125,-0.65625 -0.921875,-0.65625 -0.578125,0 -0.921875,0.53125 -1.046875,0.75 -0.25,-0.65625 -0.78125,-0.75 -1.078125,-0.75 -1.03125,0 -1.609375,1.28125 -1.609375,1.53125 0,0.109375 0.125,0.109375 0.125,0.109375 0.078125,0 0.109375,-0.03125 0.125,-0.109375 0.34375,-1.0625 1,-1.3125 1.34375,-1.3125 0.1875,0 0.53125,0.09375 0.53125,0.671875 0,0.3125 -0.171875,0.96875 -0.53125,2.375 -0.15625,0.609375 -0.515625,1.03125 -0.953125,1.03125 -0.0625,0 -0.28125,0 -0.5,-0.125 0.25,-0.0625 0.46875,-0.265625 0.46875,-0.546875 0,-0.265625 -0.21875,-0.34375 -0.359375,-0.34375 -0.3125,0 -0.546875,0.25 -0.546875,0.578125 0,0.453125 0.484375,0.65625 0.921875,0.65625 0.671875,0 1.03125,-0.703125 1.046875,-0.75 0.125,0.359375 0.484375,0.75 1.078125,0.75 1.03125,0 1.59375,-1.28125 1.59375,-1.53125 z m 0,0"
               id="id-ed8d480b-a6d3-4628-abad-d762a1fad7e8" />
          </symbol>
        </g>
      </defs>
      <g
         id="id-8a289c74-1c69-4c14-9779-86ca035d2884"
         transform="translate(-303.074,-142.314)">
        <g
           style="fill:#000000;fill-opacity:1"
           id="id-f22682ef-f94d-417e-b81b-e164d46d878e">
          <g
             transform="translate(302.777,146.72)"
             id="g5127">
            <path
               style="stroke:none;stroke-width:0"
               d="m 4.9375,-1.421875 c 0,-0.109375 -0.078125,-0.109375 -0.109375,-0.109375 -0.09375,0 -0.109375,0.046875 -0.140625,0.109375 -0.328125,1.078125 -1,1.3125 -1.3125,1.3125 -0.390625,0 -0.546875,-0.3125 -0.546875,-0.65625 0,-0.21875 0.046875,-0.4375 0.15625,-0.875 l 0.34375,-1.375 C 3.390625,-3.265625 3.625,-4.1875 4.3125,-4.1875 c 0.046875,0 0.296875,0 0.5,0.125 C 4.53125,-4 4.34375,-3.765625 4.34375,-3.515625 c 0,0.15625 0.109375,0.34375 0.375,0.34375 0.21875,0 0.53125,-0.171875 0.53125,-0.578125 0,-0.515625 -0.578125,-0.65625 -0.921875,-0.65625 -0.578125,0 -0.921875,0.53125 -1.046875,0.75 -0.25,-0.65625 -0.78125,-0.75 -1.078125,-0.75 -1.03125,0 -1.609375,1.28125 -1.609375,1.53125 0,0.109375 0.125,0.109375 0.125,0.109375 0.078125,0 0.109375,-0.03125 0.125,-0.109375 0.34375,-1.0625 1,-1.3125 1.34375,-1.3125 0.1875,0 0.53125,0.09375 0.53125,0.671875 0,0.3125 -0.171875,0.96875 -0.53125,2.375 -0.15625,0.609375 -0.515625,1.03125 -0.953125,1.03125 -0.0625,0 -0.28125,0 -0.5,-0.125 0.25,-0.0625 0.46875,-0.265625 0.46875,-0.546875 0,-0.265625 -0.21875,-0.34375 -0.359375,-0.34375 -0.3125,0 -0.546875,0.25 -0.546875,0.578125 0,0.453125 0.484375,0.65625 0.921875,0.65625 0.671875,0 1.03125,-0.703125 1.046875,-0.75 0.125,0.359375 0.484375,0.75 1.078125,0.75 1.03125,0 1.59375,-1.28125 1.59375,-1.53125 z m 0,0"
               id="id-111da528-a5b9-499e-9476-a793ec87d2f8" />
          </g>
        </g>
      </g>
    </g>
    <path
       style="fill:none;stroke:#000000;stroke-width:0.0883877;stroke-linecap:butt;stroke-linejoin:miter;stroke-miterlimit:4;stroke-dasharray:none;stroke-opacity:1"
       d="m 103.26565,113.31648 c 1.51709,0.0125 -0.0357,-5.87542 1.08548,-6.40923 -1.13116,-0.63123 0.53891,-6.84915 -1.06393,-6.82448"
       id="path1255-9-6-8"
       sodipodi:nodetypes="ccc" />
    <g
       transform="matrix(0.209649,0,0,0.209649,105.5019,106.16018)"
       ns1:version="1.2.0"
       ns1:texconverter="pdflatex"
       ns1:pdfconverter="inkscape"
       ns1:text="$$h$$"
       ns1:preamble="/Users/mbh/Library/Application Support/org.inkscape.Inkscape/config/inkscape/extensions/textext/default_packages.tex"
       ns1:scale="0.594278907548945"
       ns1:alignment="middle center"
       ns1:jacobian_sqrt="0.209649"
       id="g5212">
      <defs
         id="id-bd9f82da-b312-4008-9aab-094ffaa2b7ab">
        <g
           id="id-ce8e7ff8-e0d0-4608-9712-181ec7246b76">
          <symbol
             overflow="visible"
             id="id-621f9c02-b879-42a9-bdd6-5e7ddf307992">
            <path
               style="stroke:none;stroke-width:0"
               d=""
               id="id-85001e4e-4eb4-4389-b870-15f3b0b87e1b" />
          </symbol>
          <symbol
             overflow="visible"
             id="id-d651a711-dddd-4f43-b371-883cbc39717f">
            <path
               style="stroke:none;stroke-width:0"
               d="m 5.4375,-1.421875 c 0,-0.109375 -0.078125,-0.109375 -0.109375,-0.109375 -0.109375,0 -0.109375,0.03125 -0.15625,0.1875 -0.140625,0.53125 -0.46875,1.234375 -1.015625,1.234375 -0.171875,0 -0.234375,-0.09375 -0.234375,-0.328125 0,-0.25 0.078125,-0.484375 0.171875,-0.703125 0.15625,-0.4375 0.609375,-1.625 0.609375,-2.203125 0,-0.640625 -0.390625,-1.0625 -1.140625,-1.0625 -0.625,0 -1.109375,0.3125 -1.484375,0.765625 L 2.859375,-6.8125 c 0,0 0,-0.109375 -0.125,-0.109375 -0.234375,0 -0.953125,0.078125 -1.21875,0.109375 -0.078125,0 -0.1875,0.015625 -0.1875,0.1875 0,0.125 0.09375,0.125 0.234375,0.125 0.484375,0 0.5,0.0625 0.5,0.171875 L 2.03125,-6.125 0.59375,-0.390625 c -0.046875,0.140625 -0.046875,0.15625 -0.046875,0.21875 0,0.234375 0.203125,0.28125 0.296875,0.28125 0.15625,0 0.3125,-0.125 0.359375,-0.265625 l 0.1875,-0.75 0.21875,-0.890625 C 1.671875,-2.03125 1.734375,-2.25 1.78125,-2.46875 1.796875,-2.53125 1.890625,-2.859375 1.890625,-2.921875 1.921875,-3.015625 2.234375,-3.5625 2.578125,-3.84375 2.796875,-4 3.09375,-4.1875 3.53125,-4.1875 c 0.421875,0 0.53125,0.34375 0.53125,0.703125 0,0.53125 -0.375,1.625 -0.609375,2.234375 C 3.375,-1.03125 3.3125,-0.90625 3.3125,-0.703125 c 0,0.46875 0.359375,0.8125 0.828125,0.8125 0.9375,0 1.296875,-1.453125 1.296875,-1.53125 z m 0,0"
               id="id-1be962f6-a286-43aa-85a4-6477d105eca9" />
          </symbol>
        </g>
      </defs>
      <g
         id="id-50fc6954-0fc0-43a9-9d23-406b1e933f09"
         transform="translate(-303.301,-139.798)">
        <g
           style="fill:#000000;fill-opacity:1"
           id="id-7f380bfd-750b-4ffb-b1dc-d408a772e317">
          <g
             transform="translate(302.754,146.72)"
             id="g5208">
            <path
               style="stroke:none;stroke-width:0"
               d="m 5.4375,-1.421875 c 0,-0.109375 -0.078125,-0.109375 -0.109375,-0.109375 -0.109375,0 -0.109375,0.03125 -0.15625,0.1875 -0.140625,0.53125 -0.46875,1.234375 -1.015625,1.234375 -0.171875,0 -0.234375,-0.09375 -0.234375,-0.328125 0,-0.25 0.078125,-0.484375 0.171875,-0.703125 0.15625,-0.4375 0.609375,-1.625 0.609375,-2.203125 0,-0.640625 -0.390625,-1.0625 -1.140625,-1.0625 -0.625,0 -1.109375,0.3125 -1.484375,0.765625 L 2.859375,-6.8125 c 0,0 0,-0.109375 -0.125,-0.109375 -0.234375,0 -0.953125,0.078125 -1.21875,0.109375 -0.078125,0 -0.1875,0.015625 -0.1875,0.1875 0,0.125 0.09375,0.125 0.234375,0.125 0.484375,0 0.5,0.0625 0.5,0.171875 L 2.03125,-6.125 0.59375,-0.390625 c -0.046875,0.140625 -0.046875,0.15625 -0.046875,0.21875 0,0.234375 0.203125,0.28125 0.296875,0.28125 0.15625,0 0.3125,-0.125 0.359375,-0.265625 l 0.1875,-0.75 0.21875,-0.890625 C 1.671875,-2.03125 1.734375,-2.25 1.78125,-2.46875 1.796875,-2.53125 1.890625,-2.859375 1.890625,-2.921875 1.921875,-3.015625 2.234375,-3.5625 2.578125,-3.84375 2.796875,-4 3.09375,-4.1875 3.53125,-4.1875 c 0.421875,0 0.53125,0.34375 0.53125,0.703125 0,0.53125 -0.375,1.625 -0.609375,2.234375 C 3.375,-1.03125 3.3125,-0.90625 3.3125,-0.703125 c 0,0.46875 0.359375,0.8125 0.828125,0.8125 0.9375,0 1.296875,-1.453125 1.296875,-1.53125 z m 0,0"
               id="id-0ee91bae-9ecc-49e9-ac98-d7b45f6fb201" />
          </g>
        </g>
      </g>
    </g>
    <path
       style="fill:none;stroke:#000000;stroke-width:0.15;stroke-linecap:butt;stroke-linejoin:miter;stroke-opacity:1;stroke-miterlimit:4;stroke-dasharray:0.15,0.45;stroke-dashoffset:0"
       d="m 64.069973,110.17477 2.441866,-2.44187"
       id="path5227"
       inkscape:path-effect="#path-effect5229"
       inkscape:original-d="m 64.069973,110.17477 c 0.81422,-0.81369 1.628174,-1.62765 2.441866,-2.44187" />
    <g
       transform="matrix(0.209649,0,0,0.209649,63.933593,107.72043)"
       ns1:version="1.2.0"
       ns1:texconverter="pdflatex"
       ns1:pdfconverter="inkscape"
       ns1:text="$$r$$"
       ns1:preamble="/Users/mbh/Library/Application Support/org.inkscape.Inkscape/config/inkscape/extensions/textext/default_packages.tex"
       ns1:scale="0.594278907548945"
       ns1:alignment="middle center"
       ns1:jacobian_sqrt="0.209649"
       id="g5295">
      <defs
         id="id-e560b288-d7fd-442e-8ea1-2236d93deff6">
        <g
           id="id-bf9e5742-20bf-48a3-b9ae-aeb1d7ca4571">
          <symbol
             overflow="visible"
             id="id-a385151c-e522-42ad-aacc-0d102452853d">
            <path
               style="stroke:none;stroke-width:0"
               d=""
               id="id-d9950f76-5838-45a3-a065-292af0d27fbc" />
          </symbol>
          <symbol
             overflow="visible"
             id="id-aefd1a3b-2bf8-4dfb-b8eb-4b4f97b3b602">
            <path
               style="stroke:none;stroke-width:0"
               d="m 4.34375,-3.765625 c 0,-0.34375 -0.3125,-0.640625 -0.828125,-0.640625 C 2.875,-4.40625 2.4375,-3.921875 2.25,-3.640625 2.15625,-4.09375 1.796875,-4.40625 1.328125,-4.40625 0.875,-4.40625 0.6875,-4.015625 0.59375,-3.84375 0.421875,-3.5 0.296875,-2.90625 0.296875,-2.875 c 0,0.109375 0.109375,0.109375 0.109375,0.109375 0.109375,0 0.109375,-0.015625 0.171875,-0.234375 0.171875,-0.703125 0.375,-1.1875 0.734375,-1.1875 0.15625,0 0.296875,0.078125 0.296875,0.453125 0,0.21875 -0.03125,0.328125 -0.15625,0.84375 L 0.875,-0.59375 c -0.03125,0.15625 -0.09375,0.390625 -0.09375,0.4375 0,0.171875 0.140625,0.265625 0.296875,0.265625 0.125,0 0.296875,-0.078125 0.375,-0.28125 C 1.46875,-0.203125 1.796875,-1.5625 1.84375,-1.75 l 0.3125,-1.296875 c 0.046875,-0.125 0.328125,-0.59375 0.5625,-0.8125 0.078125,-0.0625 0.375,-0.328125 0.796875,-0.328125 0.265625,0 0.421875,0.125 0.421875,0.125 -0.296875,0.046875 -0.515625,0.28125 -0.515625,0.546875 0,0.15625 0.109375,0.34375 0.375,0.34375 0.265625,0 0.546875,-0.234375 0.546875,-0.59375 z m 0,0"
               id="id-e1ea309f-e4ce-4f44-b407-0031e8ef6dd2" />
          </symbol>
        </g>
      </defs>
      <g
         id="id-a849754f-e60f-43eb-9468-cbb13762c8cb"
         transform="translate(-303.535,-142.314)">
        <g
           style="fill:#000000;fill-opacity:1"
           id="id-b2a3edaf-786e-4354-9f52-2f866310b30a">
          <g
             transform="translate(303.238,146.72)"
             id="g5291">
            <path
               style="stroke:none;stroke-width:0"
               d="m 4.34375,-3.765625 c 0,-0.34375 -0.3125,-0.640625 -0.828125,-0.640625 C 2.875,-4.40625 2.4375,-3.921875 2.25,-3.640625 2.15625,-4.09375 1.796875,-4.40625 1.328125,-4.40625 0.875,-4.40625 0.6875,-4.015625 0.59375,-3.84375 0.421875,-3.5 0.296875,-2.90625 0.296875,-2.875 c 0,0.109375 0.109375,0.109375 0.109375,0.109375 0.109375,0 0.109375,-0.015625 0.171875,-0.234375 0.171875,-0.703125 0.375,-1.1875 0.734375,-1.1875 0.15625,0 0.296875,0.078125 0.296875,0.453125 0,0.21875 -0.03125,0.328125 -0.15625,0.84375 L 0.875,-0.59375 c -0.03125,0.15625 -0.09375,0.390625 -0.09375,0.4375 0,0.171875 0.140625,0.265625 0.296875,0.265625 0.125,0 0.296875,-0.078125 0.375,-0.28125 C 1.46875,-0.203125 1.796875,-1.5625 1.84375,-1.75 l 0.3125,-1.296875 c 0.046875,-0.125 0.328125,-0.59375 0.5625,-0.8125 0.078125,-0.0625 0.375,-0.328125 0.796875,-0.328125 0.265625,0 0.421875,0.125 0.421875,0.125 -0.296875,0.046875 -0.515625,0.28125 -0.515625,0.546875 0,0.15625 0.109375,0.34375 0.375,0.34375 0.265625,0 0.546875,-0.234375 0.546875,-0.59375 z m 0,0"
               id="id-6c506245-463e-42cf-b630-02c1c152ec12" />
          </g>
        </g>
      </g>
    </g>
    <g
       transform="matrix(0.209649,0,0,0.209649,64.956286,110.74369)"
       ns1:version="1.2.0"
       ns1:texconverter="pdflatex"
       ns1:pdfconverter="inkscape"
       ns1:text="$$m$$"
       ns1:preamble="/Users/mbh/Library/Application Support/org.inkscape.Inkscape/config/inkscape/extensions/textext/default_packages.tex"
       ns1:scale="0.594278907548945"
       ns1:alignment="middle center"
       ns1:jacobian_sqrt="0.209649"
       id="g5385">
      <defs
         id="id-fafdad8e-4df1-4c1e-ba35-886d3fb91b9c">
        <g
           id="id-e49ab4e8-6a15-4b54-9b0c-93f4b67a6052">
          <symbol
             overflow="visible"
             id="id-250344c6-93ab-4fdc-b3f2-1663afe39858">
            <path
               style="stroke:none;stroke-width:0"
               d=""
               id="id-554566e2-565d-4d88-b8c6-c292dec8086f" />
          </symbol>
          <symbol
             overflow="visible"
             id="id-a573707c-b60e-4224-b5d0-623fa8506c48">
            <path
               style="stroke:none;stroke-width:0"
               d="m 8.453125,-1.421875 c 0,-0.109375 -0.09375,-0.109375 -0.125,-0.109375 -0.09375,0 -0.09375,0.03125 -0.140625,0.1875 -0.15625,0.53125 -0.46875,1.234375 -1.015625,1.234375 -0.171875,0 -0.25,-0.09375 -0.25,-0.328125 0,-0.25 0.09375,-0.484375 0.1875,-0.703125 0.1875,-0.53125 0.609375,-1.625 0.609375,-2.203125 0,-0.640625 -0.40625,-1.0625 -1.15625,-1.0625 -0.734375,0 -1.25,0.4375 -1.625,0.96875 0,-0.125 -0.03125,-0.46875 -0.3125,-0.703125 -0.25,-0.21875 -0.5625,-0.265625 -0.8125,-0.265625 -0.90625,0 -1.390625,0.640625 -1.5625,0.875 -0.046875,-0.578125 -0.46875,-0.875 -0.921875,-0.875 -0.453125,0 -0.640625,0.390625 -0.734375,0.5625 -0.171875,0.359375 -0.296875,0.9375 -0.296875,0.96875 0,0.109375 0.109375,0.109375 0.109375,0.109375 0.109375,0 0.109375,-0.015625 0.171875,-0.234375 0.171875,-0.703125 0.375,-1.1875 0.734375,-1.1875 0.15625,0 0.296875,0.078125 0.296875,0.453125 0,0.21875 -0.03125,0.328125 -0.15625,0.84375 L 0.875,-0.59375 c -0.03125,0.15625 -0.09375,0.390625 -0.09375,0.4375 0,0.171875 0.140625,0.265625 0.296875,0.265625 0.125,0 0.296875,-0.078125 0.375,-0.28125 0,-0.015625 0.125,-0.484375 0.1875,-0.734375 l 0.21875,-0.890625 C 1.90625,-2.03125 1.96875,-2.25 2.03125,-2.46875 l 0.125,-0.5 c 0.140625,-0.3125 0.671875,-1.21875 1.625,-1.21875 0.453125,0 0.53125,0.375 0.53125,0.703125 0,0.25 -0.0625,0.53125 -0.140625,0.828125 L 3.890625,-1.5 C 3.78125,-1.140625 3.78125,-1.078125 3.6875,-0.75 c -0.03125,0.203125 -0.125,0.546875 -0.125,0.59375 0,0.171875 0.140625,0.265625 0.28125,0.265625 0.3125,0 0.375,-0.25 0.453125,-0.5625 l 0.59375,-2.40625 c 0.03125,-0.125 0.5625,-1.328125 1.65625,-1.328125 0.421875,0 0.53125,0.34375 0.53125,0.703125 0,0.5625 -0.421875,1.703125 -0.625,2.234375 -0.078125,0.234375 -0.125,0.34375 -0.125,0.546875 0,0.46875 0.34375,0.8125 0.8125,0.8125 0.9375,0 1.3125,-1.453125 1.3125,-1.53125 z m 0,0"
               id="id-ba1c93a5-b9e7-4520-9b5a-6e3ae8c7ef1e" />
          </symbol>
        </g>
      </defs>
      <g
         id="id-21c1d394-ee08-4d4f-8248-6b14cd6258af"
         transform="translate(-301.547,-142.314)">
        <g
           style="fill:#000000;fill-opacity:1"
           id="id-71c5e2df-e85a-4e38-a84f-3b3efcca47fd">
          <g
             transform="translate(301.25,146.72)"
             id="g5381">
            <path
               style="stroke:none;stroke-width:0"
               d="m 8.453125,-1.421875 c 0,-0.109375 -0.09375,-0.109375 -0.125,-0.109375 -0.09375,0 -0.09375,0.03125 -0.140625,0.1875 -0.15625,0.53125 -0.46875,1.234375 -1.015625,1.234375 -0.171875,0 -0.25,-0.09375 -0.25,-0.328125 0,-0.25 0.09375,-0.484375 0.1875,-0.703125 0.1875,-0.53125 0.609375,-1.625 0.609375,-2.203125 0,-0.640625 -0.40625,-1.0625 -1.15625,-1.0625 -0.734375,0 -1.25,0.4375 -1.625,0.96875 0,-0.125 -0.03125,-0.46875 -0.3125,-0.703125 -0.25,-0.21875 -0.5625,-0.265625 -0.8125,-0.265625 -0.90625,0 -1.390625,0.640625 -1.5625,0.875 -0.046875,-0.578125 -0.46875,-0.875 -0.921875,-0.875 -0.453125,0 -0.640625,0.390625 -0.734375,0.5625 -0.171875,0.359375 -0.296875,0.9375 -0.296875,0.96875 0,0.109375 0.109375,0.109375 0.109375,0.109375 0.109375,0 0.109375,-0.015625 0.171875,-0.234375 0.171875,-0.703125 0.375,-1.1875 0.734375,-1.1875 0.15625,0 0.296875,0.078125 0.296875,0.453125 0,0.21875 -0.03125,0.328125 -0.15625,0.84375 L 0.875,-0.59375 c -0.03125,0.15625 -0.09375,0.390625 -0.09375,0.4375 0,0.171875 0.140625,0.265625 0.296875,0.265625 0.125,0 0.296875,-0.078125 0.375,-0.28125 0,-0.015625 0.125,-0.484375 0.1875,-0.734375 l 0.21875,-0.890625 C 1.90625,-2.03125 1.96875,-2.25 2.03125,-2.46875 l 0.125,-0.5 c 0.140625,-0.3125 0.671875,-1.21875 1.625,-1.21875 0.453125,0 0.53125,0.375 0.53125,0.703125 0,0.25 -0.0625,0.53125 -0.140625,0.828125 L 3.890625,-1.5 C 3.78125,-1.140625 3.78125,-1.078125 3.6875,-0.75 c -0.03125,0.203125 -0.125,0.546875 -0.125,0.59375 0,0.171875 0.140625,0.265625 0.28125,0.265625 0.3125,0 0.375,-0.25 0.453125,-0.5625 l 0.59375,-2.40625 c 0.03125,-0.125 0.5625,-1.328125 1.65625,-1.328125 0.421875,0 0.53125,0.34375 0.53125,0.703125 0,0.5625 -0.421875,1.703125 -0.625,2.234375 -0.078125,0.234375 -0.125,0.34375 -0.125,0.546875 0,0.46875 0.34375,0.8125 0.8125,0.8125 0.9375,0 1.3125,-1.453125 1.3125,-1.53125 z m 0,0"
               id="id-7610e0ea-97f3-476c-b8cc-7e43a9b38269" />
          </g>
        </g>
      </g>
    </g>
    <path
       style="fill:none;stroke:#000000;stroke-width:0.264583px;stroke-linecap:butt;stroke-linejoin:miter;stroke-opacity:1"
       d="m 40.758963,99.233541 2.135375,-1.232858"
       id="path5400"
       inkscape:path-effect="#path-effect5402"
       inkscape:original-d="m 40.758963,99.233541 c 0.712057,-0.410687 1.42385,-0.82164 2.135375,-1.232858" />
    <path
       style="fill:none;stroke:#000000;stroke-width:0.264583px;stroke-linecap:butt;stroke-linejoin:miter;stroke-opacity:1"
       d="m 40.733123,100.45581 2.135375,-1.232861"
       id="path5400-3"
       inkscape:path-effect="#path-effect5421"
       inkscape:original-d="m 40.733123,100.45581 c 0.712057,-0.41069 1.42385,-0.821641 2.135375,-1.232861" />
    <path
       style="fill:none;stroke:#000000;stroke-width:0.264583px;stroke-linecap:butt;stroke-linejoin:miter;stroke-opacity:1"
       d="m 40.732747,101.75319 2.135375,-1.23286"
       id="path5400-8"
       inkscape:path-effect="#path-effect5447"
       inkscape:original-d="m 40.732747,101.75319 c 0.712057,-0.41069 1.42385,-0.82164 2.135375,-1.23286" />
    <path
       style="fill:none;stroke:#000000;stroke-width:0.264583px;stroke-linecap:butt;stroke-linejoin:miter;stroke-opacity:1"
       d="m 40.706907,102.97546 2.135375,-1.23286"
       id="path5400-3-1"
       inkscape:path-effect="#path-effect5445"
       inkscape:original-d="m 40.706907,102.97546 c 0.712057,-0.41069 1.42385,-0.82164 2.135375,-1.23286" />
    <path
       style="fill:none;stroke:#000000;stroke-width:0.264583px;stroke-linecap:butt;stroke-linejoin:miter;stroke-opacity:1"
       d="m 40.799929,104.17176 2.135375,-1.23286"
       id="path5400-5"
       inkscape:path-effect="#path-effect5461"
       inkscape:original-d="m 40.799929,104.17176 c 0.712057,-0.41069 1.42385,-0.82164 2.135375,-1.23286" />
    <path
       style="fill:none;stroke:#000000;stroke-width:0.264583px;stroke-linecap:butt;stroke-linejoin:miter;stroke-opacity:1"
       d="m 40.774089,105.39403 2.135375,-1.23286"
       id="path5400-3-3"
       inkscape:path-effect="#path-effect5459"
       inkscape:original-d="m 40.774089,105.39403 c 0.712057,-0.41069 1.42385,-0.82164 2.135375,-1.23286" />
    <path
       style="fill:none;stroke:#000000;stroke-width:0.264583px;stroke-linecap:butt;stroke-linejoin:miter;stroke-opacity:1"
       d="m 40.732746,106.92625 2.135375,-1.23286"
       id="path5400-54"
       inkscape:path-effect="#path-effect5475"
       inkscape:original-d="m 40.732746,106.92625 c 0.712057,-0.41069 1.42385,-0.82164 2.135375,-1.23286" />
    <path
       style="fill:none;stroke:#000000;stroke-width:0.264583px;stroke-linecap:butt;stroke-linejoin:miter;stroke-opacity:1"
       d="m 40.706906,108.14851 2.135375,-1.23286"
       id="path5400-3-36"
       inkscape:path-effect="#path-effect5473"
       inkscape:original-d="m 40.706906,108.14851 c 0.712057,-0.41069 1.42385,-0.82164 2.135375,-1.23286" />
    <path
       style="fill:none;stroke:#000000;stroke-width:0.264583px;stroke-linecap:butt;stroke-linejoin:miter;stroke-opacity:1"
       d="m 40.773584,109.19023 2.135375,-1.23286"
       id="path5400-59"
       inkscape:path-effect="#path-effect5489"
       inkscape:original-d="m 40.773584,109.19023 c 0.712057,-0.41068 1.42385,-0.82164 2.135375,-1.23286" />
    <path
       style="fill:none;stroke:#000000;stroke-width:0.264583px;stroke-linecap:butt;stroke-linejoin:miter;stroke-opacity:1"
       d="m 40.747744,110.4125 2.135375,-1.23286"
       id="path5400-3-5"
       inkscape:path-effect="#path-effect5487"
       inkscape:original-d="m 40.747744,110.4125 c 0.712057,-0.41069 1.42385,-0.82164 2.135375,-1.23286" />
    <path
       style="fill:none;stroke:#000000;stroke-width:0.264583px;stroke-linecap:butt;stroke-linejoin:miter;stroke-opacity:1"
       d="m 40.766338,111.52824 2.135375,-1.23285"
       id="path5400-4"
       inkscape:path-effect="#path-effect5503"
       inkscape:original-d="m 40.766338,111.52824 c 0.712057,-0.41068 1.42385,-0.82164 2.135375,-1.23285" />
    <path
       style="fill:none;stroke:#000000;stroke-width:0.264583px;stroke-linecap:butt;stroke-linejoin:miter;stroke-opacity:1"
       d="m 40.740498,112.75051 2.135375,-1.23286"
       id="path5400-3-9"
       inkscape:path-effect="#path-effect5501"
       inkscape:original-d="m 40.740498,112.75051 c 0.712057,-0.41069 1.42385,-0.82164 2.135375,-1.23286" />
  </g>
</svg>
