<?xml version="1.0" encoding="UTF-8" standalone="no"?>
<svg
   xmlns:ns1="http://www.iki.fi/pav/software/textext/"
   xmlns:dc="http://purl.org/dc/elements/1.1/"
   xmlns:cc="http://creativecommons.org/ns#"
   xmlns:rdf="http://www.w3.org/1999/02/22-rdf-syntax-ns#"
   xmlns:svg="http://www.w3.org/2000/svg"
   xmlns="http://www.w3.org/2000/svg"
   xmlns:sodipodi="http://sodipodi.sourceforge.net/DTD/sodipodi-0.dtd"
   xmlns:inkscape="http://www.inkscape.org/namespaces/inkscape"
   width="210mm"
   height="297mm"
   viewBox="0 0 210 297"
   version="1.1"
   id="svg8"
   sodipodi:docname="stongexi.svg"
   inkscape:version="1.0.1 (c497b03c, 2020-09-10)">
  <defs
     id="defs2" />
  <sodipodi:namedview
     id="base"
     pagecolor="#ffffff"
     bordercolor="#666666"
     borderopacity="1.0"
     inkscape:pageopacity="0.0"
     inkscape:pageshadow="2"
     inkscape:zoom="2.6959144"
     inkscape:cx="338.53784"
     inkscape:cy="381.48977"
     inkscape:document-units="mm"
     inkscape:current-layer="layer1"
     inkscape:document-rotation="0"
     showgrid="false"
     inkscape:window-width="1252"
     inkscape:window-height="855"
     inkscape:window-x="140"
     inkscape:window-y="23"
     inkscape:window-maximized="0" />
  <metadata
     id="metadata5">
    <rdf:RDF>
      <cc:Work
         rdf:about="">
        <dc:format>image/svg+xml</dc:format>
        <dc:type
           rdf:resource="http://purl.org/dc/dcmitype/StillImage" />
        <dc:title></dc:title>
      </cc:Work>
    </rdf:RDF>
  </metadata>
  <g
     inkscape:label="Layer 1"
     inkscape:groupmode="layer"
     id="layer1">
    <g
       id="g2709"
       transform="rotate(-19.759707,-0.50823344,3.001772)">
      <rect
         style="fill:none;stroke:#000000;stroke-width:0.117191;stroke-linejoin:round;stroke-miterlimit:4;stroke-dasharray:none;stroke-opacity:1"
         id="rect833-0"
         width="3.416189"
         height="28.305569"
         x="97.3489"
         y="90.94487"
         transform="rotate(20.571436)" />
      <rect
         style="fill:none;stroke:#000000;stroke-width:0.119238;stroke-linejoin:round;stroke-miterlimit:4;stroke-dasharray:none;stroke-opacity:1"
         id="rect835-2"
         width="13.655209"
         height="6.8276043"
         x="92.194687"
         y="84.130768"
         transform="rotate(20.571436)" />
    </g>
    <g
       transform="matrix(0.352778,0,0,0.352778,87.46749,104.9606)"
       ns1:version="1.2.0"
       ns1:texconverter="pdflatex"
       ns1:pdfconverter="inkscape"
       ns1:text="$$\ell$$"
       ns1:preamble="/Users/mbh/Library/Application Support/org.inkscape.Inkscape/config/inkscape/extensions/textext/default_packages.tex"
       ns1:scale="1.0000000850393187"
       ns1:alignment="middle center"
       ns1:jacobian_sqrt="0.352778"
       id="g1562">
      <defs
         id="id-0eae69b5-5824-4142-9755-b05d4732a7c3">
        <g
           id="id-145d6535-8068-4054-8ca4-fdabfd141263">
          <symbol
             overflow="visible"
             id="id-f4d5e95a-f96a-4b83-b9ca-dbf605a43899">
            <path
               style="stroke:none;stroke-width:0"
               d=""
               id="id-9f922d5d-cd30-4037-9066-4963f4c9b6cc" />
          </symbol>
          <symbol
             overflow="visible"
             id="id-78e6be40-127e-4219-80d6-0e1a7057fc4c">
            <path
               style="stroke:none;stroke-width:0"
               d="m 0.15625,-0.984375 c -0.015625,0.03125 -0.046875,0.0625 -0.046875,0.09375 0,0.046875 0.0625,0.140625 0.125,0.140625 C 0.28125,-0.75 0.3125,-0.78125 0.59375,-1.0625 0.671875,-1.140625 0.875,-1.328125 0.953125,-1.40625 1.046875,-0.625 1.328125,0.125 2.0625,0.125 c 0.40625,0 0.75,-0.234375 0.953125,-0.390625 C 3.15625,-0.359375 3.625,-0.75 3.625,-0.84375 c 0,-0.03125 -0.03125,-0.125 -0.109375,-0.125 -0.03125,0 -0.046875,0.015625 -0.140625,0.09375 -0.640625,0.625 -1,0.78125 -1.296875,0.78125 -0.4375,0 -0.609375,-0.53125 -0.609375,-1.296875 0,-0.0625 0.03125,-0.515625 0.0625,-0.578125 C 1.546875,-2 1.546875,-2.015625 1.75,-2.21875 2.546875,-3.015625 3.96875,-4.703125 3.96875,-6.25 c 0,-0.171875 0,-0.78125 -0.59375,-0.78125 -0.828125,0 -1.5625,1.640625 -1.65625,1.875 -0.484375,1.09375 -0.796875,2.25 -0.796875,3.4375 z M 1.578125,-2.375 C 1.59375,-2.5 2.03125,-4.703125 2.59375,-5.875 c 0.265625,-0.53125 0.484375,-0.9375 0.796875,-0.9375 0.34375,0 0.34375,0.359375 0.34375,0.515625 0,1.671875 -1.6875,3.421875 -2.15625,3.921875 z m 0,0"
               id="id-4f7fdbae-883b-4da7-beed-604844a570db" />
          </symbol>
        </g>
      </defs>
      <g
         id="id-0503c093-a4c0-4db1-b64b-d885afc9982d"
         transform="translate(-303.657,-139.689)">
        <g
           style="fill:#000000;fill-opacity:1"
           id="id-df9ee2fb-358b-4ef9-9f1d-4da23e0b2c1b">
          <g
             transform="translate(303.548,146.72)"
             id="g1558">
            <path
               style="stroke:none;stroke-width:0"
               d="m 0.15625,-0.984375 c -0.015625,0.03125 -0.046875,0.0625 -0.046875,0.09375 0,0.046875 0.0625,0.140625 0.125,0.140625 C 0.28125,-0.75 0.3125,-0.78125 0.59375,-1.0625 0.671875,-1.140625 0.875,-1.328125 0.953125,-1.40625 1.046875,-0.625 1.328125,0.125 2.0625,0.125 c 0.40625,0 0.75,-0.234375 0.953125,-0.390625 C 3.15625,-0.359375 3.625,-0.75 3.625,-0.84375 c 0,-0.03125 -0.03125,-0.125 -0.109375,-0.125 -0.03125,0 -0.046875,0.015625 -0.140625,0.09375 -0.640625,0.625 -1,0.78125 -1.296875,0.78125 -0.4375,0 -0.609375,-0.53125 -0.609375,-1.296875 0,-0.0625 0.03125,-0.515625 0.0625,-0.578125 C 1.546875,-2 1.546875,-2.015625 1.75,-2.21875 2.546875,-3.015625 3.96875,-4.703125 3.96875,-6.25 c 0,-0.171875 0,-0.78125 -0.59375,-0.78125 -0.828125,0 -1.5625,1.640625 -1.65625,1.875 -0.484375,1.09375 -0.796875,2.25 -0.796875,3.4375 z M 1.578125,-2.375 C 1.59375,-2.5 2.03125,-4.703125 2.59375,-5.875 c 0.265625,-0.53125 0.484375,-0.9375 0.796875,-0.9375 0.34375,0 0.34375,0.359375 0.34375,0.515625 0,1.671875 -1.6875,3.421875 -2.15625,3.921875 z m 0,0"
               id="id-bb974d45-3348-427e-afb9-7762ca668472" />
          </g>
        </g>
      </g>
    </g>
    <path
       style="fill:none;stroke:#000000;stroke-width:0.075;stroke-linecap:butt;stroke-linejoin:miter;stroke-miterlimit:4;stroke-dasharray:none;stroke-opacity:1"
       d="m 92.613933,93.607594 c -2.932868,-0.02386 0.06915,11.662806 -2.09846,12.722436 2.186779,1.25301 -1.041831,13.59568 2.056803,13.54671"
       id="path1255-9-6"
       sodipodi:nodetypes="ccc" />
    <g
       transform="matrix(0.352778,0,0,0.352778,106.81568,87.64796)"
       ns1:version="1.2.0"
       ns1:texconverter="pdflatex"
       ns1:pdfconverter="inkscape"
       ns1:text="$$h$$"
       ns1:preamble="/Users/mbh/Library/Application Support/org.inkscape.Inkscape/config/inkscape/extensions/textext/default_packages.tex"
       ns1:scale="1.0000000850393187"
       ns1:alignment="middle center"
       ns1:jacobian_sqrt="0.352778"
       id="g2312">
      <defs
         id="id-707a714e-a815-4363-91b5-195e6504683c">
        <g
           id="id-e9968dd3-72d7-4fa8-b1b4-c20fc544fba4">
          <symbol
             overflow="visible"
             id="id-1b5b5838-4540-4282-9ab8-bf21bd932405">
            <path
               style="stroke:none;stroke-width:0"
               d=""
               id="id-4c8e7136-98e6-4d67-bc73-943d0bd6b1c5" />
          </symbol>
          <symbol
             overflow="visible"
             id="id-9b7c27f1-5ff2-48f1-8e1d-90e2081a887a">
            <path
               style="stroke:none;stroke-width:0"
               d="m 2.859375,-6.8125 c 0,0 0,-0.109375 -0.125,-0.109375 -0.234375,0 -0.953125,0.078125 -1.21875,0.109375 -0.078125,0 -0.1875,0.015625 -0.1875,0.1875 0,0.125 0.09375,0.125 0.234375,0.125 0.484375,0 0.5,0.0625 0.5,0.171875 L 2.03125,-6.125 0.59375,-0.390625 c -0.046875,0.140625 -0.046875,0.15625 -0.046875,0.21875 0,0.234375 0.203125,0.28125 0.296875,0.28125 0.15625,0 0.3125,-0.125 0.359375,-0.265625 l 0.1875,-0.75 0.21875,-0.890625 C 1.671875,-2.03125 1.734375,-2.25 1.78125,-2.46875 1.796875,-2.53125 1.890625,-2.859375 1.890625,-2.921875 1.921875,-3.015625 2.234375,-3.5625 2.578125,-3.84375 2.796875,-4 3.09375,-4.1875 3.53125,-4.1875 c 0.421875,0 0.53125,0.34375 0.53125,0.703125 0,0.53125 -0.375,1.625 -0.609375,2.234375 C 3.375,-1.03125 3.3125,-0.90625 3.3125,-0.703125 c 0,0.46875 0.359375,0.8125 0.828125,0.8125 0.9375,0 1.296875,-1.453125 1.296875,-1.53125 0,-0.109375 -0.078125,-0.109375 -0.109375,-0.109375 -0.109375,0 -0.109375,0.03125 -0.15625,0.1875 -0.140625,0.53125 -0.46875,1.234375 -1.015625,1.234375 -0.171875,0 -0.234375,-0.09375 -0.234375,-0.328125 0,-0.25 0.078125,-0.484375 0.171875,-0.703125 0.15625,-0.4375 0.609375,-1.625 0.609375,-2.203125 0,-0.640625 -0.390625,-1.0625 -1.140625,-1.0625 -0.625,0 -1.109375,0.3125 -1.484375,0.765625 z m 0,0"
               id="id-392549fa-de71-49de-9eb9-fcda05afc3ab" />
          </symbol>
        </g>
      </defs>
      <g
         id="id-9310512c-a617-4261-a4dc-f81ed3db132f"
         transform="translate(-303.301,-139.798)">
        <g
           style="fill:#000000;fill-opacity:1"
           id="id-3bdff7ec-228b-40fd-b3ca-c5e2527772c7">
          <g
             transform="translate(302.754,146.72)"
             id="g2308">
            <path
               style="stroke:none;stroke-width:0"
               d="m 2.859375,-6.8125 c 0,0 0,-0.109375 -0.125,-0.109375 -0.234375,0 -0.953125,0.078125 -1.21875,0.109375 -0.078125,0 -0.1875,0.015625 -0.1875,0.1875 0,0.125 0.09375,0.125 0.234375,0.125 0.484375,0 0.5,0.0625 0.5,0.171875 L 2.03125,-6.125 0.59375,-0.390625 c -0.046875,0.140625 -0.046875,0.15625 -0.046875,0.21875 0,0.234375 0.203125,0.28125 0.296875,0.28125 0.15625,0 0.3125,-0.125 0.359375,-0.265625 l 0.1875,-0.75 0.21875,-0.890625 C 1.671875,-2.03125 1.734375,-2.25 1.78125,-2.46875 1.796875,-2.53125 1.890625,-2.859375 1.890625,-2.921875 1.921875,-3.015625 2.234375,-3.5625 2.578125,-3.84375 2.796875,-4 3.09375,-4.1875 3.53125,-4.1875 c 0.421875,0 0.53125,0.34375 0.53125,0.703125 0,0.53125 -0.375,1.625 -0.609375,2.234375 C 3.375,-1.03125 3.3125,-0.90625 3.3125,-0.703125 c 0,0.46875 0.359375,0.8125 0.828125,0.8125 0.9375,0 1.296875,-1.453125 1.296875,-1.53125 0,-0.109375 -0.078125,-0.109375 -0.109375,-0.109375 -0.109375,0 -0.109375,0.03125 -0.15625,0.1875 -0.140625,0.53125 -0.46875,1.234375 -1.015625,1.234375 -0.171875,0 -0.234375,-0.09375 -0.234375,-0.328125 0,-0.25 0.078125,-0.484375 0.171875,-0.703125 0.15625,-0.4375 0.609375,-1.625 0.609375,-2.203125 0,-0.640625 -0.390625,-1.0625 -1.140625,-1.0625 -0.625,0 -1.109375,0.3125 -1.484375,0.765625 z m 0,0"
               id="id-963c06dc-24f8-4df9-b1ee-1272e555e8f4" />
          </g>
        </g>
      </g>
    </g>
    <path
       style="fill:none;stroke:#000000;stroke-width:0.075;stroke-linecap:butt;stroke-linejoin:miter;stroke-miterlimit:4;stroke-dasharray:none;stroke-opacity:1"
       d="m 105.09035,85.603399 c 0.78478,0.0077 -0.0746,3.119962 0.50017,3.413895 -0.59109,0.324703 0.21328,3.642435 -0.61549,3.614417"
       id="path1255-9-6-9"
       sodipodi:nodetypes="ccc" />
    <path
       style="fill:none;stroke:#000000;stroke-width:0.075;stroke-linecap:butt;stroke-linejoin:miter;stroke-miterlimit:4;stroke-dasharray:none;stroke-opacity:1"
       d="m 90.028416,84.478882 c 0.01469,-0.75009 5.951301,0.0713 6.51199,-0.478061 0.619363,0.564962 6.947914,-0.203852 6.894464,0.588284"
       id="path1255-9-6-9-3"
       sodipodi:nodetypes="ccc" />
    <g
       transform="matrix(0.352778,0,0,0.352778,96.169343,80.577402)"
       ns1:version="1.2.0"
       ns1:texconverter="pdflatex"
       ns1:pdfconverter="inkscape"
       ns1:text="$$b$$"
       ns1:preamble="/Users/mbh/Library/Application Support/org.inkscape.Inkscape/config/inkscape/extensions/textext/default_packages.tex"
       ns1:scale="1.0000000850393187"
       ns1:alignment="middle center"
       ns1:jacobian_sqrt="0.352778"
       id="g2399">
      <defs
         id="id-16c39353-b8c8-4ba4-9058-5a2a88a3c31a">
        <g
           id="id-dc4c9c47-8896-4bad-a506-00681077be17">
          <symbol
             overflow="visible"
             id="id-4f7b1323-6ac7-4eb2-9f8b-c1d90b06191b">
            <path
               style="stroke:none;stroke-width:0"
               d=""
               id="id-96fca966-1ba8-494e-b3e1-af3644cd5c07" />
          </symbol>
          <symbol
             overflow="visible"
             id="id-a215bf0e-23cf-41d4-8b21-3012b8f809de">
            <path
               style="stroke:none;stroke-width:0"
               d="m 2.375,-6.8125 c 0,0 0,-0.109375 -0.125,-0.109375 -0.21875,0 -0.953125,0.078125 -1.21875,0.109375 -0.078125,0 -0.1875,0.015625 -0.1875,0.1875 0,0.125 0.09375,0.125 0.25,0.125 0.46875,0 0.484375,0.0625 0.484375,0.171875 0,0.0625 -0.078125,0.40625 -0.125,0.609375 l -0.828125,3.25 c -0.109375,0.5 -0.15625,0.671875 -0.15625,1.015625 0,0.9375 0.53125,1.5625 1.265625,1.5625 1.171875,0 2.40625,-1.484375 2.40625,-2.921875 0,-0.90625 -0.53125,-1.59375 -1.328125,-1.59375 -0.453125,0 -0.875,0.296875 -1.171875,0.59375 z M 1.453125,-3.046875 C 1.5,-3.265625 1.5,-3.28125 1.59375,-3.390625 2.078125,-4.03125 2.53125,-4.1875 2.796875,-4.1875 c 0.359375,0 0.625,0.296875 0.625,0.9375 0,0.59375 -0.328125,1.734375 -0.515625,2.109375 -0.328125,0.671875 -0.78125,1.03125 -1.171875,1.03125 -0.34375,0 -0.671875,-0.265625 -0.671875,-1 0,-0.203125 0,-0.390625 0.15625,-1.015625 z m 0,0"
               id="id-72e18d30-c426-4257-bd26-06fe761d5781" />
          </symbol>
        </g>
      </defs>
      <g
         id="id-b4609877-a068-4143-9bc5-5f080a8e85f1"
         transform="translate(-303.955,-139.798)">
        <g
           style="fill:#000000;fill-opacity:1"
           id="id-666949b1-7f72-4c2a-a424-35d72471bafe">
          <g
             transform="translate(303.486,146.72)"
             id="g2395">
            <path
               style="stroke:none;stroke-width:0"
               d="m 2.375,-6.8125 c 0,0 0,-0.109375 -0.125,-0.109375 -0.21875,0 -0.953125,0.078125 -1.21875,0.109375 -0.078125,0 -0.1875,0.015625 -0.1875,0.1875 0,0.125 0.09375,0.125 0.25,0.125 0.46875,0 0.484375,0.0625 0.484375,0.171875 0,0.0625 -0.078125,0.40625 -0.125,0.609375 l -0.828125,3.25 c -0.109375,0.5 -0.15625,0.671875 -0.15625,1.015625 0,0.9375 0.53125,1.5625 1.265625,1.5625 1.171875,0 2.40625,-1.484375 2.40625,-2.921875 0,-0.90625 -0.53125,-1.59375 -1.328125,-1.59375 -0.453125,0 -0.875,0.296875 -1.171875,0.59375 z M 1.453125,-3.046875 C 1.5,-3.265625 1.5,-3.28125 1.59375,-3.390625 2.078125,-4.03125 2.53125,-4.1875 2.796875,-4.1875 c 0.359375,0 0.625,0.296875 0.625,0.9375 0,0.59375 -0.328125,1.734375 -0.515625,2.109375 -0.328125,0.671875 -0.78125,1.03125 -1.171875,1.03125 -0.34375,0 -0.671875,-0.265625 -0.671875,-1 0,-0.203125 0,-0.390625 0.15625,-1.015625 z m 0,0"
               id="id-1618dce5-2845-4bf4-95f1-438e28ee6b5e" />
          </g>
        </g>
      </g>
    </g>
    <circle
       style="fill:#000000;stroke:#000000;stroke-width:0.0750001;stroke-linejoin:round;stroke-miterlimit:4;stroke-dasharray:none"
       id="path2414"
       cx="96.655579"
       cy="100.43898"
       r="0.58796042" />
    <g
       transform="matrix(0.14246045,0,0,0.14246045,95.686072,98.08929)"
       ns1:version="1.2.0"
       ns1:texconverter="pdflatex"
       ns1:pdfconverter="inkscape"
       ns1:text="CM"
       ns1:preamble="/Users/mbh/Library/Application Support/org.inkscape.Inkscape/config/inkscape/extensions/textext/default_packages.tex"
       ns1:scale="1.0000000850393187"
       ns1:alignment="middle center"
       ns1:jacobian_sqrt="0.352778"
       id="g2475">
      <defs
         id="id-94f4e969-dca0-42a7-880a-74226bfdb82c">
        <g
           id="id-b573beba-9be8-439d-969f-97d1b5651ee0">
          <symbol
             overflow="visible"
             id="id-a7fb450b-985d-47e8-98b2-d4ec4ea3dda7">
            <path
               style="stroke:none;stroke-width:0"
               d=""
               id="id-cc912bb2-6623-4e90-90c9-f0c91b96ba9e" />
          </symbol>
          <symbol
             overflow="visible"
             id="id-17381fbb-3fff-47cb-b306-ab6e94d0a9e6">
            <path
               style="stroke:none;stroke-width:0"
               d="m 0.5625,-3.40625 c 0,2.0625 1.609375,3.625 3.46875,3.625 1.625,0 2.59375,-1.390625 2.59375,-2.546875 C 6.625,-2.421875 6.625,-2.5 6.5,-2.5 6.390625,-2.5 6.390625,-2.4375 6.375,-2.328125 6.296875,-0.90625 5.234375,-0.09375 4.140625,-0.09375 c -0.609375,0 -2.5625,-0.328125 -2.5625,-3.3125 0,-2.96875 1.953125,-3.3125 2.5625,-3.3125 1.078125,0 1.96875,0.90625 2.171875,2.359375 C 6.328125,-4.21875 6.328125,-4.1875 6.46875,-4.1875 6.625,-4.1875 6.625,-4.21875 6.625,-4.421875 V -6.78125 c 0,-0.171875 0,-0.25 -0.109375,-0.25 -0.03125,0 -0.078125,0 -0.15625,0.125 l -0.5,0.734375 C 5.5,-6.53125 4.984375,-7.03125 4.03125,-7.03125 c -1.875,0 -3.46875,1.59375 -3.46875,3.625 z m 0,0"
               id="id-9f2e3a30-2efd-4e24-ae20-ffb769db27e2" />
          </symbol>
          <symbol
             overflow="visible"
             id="id-383d5027-e28f-4c15-9d7d-6e75c35a31d2">
            <path
               style="stroke:none;stroke-width:0"
               d="M 2.40625,-6.59375 C 2.3125,-6.8125 2.28125,-6.8125 2.046875,-6.8125 H 0.375 V -6.5 h 0.234375 c 0.765625,0 0.78125,0.109375 0.78125,0.46875 v 4.984375 c 0,0.265625 0,0.734375 -1.015625,0.734375 V 0 c 0.34375,-0.015625 0.828125,-0.03125 1.15625,-0.03125 0.328125,0 0.828125,0.015625 1.171875,0.03125 v -0.3125 c -1.03125,0 -1.03125,-0.46875 -1.03125,-0.734375 v -5.375 H 1.6875 L 4.09375,-0.21875 C 4.140625,-0.09375 4.1875,0 4.28125,0 4.390625,0 4.421875,-0.078125 4.46875,-0.1875 L 6.921875,-6.5 v 5.71875 c 0,0.359375 -0.015625,0.46875 -0.78125,0.46875 H 5.90625 V 0 c 0.359375,-0.03125 1.046875,-0.03125 1.4375,-0.03125 0.375,0 1.046875,0 1.421875,0.03125 v -0.3125 h -0.25 c -0.765625,0 -0.78125,-0.109375 -0.78125,-0.46875 v -5.25 C 7.734375,-6.390625 7.75,-6.5 8.515625,-6.5 h 0.25 v -0.3125 h -1.6875 C 6.8125,-6.8125 6.8125,-6.796875 6.75,-6.625 L 4.5625,-1 Z m 0,0"
               id="id-a5f45f0e-4c94-4859-bb95-9ec5ceb4423d" />
          </symbol>
        </g>
      </defs>
      <g
         id="id-8229118f-3066-43a7-a097-8c7e1bb4dcf3"
         transform="translate(-149.275,-127.734)">
        <g
           style="fill:#000000;fill-opacity:1"
           id="id-3a9b02c8-bc1d-425c-91c7-60739782a6a6">
          <g
             transform="translate(148.712,134.765)"
             id="g2468">
            <path
               style="stroke:none;stroke-width:0"
               d="m 0.5625,-3.40625 c 0,2.0625 1.609375,3.625 3.46875,3.625 1.625,0 2.59375,-1.390625 2.59375,-2.546875 C 6.625,-2.421875 6.625,-2.5 6.5,-2.5 6.390625,-2.5 6.390625,-2.4375 6.375,-2.328125 6.296875,-0.90625 5.234375,-0.09375 4.140625,-0.09375 c -0.609375,0 -2.5625,-0.328125 -2.5625,-3.3125 0,-2.96875 1.953125,-3.3125 2.5625,-3.3125 1.078125,0 1.96875,0.90625 2.171875,2.359375 C 6.328125,-4.21875 6.328125,-4.1875 6.46875,-4.1875 6.625,-4.1875 6.625,-4.21875 6.625,-4.421875 V -6.78125 c 0,-0.171875 0,-0.25 -0.109375,-0.25 -0.03125,0 -0.078125,0 -0.15625,0.125 l -0.5,0.734375 C 5.5,-6.53125 4.984375,-7.03125 4.03125,-7.03125 c -1.875,0 -3.46875,1.59375 -3.46875,3.625 z m 0,0"
               id="id-c2d3ed1e-a1be-4057-95db-f876e2fae143" />
          </g>
          <g
             transform="translate(155.907,134.765)"
             id="g2471">
            <path
               style="stroke:none;stroke-width:0"
               d="M 2.40625,-6.59375 C 2.3125,-6.8125 2.28125,-6.8125 2.046875,-6.8125 H 0.375 V -6.5 h 0.234375 c 0.765625,0 0.78125,0.109375 0.78125,0.46875 v 4.984375 c 0,0.265625 0,0.734375 -1.015625,0.734375 V 0 c 0.34375,-0.015625 0.828125,-0.03125 1.15625,-0.03125 0.328125,0 0.828125,0.015625 1.171875,0.03125 v -0.3125 c -1.03125,0 -1.03125,-0.46875 -1.03125,-0.734375 v -5.375 H 1.6875 L 4.09375,-0.21875 C 4.140625,-0.09375 4.1875,0 4.28125,0 4.390625,0 4.421875,-0.078125 4.46875,-0.1875 L 6.921875,-6.5 v 5.71875 c 0,0.359375 -0.015625,0.46875 -0.78125,0.46875 H 5.90625 V 0 c 0.359375,-0.03125 1.046875,-0.03125 1.4375,-0.03125 0.375,0 1.046875,0 1.421875,0.03125 v -0.3125 h -0.25 c -0.765625,0 -0.78125,-0.109375 -0.78125,-0.46875 v -5.25 C 7.734375,-6.390625 7.75,-6.5 8.515625,-6.5 h 0.25 v -0.3125 h -1.6875 C 6.8125,-6.8125 6.8125,-6.796875 6.75,-6.625 L 4.5625,-1 Z m 0,0"
               id="id-7a20d3e8-c450-4840-a486-c6ef20722b34" />
          </g>
        </g>
      </g>
    </g>
    <path
       style="fill:none;stroke:#000000;stroke-width:0.075;stroke-linecap:butt;stroke-linejoin:miter;stroke-miterlimit:4;stroke-dasharray:none;stroke-opacity:1"
       d="m 99.405549,100.69013 c 2.173611,-9.5e-4 -0.117877,8.64267 1.482391,9.44033 -1.627733,0.91607 0.69436,10.08142 -1.601685,10.02743"
       id="path1255-9-6-6"
       sodipodi:nodetypes="ccc" />
    <g
       transform="matrix(0.352778,0,0,0.352778,101.85832,109.14204)"
       ns1:version="1.2.0"
       ns1:texconverter="pdflatex"
       ns1:pdfconverter="inkscape"
       ns1:text="$$x$$"
       ns1:preamble="/Users/mbh/Library/Application Support/org.inkscape.Inkscape/config/inkscape/extensions/textext/default_packages.tex"
       ns1:scale="1.0000000850393187"
       ns1:alignment="middle center"
       ns1:jacobian_sqrt="0.352778"
       id="g2579">
      <defs
         id="id-6203edb2-9ae0-4075-a1a5-86074a7a59b2">
        <g
           id="id-4529693c-01fe-44f5-8e07-2e657ca51f24">
          <symbol
             overflow="visible"
             id="id-288114ee-0a95-4de7-a00a-7e478000cfe8">
            <path
               style="stroke:none;stroke-width:0"
               d=""
               id="id-9ef79f87-9ebe-4396-8d25-697597832d0e" />
          </symbol>
          <symbol
             overflow="visible"
             id="id-284ed8a4-3e65-48b4-9196-0aee14e42470">
            <path
               style="stroke:none;stroke-width:0"
               d="M 3.328125,-3.015625 C 3.390625,-3.265625 3.625,-4.1875 4.3125,-4.1875 c 0.046875,0 0.296875,0 0.5,0.125 C 4.53125,-4 4.34375,-3.765625 4.34375,-3.515625 c 0,0.15625 0.109375,0.34375 0.375,0.34375 0.21875,0 0.53125,-0.171875 0.53125,-0.578125 0,-0.515625 -0.578125,-0.65625 -0.921875,-0.65625 -0.578125,0 -0.921875,0.53125 -1.046875,0.75 -0.25,-0.65625 -0.78125,-0.75 -1.078125,-0.75 -1.03125,0 -1.609375,1.28125 -1.609375,1.53125 0,0.109375 0.109375,0.109375 0.125,0.109375 0.078125,0 0.109375,-0.03125 0.125,-0.109375 0.34375,-1.0625 1,-1.3125 1.34375,-1.3125 0.1875,0 0.53125,0.09375 0.53125,0.671875 0,0.3125 -0.171875,0.96875 -0.53125,2.375 -0.15625,0.609375 -0.515625,1.03125 -0.953125,1.03125 -0.0625,0 -0.28125,0 -0.5,-0.125 0.25,-0.0625 0.46875,-0.265625 0.46875,-0.546875 0,-0.265625 -0.21875,-0.34375 -0.359375,-0.34375 -0.3125,0 -0.546875,0.25 -0.546875,0.578125 0,0.453125 0.484375,0.65625 0.921875,0.65625 0.671875,0 1.03125,-0.703125 1.046875,-0.75 0.125,0.359375 0.484375,0.75 1.078125,0.75 1.03125,0 1.59375,-1.28125 1.59375,-1.53125 0,-0.109375 -0.078125,-0.109375 -0.109375,-0.109375 -0.09375,0 -0.109375,0.046875 -0.140625,0.109375 -0.328125,1.078125 -1,1.3125 -1.3125,1.3125 -0.390625,0 -0.546875,-0.3125 -0.546875,-0.65625 0,-0.21875 0.046875,-0.4375 0.15625,-0.875 z m 0,0"
               id="id-cc5f5402-297f-4a17-bece-770a63b95bf4" />
          </symbol>
        </g>
      </defs>
      <g
         id="id-58d28f18-4e4d-42cd-80c7-90ca85f35f83"
         transform="translate(-303.074,-142.314)">
        <g
           style="fill:#000000;fill-opacity:1"
           id="id-3e28b6af-3eb9-4e3e-897e-992cc525aa01">
          <g
             transform="translate(302.777,146.72)"
             id="g2575">
            <path
               style="stroke:none;stroke-width:0"
               d="M 3.328125,-3.015625 C 3.390625,-3.265625 3.625,-4.1875 4.3125,-4.1875 c 0.046875,0 0.296875,0 0.5,0.125 C 4.53125,-4 4.34375,-3.765625 4.34375,-3.515625 c 0,0.15625 0.109375,0.34375 0.375,0.34375 0.21875,0 0.53125,-0.171875 0.53125,-0.578125 0,-0.515625 -0.578125,-0.65625 -0.921875,-0.65625 -0.578125,0 -0.921875,0.53125 -1.046875,0.75 -0.25,-0.65625 -0.78125,-0.75 -1.078125,-0.75 -1.03125,0 -1.609375,1.28125 -1.609375,1.53125 0,0.109375 0.109375,0.109375 0.125,0.109375 0.078125,0 0.109375,-0.03125 0.125,-0.109375 0.34375,-1.0625 1,-1.3125 1.34375,-1.3125 0.1875,0 0.53125,0.09375 0.53125,0.671875 0,0.3125 -0.171875,0.96875 -0.53125,2.375 -0.15625,0.609375 -0.515625,1.03125 -0.953125,1.03125 -0.0625,0 -0.28125,0 -0.5,-0.125 0.25,-0.0625 0.46875,-0.265625 0.46875,-0.546875 0,-0.265625 -0.21875,-0.34375 -0.359375,-0.34375 -0.3125,0 -0.546875,0.25 -0.546875,0.578125 0,0.453125 0.484375,0.65625 0.921875,0.65625 0.671875,0 1.03125,-0.703125 1.046875,-0.75 0.125,0.359375 0.484375,0.75 1.078125,0.75 1.03125,0 1.59375,-1.28125 1.59375,-1.53125 0,-0.109375 -0.078125,-0.109375 -0.109375,-0.109375 -0.09375,0 -0.109375,0.046875 -0.140625,0.109375 -0.328125,1.078125 -1,1.3125 -1.3125,1.3125 -0.390625,0 -0.546875,-0.3125 -0.546875,-0.65625 0,-0.21875 0.046875,-0.4375 0.15625,-0.875 z m 0,0"
               id="id-8816f485-bb0a-4cc2-addc-c0b926cd8bcc" />
          </g>
        </g>
      </g>
    </g>
  </g>
</svg>
