<?xml version="1.0" encoding="UTF-8" standalone="no"?>
<svg
   xmlns:ns2="http://www.iki.fi/pav/software/textext/"
   xmlns:dc="http://purl.org/dc/elements/1.1/"
   xmlns:cc="http://creativecommons.org/ns#"
   xmlns:rdf="http://www.w3.org/1999/02/22-rdf-syntax-ns#"
   xmlns:svg="http://www.w3.org/2000/svg"
   xmlns="http://www.w3.org/2000/svg"
   xmlns:sodipodi="http://sodipodi.sourceforge.net/DTD/sodipodi-0.dtd"
   xmlns:inkscape="http://www.inkscape.org/namespaces/inkscape"
   width="210mm"
   height="297mm"
   viewBox="0 0 210 297"
   version="1.1"
   id="svg900"
   sodipodi:docname="teiknaedda2.svg"
   inkscape:version="1.0.1 (c497b03c, 2020-09-10)">
  <defs
     id="defs894">
    <inkscape:path-effect
       effect="spiro"
       id="path-effect1475"
       is_visible="true"
       lpeversion="1" />
    <inkscape:path-effect
       effect="spiro"
       id="path-effect1471"
       is_visible="true"
       lpeversion="1" />
    <inkscape:path-effect
       effect="spiro"
       id="path-effect1465"
       is_visible="true"
       lpeversion="1" />
  </defs>
  <sodipodi:namedview
     id="base"
     pagecolor="#ffffff"
     bordercolor="#666666"
     borderopacity="1.0"
     inkscape:pageopacity="0.0"
     inkscape:pageshadow="2"
     inkscape:zoom="1.9115959"
     inkscape:cx="255.55563"
     inkscape:cy="444.64262"
     inkscape:document-units="mm"
     inkscape:current-layer="layer1"
     inkscape:document-rotation="0"
     showgrid="false"
     inkscape:window-width="1252"
     inkscape:window-height="855"
     inkscape:window-x="165"
     inkscape:window-y="28"
     inkscape:window-maximized="0" />
  <metadata
     id="metadata897">
    <rdf:RDF>
      <cc:Work
         rdf:about="">
        <dc:format>image/svg+xml</dc:format>
        <dc:type
           rdf:resource="http://purl.org/dc/dcmitype/StillImage" />
        <dc:title></dc:title>
      </cc:Work>
    </rdf:RDF>
  </metadata>
  <g
     inkscape:label="Layer 1"
     inkscape:groupmode="layer"
     id="layer1">
    <path
       style="fill:none;stroke:#000000;stroke-width:0.315794px;stroke-linecap:butt;stroke-linejoin:miter;stroke-opacity:1"
       d="m 25.18759,123.78591 h 78.74179"
       id="path1463"
       inkscape:path-effect="#path-effect1465"
       inkscape:original-d="m 25.18759,123.78591 c 26.247579,3.1e-4 52.494841,3.1e-4 78.74179,0" />
    <circle
       style="fill:none;stroke:#000000;stroke-width:0.328227;stroke-linejoin:round"
       id="path1467"
       cx="63.852074"
       cy="109.81863"
       r="13.752846" />
    <path
       style="fill:none;stroke:#000000;stroke-width:0.315794px;stroke-linecap:butt;stroke-linejoin:miter;stroke-opacity:1"
       d="m 64.017036,109.88405 -0.270562,13.88586"
       id="path1469"
       inkscape:path-effect="#path-effect1471"
       inkscape:original-d="m 64.017036,109.88405 c -0.08988,4.62894 -0.180065,9.25756 -0.270562,13.88586" />
    <rect
       style="fill:#000000;fill-opacity:0;stroke:#000000;stroke-width:0.238711;stroke-linejoin:round;stroke-miterlimit:4;stroke-dasharray:none"
       id="rect1477"
       width="2.0917017"
       height="2.2208893"
       x="63.746471"
       y="121.54902"
       ry="0" />
    <g
       transform="matrix(0.423711,0,0,0.423711,64.629724,105.70262)"
       ns2:version="1.2.0"
       ns2:texconverter="pdflatex"
       ns2:pdfconverter="inkscape"
       ns2:text="$$O$$"
       ns2:preamble="/Users/mbh/Library/Application Support/org.inkscape.Inkscape/config/inkscape/extensions/textext/default_packages.tex"
       ns2:scale="1.201069785008466"
       ns2:alignment="middle center"
       ns2:jacobian_sqrt="0.423711"
       id="g1569">
      <defs
         id="id-8d909caf-6e2b-43ba-b654-c289f3ae1089">
        <g
           id="id-338cc96e-b88a-451e-b9db-3b724fa019f9">
          <symbol
             overflow="visible"
             id="id-266d8f94-5b14-46ea-8c81-f4223e79c07e">
            <path
               style="stroke:none;stroke-width:0"
               d=""
               id="id-14786f23-6e50-4164-a7bd-396a96c2fc68" />
          </symbol>
          <symbol
             overflow="visible"
             id="id-680469b2-95fa-4222-9973-0160f9b3c2c2">
            <path
               style="stroke:none;stroke-width:0"
               d="m 7.375,-4.34375 c 0,-1.609375 -1.0625,-2.6875 -2.546875,-2.6875 -2.140625,0 -4.34375,2.265625 -4.34375,4.59375 0,1.65625 1.125,2.65625 2.5625,2.65625 2.109375,0 4.328125,-2.1875 4.328125,-4.5625 z M 6.484375,-4.734375 c 0,0.71875 -0.265625,2.265625 -1.25,3.5 C 4.75,-0.625 3.9375,-0.046875 3.09375,-0.046875 c -0.984375,0 -1.671875,-0.796875 -1.671875,-2.109375 0,-0.453125 0.140625,-1.90625 0.90625,-3.0625 0.6875,-1.046875 1.65625,-1.5625 2.453125,-1.5625 0.8125,0 1.703125,0.5625 1.703125,2.046875 z m 0,0"
               id="id-a37895c2-de33-491c-923e-9d7658c593ab" />
          </symbol>
        </g>
      </defs>
      <g
         id="id-1f587742-714a-46ae-a5d5-1b5ea9816ee3"
         transform="translate(-302.17,-139.689)">
        <g
           style="fill:#000000;fill-opacity:1"
           id="id-e07238fb-e556-4a00-a53e-cf7e6d5e1e55">
          <g
             transform="translate(301.686,146.72)"
             id="g1565">
            <path
               style="stroke:none;stroke-width:0"
               d="m 7.375,-4.34375 c 0,-1.609375 -1.0625,-2.6875 -2.546875,-2.6875 -2.140625,0 -4.34375,2.265625 -4.34375,4.59375 0,1.65625 1.125,2.65625 2.5625,2.65625 2.109375,0 4.328125,-2.1875 4.328125,-4.5625 z M 6.484375,-4.734375 c 0,0.71875 -0.265625,2.265625 -1.25,3.5 C 4.75,-0.625 3.9375,-0.046875 3.09375,-0.046875 c -0.984375,0 -1.671875,-0.796875 -1.671875,-2.109375 0,-0.453125 0.140625,-1.90625 0.90625,-3.0625 0.6875,-1.046875 1.65625,-1.5625 2.453125,-1.5625 0.8125,0 1.703125,0.5625 1.703125,2.046875 z m 0,0"
               id="id-8b211570-878d-47bf-adcb-7f7728292197" />
          </g>
        </g>
      </g>
    </g>
    <g
       transform="matrix(0.423711,0,0,0.423711,62.145347,125.05155)"
       ns2:version="1.2.0"
       ns2:texconverter="pdflatex"
       ns2:pdfconverter="inkscape"
       ns2:text="$$A$$"
       ns2:preamble="/Users/mbh/Library/Application Support/org.inkscape.Inkscape/config/inkscape/extensions/textext/default_packages.tex"
       ns2:scale="1.201069785008466"
       ns2:alignment="middle center"
       ns2:jacobian_sqrt="0.423711"
       id="g1634">
      <defs
         id="id-7f49823d-978e-4b11-bc37-a17f66f59325">
        <g
           id="id-70943272-e746-4f18-b4d9-480c779a1a44">
          <symbol
             overflow="visible"
             id="id-4c38a24e-b778-460a-afb9-52138bbef6f1">
            <path
               style="stroke:none;stroke-width:0"
               d=""
               id="id-0f015044-8a52-4895-9aba-ab0aaf87b915" />
          </symbol>
          <symbol
             overflow="visible"
             id="id-9388fe79-4bb7-45aa-9c95-3772197670c5">
            <path
               style="stroke:none;stroke-width:0"
               d="M 7.1875,-0.203125 C 7.1875,-0.3125 7.09375,-0.3125 6.953125,-0.3125 6.34375,-0.3125 6.34375,-0.375 6.3125,-0.671875 l -0.609375,-6.21875 c -0.015625,-0.203125 -0.015625,-0.25 -0.1875,-0.25 -0.15625,0 -0.203125,0.078125 -0.265625,0.171875 L 1.78125,-1.140625 C 1.390625,-0.484375 1,-0.34375 0.5625,-0.3125 0.4375,-0.296875 0.34375,-0.296875 0.34375,-0.109375 0.34375,-0.046875 0.40625,0 0.484375,0 0.75,0 1.0625,-0.03125 1.328125,-0.03125 c 0.34375,0 0.6875,0.03125 1,0.03125 0.0625,0 0.1875,0 0.1875,-0.1875 0,-0.109375 -0.078125,-0.125 -0.15625,-0.125 -0.21875,-0.015625 -0.46875,-0.09375 -0.46875,-0.34375 0,-0.125 0.0625,-0.234375 0.140625,-0.375 0.078125,-0.109375 0.078125,-0.109375 0.765625,-1.265625 h 2.5 c 0.015625,0.203125 0.15625,1.5625 0.15625,1.65625 0,0.296875 -0.515625,0.328125 -0.71875,0.328125 C 4.59375,-0.3125 4.5,-0.3125 4.5,-0.109375 4.5,0 4.640625,0 4.640625,0 5.046875,0 5.46875,-0.03125 5.875,-0.03125 6.125,-0.03125 6.765625,0 7.015625,0 7.0625,0 7.1875,0 7.1875,-0.203125 Z M 5.265625,-2.609375 H 2.984375 L 4.9375,-5.90625 Z m 0,0"
               id="id-44871d5e-caa4-4bc2-9e16-c8d68b5da0e6" />
          </symbol>
        </g>
      </defs>
      <g
         id="id-61efb74e-3de2-4829-9807-7b6de83fad1e"
         transform="translate(-302.232,-139.579)">
        <g
           style="fill:#000000;fill-opacity:1"
           id="id-663f5df0-3b25-4bc4-ba25-8003e7864f16">
          <g
             transform="translate(301.888,146.72)"
             id="g1630">
            <path
               style="stroke:none;stroke-width:0"
               d="M 7.1875,-0.203125 C 7.1875,-0.3125 7.09375,-0.3125 6.953125,-0.3125 6.34375,-0.3125 6.34375,-0.375 6.3125,-0.671875 l -0.609375,-6.21875 c -0.015625,-0.203125 -0.015625,-0.25 -0.1875,-0.25 -0.15625,0 -0.203125,0.078125 -0.265625,0.171875 L 1.78125,-1.140625 C 1.390625,-0.484375 1,-0.34375 0.5625,-0.3125 0.4375,-0.296875 0.34375,-0.296875 0.34375,-0.109375 0.34375,-0.046875 0.40625,0 0.484375,0 0.75,0 1.0625,-0.03125 1.328125,-0.03125 c 0.34375,0 0.6875,0.03125 1,0.03125 0.0625,0 0.1875,0 0.1875,-0.1875 0,-0.109375 -0.078125,-0.125 -0.15625,-0.125 -0.21875,-0.015625 -0.46875,-0.09375 -0.46875,-0.34375 0,-0.125 0.0625,-0.234375 0.140625,-0.375 0.078125,-0.109375 0.078125,-0.109375 0.765625,-1.265625 h 2.5 c 0.015625,0.203125 0.15625,1.5625 0.15625,1.65625 0,0.296875 -0.515625,0.328125 -0.71875,0.328125 C 4.59375,-0.3125 4.5,-0.3125 4.5,-0.109375 4.5,0 4.640625,0 4.640625,0 5.046875,0 5.46875,-0.03125 5.875,-0.03125 6.125,-0.03125 6.765625,0 7.015625,0 7.0625,0 7.1875,0 7.1875,-0.203125 Z M 5.265625,-2.609375 H 2.984375 L 4.9375,-5.90625 Z m 0,0"
               id="id-2999e6fa-1c65-4e1d-b162-c2d23ced35eb" />
          </g>
        </g>
      </g>
    </g>
    <g
       transform="matrix(0.423711,0,0,0.423711,52.018287,96.012049)"
       ns2:version="1.2.0"
       ns2:texconverter="pdflatex"
       ns2:pdfconverter="inkscape"
       ns2:text="$$\omega$$"
       ns2:preamble="/Users/mbh/Library/Application Support/org.inkscape.Inkscape/config/inkscape/extensions/textext/default_packages.tex"
       ns2:scale="1.201069785008466"
       ns2:alignment="middle center"
       ns2:jacobian_sqrt="0.423711"
       id="g1710">
      <defs
         id="id-e24cfff5-855a-4611-8b27-d08b3ad7f37d">
        <g
           id="id-4a56a632-2f46-4cd7-9853-b7fc2cd5e629">
          <symbol
             overflow="visible"
             id="id-93ad7928-94e8-4dd5-8cf4-664b36879c6e">
            <path
               style="stroke:none;stroke-width:0"
               d=""
               id="id-1afbb0b1-4d11-4347-99b1-52d82df34e0e" />
          </symbol>
          <symbol
             overflow="visible"
             id="id-87a38bee-5116-4155-b349-613d3fd8ef18">
            <path
               style="stroke:none;stroke-width:0"
               d="M 5.796875,-2.375 C 5.90625,-2.8125 6.015625,-3.3125 6.015625,-3.703125 6.015625,-3.96875 5.96875,-4.1875 5.828125,-4.3125 5.765625,-4.375 5.6875,-4.40625 5.59375,-4.40625 c -0.125,0 -0.25,0.0625 -0.34375,0.15625 -0.09375,0.109375 -0.140625,0.21875 -0.140625,0.328125 0,0.09375 0.03125,0.171875 0.109375,0.25 0.25,0.21875 0.375,0.515625 0.375,0.875 0,0.109375 -0.015625,0.25 -0.046875,0.359375 -0.21875,0.90625 -0.796875,1.828125 -1.59375,1.828125 -0.546875,0 -0.875,-0.375 -0.96875,-0.890625 0.125,-0.28125 0.21875,-0.578125 0.296875,-0.875 0.015625,-0.09375 0.03125,-0.1875 0.03125,-0.265625 0,-0.15625 -0.046875,-0.265625 -0.1875,-0.265625 -0.1875,0 -0.28125,0.25 -0.328125,0.46875 C 2.71875,-2.125 2.671875,-1.828125 2.65625,-1.53125 2.328125,-1 1.859375,-0.609375 1.3125,-0.609375 c -0.609375,0 -0.875,-0.5 -0.875,-1.125 C 0.4375,-1.9375 0.46875,-2.15625 0.515625,-2.375 0.671875,-2.984375 1.03125,-3.53125 1.40625,-4.0625 1.4375,-4.109375 1.453125,-4.15625 1.453125,-4.203125 1.453125,-4.25 1.421875,-4.3125 1.359375,-4.34375 1.328125,-4.359375 1.3125,-4.359375 1.28125,-4.359375 c -0.0625,0 -0.140625,0.03125 -0.1875,0.09375 C 0.6875,-3.703125 0.4375,-3.0625 0.28125,-2.4375 0.171875,-2.046875 0.125,-1.671875 0.125,-1.3125 c 0,0.796875 0.296875,1.421875 1.046875,1.421875 0.625,0 1.15625,-0.4375 1.53125,-1.0625 0.109375,0.625 0.453125,1.0625 1.125,1.0625 1.03125,0 1.671875,-1.28125 1.96875,-2.484375 z m 0,0"
               id="id-1a942fe8-b33d-460c-b024-13917d109673" />
          </symbol>
        </g>
      </defs>
      <g
         id="id-f8e7d413-960c-4d2d-bbc6-de8d51254411"
         transform="translate(-302.47,-142.314)">
        <g
           style="fill:#000000;fill-opacity:1"
           id="id-432ca54e-fc99-43d4-ae16-a683451071b4">
          <g
             transform="translate(302.345,146.72)"
             id="g1706">
            <path
               style="stroke:none;stroke-width:0"
               d="M 5.796875,-2.375 C 5.90625,-2.8125 6.015625,-3.3125 6.015625,-3.703125 6.015625,-3.96875 5.96875,-4.1875 5.828125,-4.3125 5.765625,-4.375 5.6875,-4.40625 5.59375,-4.40625 c -0.125,0 -0.25,0.0625 -0.34375,0.15625 -0.09375,0.109375 -0.140625,0.21875 -0.140625,0.328125 0,0.09375 0.03125,0.171875 0.109375,0.25 0.25,0.21875 0.375,0.515625 0.375,0.875 0,0.109375 -0.015625,0.25 -0.046875,0.359375 -0.21875,0.90625 -0.796875,1.828125 -1.59375,1.828125 -0.546875,0 -0.875,-0.375 -0.96875,-0.890625 0.125,-0.28125 0.21875,-0.578125 0.296875,-0.875 0.015625,-0.09375 0.03125,-0.1875 0.03125,-0.265625 0,-0.15625 -0.046875,-0.265625 -0.1875,-0.265625 -0.1875,0 -0.28125,0.25 -0.328125,0.46875 C 2.71875,-2.125 2.671875,-1.828125 2.65625,-1.53125 2.328125,-1 1.859375,-0.609375 1.3125,-0.609375 c -0.609375,0 -0.875,-0.5 -0.875,-1.125 C 0.4375,-1.9375 0.46875,-2.15625 0.515625,-2.375 0.671875,-2.984375 1.03125,-3.53125 1.40625,-4.0625 1.4375,-4.109375 1.453125,-4.15625 1.453125,-4.203125 1.453125,-4.25 1.421875,-4.3125 1.359375,-4.34375 1.328125,-4.359375 1.3125,-4.359375 1.28125,-4.359375 c -0.0625,0 -0.140625,0.03125 -0.1875,0.09375 C 0.6875,-3.703125 0.4375,-3.0625 0.28125,-2.4375 0.171875,-2.046875 0.125,-1.671875 0.125,-1.3125 c 0,0.796875 0.296875,1.421875 1.046875,1.421875 0.625,0 1.15625,-0.4375 1.53125,-1.0625 0.109375,0.625 0.453125,1.0625 1.125,1.0625 1.03125,0 1.671875,-1.28125 1.96875,-2.484375 z m 0,0"
               id="id-f63d0e20-eda9-4b43-83d7-526872c6c200" />
          </g>
        </g>
      </g>
    </g>
    <g
       transform="matrix(0.423711,0,0,0.423711,99.967597,119.96498)"
       ns2:version="1.2.0"
       ns2:texconverter="pdflatex"
       ns2:pdfconverter="inkscape"
       ns2:text="$$\ell$$"
       ns2:preamble="/Users/mbh/Library/Application Support/org.inkscape.Inkscape/config/inkscape/extensions/textext/default_packages.tex"
       ns2:scale="1.201069785008466"
       ns2:alignment="middle center"
       ns2:jacobian_sqrt="0.423711"
       id="g1508">
      <defs
         id="id-c72dd794-7acc-4d0e-8aa7-d2f301a4d066">
        <g
           id="id-072b26fc-3ce9-47ec-a619-0150a7ef623b">
          <symbol
             overflow="visible"
             id="id-c8ea1694-00a6-4cd4-b7df-2980d6115815">
            <path
               style="stroke:none"
               d=""
               id="id-62a56a80-ca1e-4fe9-9561-77e61cd09d4f" />
          </symbol>
          <symbol
             overflow="visible"
             id="id-2e558d2b-fc27-4043-b2ac-38713a72ca32">
            <path
               style="stroke:none"
               d="m 3.625,-0.84375 c 0,-0.03125 -0.03125,-0.125 -0.109375,-0.125 -0.03125,0 -0.046875,0.015625 -0.140625,0.09375 -0.640625,0.625 -1,0.78125 -1.296875,0.78125 -0.4375,0 -0.609375,-0.53125 -0.609375,-1.296875 0,-0.0625 0.03125,-0.515625 0.0625,-0.578125 C 1.546875,-2 1.546875,-2.015625 1.75,-2.21875 2.546875,-3.015625 3.96875,-4.703125 3.96875,-6.25 c 0,-0.171875 0,-0.78125 -0.59375,-0.78125 -0.828125,0 -1.5625,1.640625 -1.65625,1.875 -0.484375,1.09375 -0.796875,2.25 -0.796875,3.4375 L 0.15625,-0.984375 c -0.015625,0.03125 -0.046875,0.0625 -0.046875,0.09375 0,0.046875 0.0625,0.140625 0.125,0.140625 C 0.28125,-0.75 0.3125,-0.78125 0.59375,-1.0625 0.671875,-1.140625 0.875,-1.328125 0.953125,-1.40625 1.046875,-0.625 1.328125,0.125 2.0625,0.125 c 0.40625,0 0.75,-0.234375 0.953125,-0.390625 C 3.15625,-0.359375 3.625,-0.75 3.625,-0.84375 Z m 0.109375,-5.453125 c 0,1.671875 -1.6875,3.421875 -2.15625,3.921875 0.015625,-0.125 0.453125,-2.328125 1.015625,-3.5 0.265625,-0.53125 0.484375,-0.9375 0.796875,-0.9375 0.34375,0 0.34375,0.359375 0.34375,0.515625 z m 0,0"
               id="id-27296348-42ea-4370-8a5d-4c4c6b4c4422" />
          </symbol>
        </g>
      </defs>
      <g
         id="id-13880407-ee7a-4180-b9cc-9fd0e2448dd0"
         transform="translate(-303.657,-139.689)">
        <g
           style="fill:#000000;fill-opacity:1"
           id="id-78902ad1-497f-4d3c-9d4a-f6f64928a96f">
          <g
             transform="translate(303.548,146.72)"
             id="g1775">
            <path
               style="stroke:none"
               d="m 3.625,-0.84375 c 0,-0.03125 -0.03125,-0.125 -0.109375,-0.125 -0.03125,0 -0.046875,0.015625 -0.140625,0.09375 -0.640625,0.625 -1,0.78125 -1.296875,0.78125 -0.4375,0 -0.609375,-0.53125 -0.609375,-1.296875 0,-0.0625 0.03125,-0.515625 0.0625,-0.578125 C 1.546875,-2 1.546875,-2.015625 1.75,-2.21875 2.546875,-3.015625 3.96875,-4.703125 3.96875,-6.25 c 0,-0.171875 0,-0.78125 -0.59375,-0.78125 -0.828125,0 -1.5625,1.640625 -1.65625,1.875 -0.484375,1.09375 -0.796875,2.25 -0.796875,3.4375 L 0.15625,-0.984375 c -0.015625,0.03125 -0.046875,0.0625 -0.046875,0.09375 0,0.046875 0.0625,0.140625 0.125,0.140625 C 0.28125,-0.75 0.3125,-0.78125 0.59375,-1.0625 0.671875,-1.140625 0.875,-1.328125 0.953125,-1.40625 1.046875,-0.625 1.328125,0.125 2.0625,0.125 c 0.40625,0 0.75,-0.234375 0.953125,-0.390625 C 3.15625,-0.359375 3.625,-0.75 3.625,-0.84375 Z m 0.109375,-5.453125 c 0,1.671875 -1.6875,3.421875 -2.15625,3.921875 0.015625,-0.125 0.453125,-2.328125 1.015625,-3.5 0.265625,-0.53125 0.484375,-0.9375 0.796875,-0.9375 0.34375,0 0.34375,0.359375 0.34375,0.515625 z m 0,0"
               id="id-07166a5a-bc6d-4d8f-9d4f-a606466b95b6" />
          </g>
        </g>
      </g>
    </g>
  </g>
</svg>
