<?xml version="1.0" encoding="UTF-8" standalone="no"?>
<svg
   xmlns:ns1="http://www.iki.fi/pav/software/textext/"
   xmlns:dc="http://purl.org/dc/elements/1.1/"
   xmlns:cc="http://creativecommons.org/ns#"
   xmlns:rdf="http://www.w3.org/1999/02/22-rdf-syntax-ns#"
   xmlns:svg="http://www.w3.org/2000/svg"
   xmlns="http://www.w3.org/2000/svg"
   xmlns:sodipodi="http://sodipodi.sourceforge.net/DTD/sodipodi-0.dtd"
   xmlns:inkscape="http://www.inkscape.org/namespaces/inkscape"
   width="210mm"
   height="297mm"
   viewBox="0 0 210 297"
   version="1.1"
   id="svg8"
   inkscape:version="1.0.1 (c497b03c, 2020-09-10)"
   sodipodi:docname="springsofleon.svg">
  <defs
     id="defs2">
    <inkscape:path-effect
       effect="spiro"
       id="path-effect1734"
       is_visible="true"
       lpeversion="1" />
    <inkscape:path-effect
       effect="spiro"
       id="path-effect1730"
       is_visible="true"
       lpeversion="1" />
    <inkscape:path-effect
       effect="spiro"
       id="path-effect853"
       is_visible="true"
       lpeversion="1" />
    <inkscape:path-effect
       effect="spiro"
       id="path-effect849"
       is_visible="true"
       lpeversion="1" />
    <inkscape:path-effect
       effect="spiro"
       id="path-effect843"
       is_visible="true"
       lpeversion="1" />
    <inkscape:path-effect
       effect="spiro"
       id="path-effect839"
       is_visible="true"
       lpeversion="1" />
    <inkscape:path-effect
       effect="spiro"
       id="path-effect835"
       is_visible="true"
       lpeversion="1" />
    <g
       id="g3498">
      <symbol
         overflow="visible"
         id="symbol3492">
        <path
           style="stroke:none;stroke-width:0"
           d=""
           id="path3490" />
      </symbol>
      <symbol
         overflow="visible"
         id="symbol3496">
        <path
           style="stroke:none;stroke-width:0"
           d="m 4.890625,-1.421875 c 0,-0.109375 -0.09375,-0.109375 -0.125,-0.109375 -0.09375,0 -0.109375,0.046875 -0.140625,0.1875 -0.203125,0.71875 -0.421875,1.234375 -0.859375,1.234375 -0.203125,0 -0.328125,-0.109375 -0.328125,-0.46875 0,-0.171875 0.046875,-0.40625 0.078125,-0.5625 C 3.5625,-1.3125 3.5625,-1.34375 3.5625,-1.453125 3.5625,-2.09375 2.9375,-2.375 2.078125,-2.5 2.390625,-2.671875 2.71875,-2.984375 2.9375,-3.234375 3.421875,-3.765625 3.875,-4.1875 4.359375,-4.1875 c 0.0625,0 0.078125,0 0.09375,0.015625 0.125,0.015625 0.125,0.015625 0.21875,0.078125 0.015625,0 0.015625,0.015625 0.03125,0.03125 -0.46875,0.03125 -0.5625,0.421875 -0.5625,0.546875 0,0.15625 0.109375,0.34375 0.375,0.34375 0.265625,0 0.546875,-0.21875 0.546875,-0.609375 0,-0.296875 -0.234375,-0.625 -0.671875,-0.625 -0.28125,0 -0.734375,0.078125 -1.453125,0.875 -0.34375,0.375 -0.734375,0.78125 -1.109375,0.921875 L 2.859375,-6.8125 c 0,0 0,-0.109375 -0.125,-0.109375 -0.234375,0 -0.953125,0.078125 -1.21875,0.109375 -0.078125,0 -0.1875,0.015625 -0.1875,0.1875 0,0.125 0.09375,0.125 0.234375,0.125 0.484375,0 0.5,0.0625 0.5,0.171875 L 2.03125,-6.125 0.59375,-0.390625 c -0.046875,0.140625 -0.046875,0.15625 -0.046875,0.21875 0,0.234375 0.203125,0.28125 0.296875,0.28125 0.125,0 0.265625,-0.09375 0.328125,-0.203125 0.046875,-0.09375 0.5,-1.9375 0.5625,-2.1875 0.34375,0.03125 1.15625,0.1875 1.15625,0.84375 0,0.078125 0,0.109375 -0.03125,0.21875 -0.015625,0.109375 -0.03125,0.234375 -0.03125,0.34375 0,0.578125 0.390625,0.984375 0.90625,0.984375 0.296875,0 0.578125,-0.15625 0.796875,-0.53125 0.25,-0.4375 0.359375,-1 0.359375,-1 z m 0,0"
           id="path3494" />
      </symbol>
    </g>
    <g
       id="g3535">
      <symbol
         overflow="visible"
         id="symbol3529">
        <path
           style="stroke:none;stroke-width:0"
           d=""
           id="path3527" />
      </symbol>
      <symbol
         overflow="visible"
         id="symbol3533">
        <path
           style="stroke:none;stroke-width:0"
           d="m 8.453125,-1.421875 c 0,-0.109375 -0.09375,-0.109375 -0.125,-0.109375 -0.09375,0 -0.09375,0.03125 -0.140625,0.1875 -0.15625,0.53125 -0.46875,1.234375 -1.015625,1.234375 -0.171875,0 -0.25,-0.09375 -0.25,-0.328125 0,-0.25 0.09375,-0.484375 0.1875,-0.703125 0.1875,-0.53125 0.609375,-1.625 0.609375,-2.203125 0,-0.640625 -0.40625,-1.0625 -1.15625,-1.0625 -0.734375,0 -1.25,0.4375 -1.625,0.96875 0,-0.125 -0.03125,-0.46875 -0.3125,-0.703125 -0.25,-0.21875 -0.5625,-0.265625 -0.8125,-0.265625 -0.90625,0 -1.390625,0.640625 -1.5625,0.875 -0.046875,-0.578125 -0.46875,-0.875 -0.921875,-0.875 -0.453125,0 -0.640625,0.390625 -0.734375,0.5625 -0.171875,0.359375 -0.296875,0.9375 -0.296875,0.96875 0,0.109375 0.109375,0.109375 0.109375,0.109375 0.109375,0 0.109375,-0.015625 0.171875,-0.234375 0.171875,-0.703125 0.375,-1.1875 0.734375,-1.1875 0.15625,0 0.296875,0.078125 0.296875,0.453125 0,0.21875 -0.03125,0.328125 -0.15625,0.84375 L 0.875,-0.59375 c -0.03125,0.15625 -0.09375,0.390625 -0.09375,0.4375 0,0.171875 0.140625,0.265625 0.296875,0.265625 0.125,0 0.296875,-0.078125 0.375,-0.28125 0,-0.015625 0.125,-0.484375 0.1875,-0.734375 l 0.21875,-0.890625 C 1.90625,-2.03125 1.96875,-2.25 2.03125,-2.46875 l 0.125,-0.5 c 0.140625,-0.3125 0.671875,-1.21875 1.625,-1.21875 0.453125,0 0.53125,0.375 0.53125,0.703125 0,0.25 -0.0625,0.53125 -0.140625,0.828125 L 3.890625,-1.5 C 3.78125,-1.140625 3.78125,-1.078125 3.6875,-0.75 c -0.03125,0.203125 -0.125,0.546875 -0.125,0.59375 0,0.171875 0.140625,0.265625 0.28125,0.265625 0.3125,0 0.375,-0.25 0.453125,-0.5625 l 0.59375,-2.40625 c 0.03125,-0.125 0.5625,-1.328125 1.65625,-1.328125 0.421875,0 0.53125,0.34375 0.53125,0.703125 0,0.5625 -0.421875,1.703125 -0.625,2.234375 -0.078125,0.234375 -0.125,0.34375 -0.125,0.546875 0,0.46875 0.34375,0.8125 0.8125,0.8125 0.9375,0 1.3125,-1.453125 1.3125,-1.53125 z m 0,0"
           id="path3531" />
      </symbol>
    </g>
  </defs>
  <sodipodi:namedview
     id="base"
     pagecolor="#ffffff"
     bordercolor="#666666"
     borderopacity="1.0"
     inkscape:pageopacity="0.0"
     inkscape:pageshadow="2"
     inkscape:zoom="1.7368265"
     inkscape:cx="310.8323"
     inkscape:cy="270.80756"
     inkscape:document-units="mm"
     inkscape:current-layer="layer1"
     inkscape:document-rotation="0"
     showgrid="false"
     inkscape:window-width="1252"
     inkscape:window-height="855"
     inkscape:window-x="346"
     inkscape:window-y="62"
     inkscape:window-maximized="0" />
  <metadata
     id="metadata5">
    <rdf:RDF>
      <cc:Work
         rdf:about="">
        <dc:format>image/svg+xml</dc:format>
        <dc:type
           rdf:resource="http://purl.org/dc/dcmitype/StillImage" />
        <dc:title />
      </cc:Work>
    </rdf:RDF>
  </metadata>
  <g
     inkscape:label="Layer 1"
     inkscape:groupmode="layer"
     id="layer1">
    <path
       style="fill:none;stroke:#000000;stroke-width:0.264583px;stroke-linecap:butt;stroke-linejoin:miter;stroke-opacity:1"
       d="m 51.417476,40.192536 v 13.39751"
       id="path833"
       inkscape:original-d="m 51.417476,40.192536 c 2.65e-4,4.707499 2.65e-4,8.931939 0,13.39751"
       inkscape:path-effect="#path-effect835" />
    <path
       style="fill:none;stroke:#000000;stroke-width:0.264583px;stroke-linecap:butt;stroke-linejoin:miter;stroke-opacity:1"
       d="M 51.417476,53.590046 H 97.40353"
       id="path837"
       inkscape:path-effect="#path-effect839"
       inkscape:original-d="m 51.417476,53.590046 c 15.32895,2.65e-4 30.657633,2.65e-4 45.986054,0" />
    <path
       style="fill:none;stroke:#000000;stroke-width:0.264583px;stroke-linecap:butt;stroke-linejoin:miter;stroke-opacity:1"
       d="M 97.40353,53.590046 V 80.521677"
       id="path841"
       inkscape:path-effect="#path-effect843"
       inkscape:original-d="m 97.40353,53.590046 c 2.64e-4,11.5873 2.64e-4,15.344857 0,26.931631"
       sodipodi:nodetypes="cc" />
    <circle
       style="fill:none;stroke:#000000;stroke-width:0.26;stroke-linejoin:round;stroke-miterlimit:4;stroke-dasharray:none"
       id="path845"
       cx="101.2886"
       cy="49.136471"
       r="1.8771291" />
    <path
       style="fill:none;stroke:#000000;stroke-width:0.26;stroke-linecap:butt;stroke-linejoin:miter;stroke-opacity:1;stroke-miterlimit:4;stroke-dasharray:none"
       d="M 93.535636,53.566741 99.48727,49.332325"
       id="path847"
       inkscape:path-effect="#path-effect849"
       inkscape:original-d="m 93.535636,53.566741 c 1.91329,-1.37585 4.038782,-2.858131 5.951634,-4.234416"
       sodipodi:nodetypes="cc" />
    <path
       style="fill:none;stroke:#000000;stroke-width:0.26;stroke-linecap:butt;stroke-linejoin:miter;stroke-opacity:1;stroke-miterlimit:4;stroke-dasharray:none"
       d="m 97.361777,57.795632 4.044083,-6.804719"
       id="path851"
       inkscape:path-effect="#path-effect853"
       inkscape:original-d="m 97.361777,57.795632 c 1.242039,-2.214914 2.802483,-4.589365 4.044083,-6.804719"
       sodipodi:nodetypes="cc" />
    <path
       style="fill:none;stroke:#000000;stroke-width:0.141065;stroke-linecap:butt;stroke-linejoin:miter;stroke-miterlimit:10;stroke-dasharray:none;stroke-opacity:1"
       d="m 73.222939,48.376709 c -0.0829,1.10932 -0.57688,1.99953 -1.17289,1.99953 -0.596,0 -1.09001,-0.89021 -1.17288,-1.99953 -0.0829,-1.1107 0.247,-2.00091 0.67727,-2.00091 0.43027,0 0.76015,0.89021 0.67728,2.00091 -0.0829,1.10932 -0.57688,1.99953 -1.17289,1.99953 -0.596,0 -1.09001,-0.89021 -1.17288,-1.99953 -0.0829,-1.1107 0.247,-2.00091 0.67727,-2.00091 0.43187,0 0.76016,0.89021 0.67888,2.00091 -0.0829,1.10932 -0.57688,1.99953 -1.17289,1.99953 -0.596,0 -1.09161,-0.89021 -1.17288,-1.99953 -0.0829,-1.1107 0.2454,-2.00091 0.67727,-2.00091 0.43027,0 0.76015,0.89021 0.67728,2.00091 -0.0829,1.10932 -0.57688,1.99953 -1.17289,1.99953 -0.596,0 -1.09002,-0.89021 -1.17288,-1.99953 -0.0829,-1.1107 0.247,-2.00091 0.67727,-2.00091 0.43027,0 0.76016,0.89021 0.67729,2.00091 -0.0829,1.10932 -0.57689,1.99953 -1.1729,1.99953 -0.596,0 -1.09002,-0.89021 -1.17288,-1.99953 -0.0829,-1.1107 0.247,-2.00091 0.67727,-2.00091 0.43187,0 0.76016,0.89021 0.67729,2.00091 -0.0813,1.10932 -0.57689,1.99953 -1.1713,1.99953 -0.59601,0 -1.09162,-0.89021 -1.17289,-1.99953 -0.0829,-1.1107 0.24541,-2.00091 0.67728,-2.00091 0.43027,0 0.76015,0.89021 0.67728,2.00091 -0.0829,1.10932 -0.57688,1.99953 -1.17289,1.99953 -0.59601,0 -1.09002,-0.89021 -1.17289,-1.99953 -0.0829,-1.1107 0.24701,-2.00091 0.67728,-2.00091 0.43027,0 0.76016,0.89021 0.67729,2.00091 -0.0829,1.10932 -0.57689,1.99953 -1.1729,1.99953 -0.59601,0 -1.09002,-0.89021 -1.17288,-1.99953 -0.0829,-1.1107 0.247,-2.00091 0.67727,-2.00091 0.43187,0 0.76016,0.89021 0.67729,2.00091 -0.0813,1.10932 -0.57688,1.99953 -1.17289,1.99953 -0.596,0 -1.09003,-0.89021 -1.1713,-1.99953 -0.0829,-1.1107 0.24542,-2.00091 0.67728,-2.00091 0.43027,0 0.76014,0.89021 0.67729,2.00091 -0.0829,1.10932 -0.57689,1.99953 -1.1729,1.99953 -0.596,0 -1.09001,-0.89021 -1.17288,-1.99953 -0.0829,-1.1107 0.24701,-2.00091 0.67727,-2.00091 0.43028,0 0.76016,0.89021 0.67729,2.00091 -0.0829,1.10932 -0.57688,1.99953 -1.17289,1.99953 -0.59601,0 -1.09002,-0.89021 -1.17289,-1.99953 -0.0829,-1.1107 0.24701,-2.00091 0.67728,-2.00091 0.43187,0 0.76016,0.89021 0.67729,2.00091 -0.0813,1.10932 -0.57689,1.99953 -1.1729,1.99953 -0.59601,0 -1.09002,-0.89021 -1.17129,-1.99953 -0.0829,-1.1107 0.24541,-2.00091 0.67728,-2.00091 0.43027,0 0.76014,0.89021 0.67728,2.00091 -0.0829,1.10932 -0.57688,1.99953 -1.17289,1.99953 -0.59601,0 -1.09002,-0.89021 -1.17289,-1.99953 -0.0829,-1.1107 0.24701,-2.00091 0.67728,-2.00091 0.43027,0 0.76014,0.89021 0.67729,2.00091 -0.0829,1.10932 -0.57689,1.99953 -1.1729,1.99953 -0.59601,0 -1.09002,-0.89021 -1.17289,-1.99953 -0.0829,-1.1107 0.24702,-2.00091 0.67728,-2.00091 0.43187,0 0.76015,0.89021 0.67729,2.00091 -0.0813,1.10932 -0.57688,1.99953 -1.17289,1.99953 -0.59601,0 -1.09002,-0.89021 -1.17289,-1.99953 -0.0813,-1.1107 0.24701,-2.00091 0.67888,-2.00091 0.43027,0 0.76013,0.89021 0.67727,2.00091 -0.0829,1.10932 -0.57689,1.99953 -1.17288,1.99953 -0.59601,0 -1.09003,-0.89021 -1.1729,-1.99953 -0.0829,-1.1107 0.24702,-2.00091 0.67729,-2.00091 0.43027,0 0.76014,0.89021 0.67727,2.00091 -0.0829,1.10932 -0.57688,1.99953 -1.17288,1.99953 -0.59601,0 -1.09003,-0.89021 -1.17289,-1.99953 -0.0829,-1.1107 0.24701,-2.00091 0.67728,-2.00091 0.43187,0 0.76014,0.89021 0.67727,2.00091 -0.0813,1.10932 -0.57687,1.99953 -1.17288,1.99953 -0.59601,0 -1.09002,-0.89021 -1.17289,-1.99953 -0.0813,-1.1107 0.24701,-2.00091 0.67888,-2.00091 0.43027,0 0.75854,0.89021 0.67727,2.00091 -0.0829,1.10932 -0.57688,1.99953 -1.17288,1.99953 -0.59602,0 -1.09003,-0.89021 -1.1729,-1.99953 -0.0829,-1.1107 0.24701,-2.00091 0.67729,-2.00091 0.43027,0 0.76014,0.89021 0.67727,2.00091 -0.0829,1.10932 -0.57688,1.99953 -1.17289,1.99953 -0.59601,0 -1.09002,-0.89021 -1.17289,-1.99953 h -0.53545"
       id="path7229-3" />
    <rect
       style="fill:none;stroke:#000000;stroke-width:0.15;stroke-linejoin:round"
       id="rect1522"
       width="8.9592857"
       height="8.9592857"
       x="73.217972"
       y="44.568668" />
    <path
       style="fill:none;stroke:#000000;stroke-width:0.2;stroke-linecap:butt;stroke-linejoin:miter;stroke-miterlimit:4;stroke-dasharray:none;stroke-opacity:1"
       d="m 101.41586,47.237284 -19.216706,0.03613"
       id="path1728"
       inkscape:path-effect="#path-effect1730"
       inkscape:original-d="m 101.41586,47.237284 c -6.453477,2.64e-4 -12.762704,0.03639 -19.216706,0.03613"
       sodipodi:nodetypes="cc" />
    <path
       style="fill:none;stroke:#000000;stroke-width:0.2;stroke-linecap:butt;stroke-linejoin:miter;stroke-miterlimit:4;stroke-dasharray:none;stroke-opacity:1"
       d="M 103.20039,48.995256 V 61.349552"
       id="path1732"
       inkscape:path-effect="#path-effect1734"
       inkscape:original-d="m 103.20039,48.995256 c 2.7e-4,4.118364 2.7e-4,8.236461 0,12.354296" />
    <rect
       style="fill:none;stroke:#000000;stroke-width:0.2;stroke-linejoin:round"
       id="rect1736"
       width="6.6381288"
       height="6.6381288"
       x="100.03292"
       y="61.218296" />
    <g
       transform="matrix(0.352778,0,0,0.352778,101.00766,63.760569)"
       ns1:version="1.2.0"
       ns1:texconverter="pdflatex"
       ns1:pdfconverter="inkscape"
       ns1:text="$$m_2$$"
       ns1:preamble="/Users/mbh/Library/Application Support/org.inkscape.Inkscape/config/inkscape/extensions/textext/default_packages.tex"
       ns1:scale="1.0000000566928784"
       ns1:alignment="middle center"
       ns1:inkscapeversion="1.0.1"
       ns1:jacobian_sqrt="0.352778"
       id="g23663">
      <defs
         id="id-ff79badd-8190-466f-9351-07f9ee2e9ace">
        <g
           id="id-8a139c45-49df-48a2-849f-a4c2a42644fa">
          <symbol
             overflow="visible"
             id="id-fdf3c53a-a510-4fcc-8bee-226391aea6ee">
            <path
               style="stroke:none;stroke-width:0"
               d=""
               id="id-35701f22-6136-47e4-a429-7d6ef17e72c1" />
          </symbol>
          <symbol
             overflow="visible"
             id="id-904dc1a9-c82a-4793-8741-fa9fead1c439">
            <path
               style="stroke:none;stroke-width:0"
               d="m 8.453125,-1.421875 c 0,-0.109375 -0.09375,-0.109375 -0.125,-0.109375 -0.09375,0 -0.09375,0.03125 -0.140625,0.1875 -0.15625,0.53125 -0.46875,1.234375 -1.015625,1.234375 -0.171875,0 -0.25,-0.09375 -0.25,-0.328125 0,-0.25 0.09375,-0.484375 0.1875,-0.703125 0.1875,-0.53125 0.609375,-1.625 0.609375,-2.203125 0,-0.640625 -0.40625,-1.0625 -1.15625,-1.0625 -0.734375,0 -1.25,0.4375 -1.625,0.96875 0,-0.125 -0.03125,-0.46875 -0.3125,-0.703125 -0.25,-0.21875 -0.5625,-0.265625 -0.8125,-0.265625 -0.90625,0 -1.390625,0.640625 -1.5625,0.875 -0.046875,-0.578125 -0.46875,-0.875 -0.921875,-0.875 -0.453125,0 -0.640625,0.390625 -0.734375,0.5625 -0.171875,0.359375 -0.296875,0.9375 -0.296875,0.96875 0,0.109375 0.109375,0.109375 0.109375,0.109375 0.109375,0 0.109375,-0.015625 0.171875,-0.234375 0.171875,-0.703125 0.375,-1.1875 0.734375,-1.1875 0.15625,0 0.296875,0.078125 0.296875,0.453125 0,0.21875 -0.03125,0.328125 -0.15625,0.84375 L 0.875,-0.59375 c -0.03125,0.15625 -0.09375,0.390625 -0.09375,0.4375 0,0.171875 0.140625,0.265625 0.296875,0.265625 0.125,0 0.296875,-0.078125 0.375,-0.28125 0,-0.015625 0.125,-0.484375 0.1875,-0.734375 l 0.21875,-0.890625 C 1.90625,-2.03125 1.96875,-2.25 2.03125,-2.46875 l 0.125,-0.5 c 0.140625,-0.3125 0.671875,-1.21875 1.625,-1.21875 0.453125,0 0.53125,0.375 0.53125,0.703125 0,0.25 -0.0625,0.53125 -0.140625,0.828125 L 3.890625,-1.5 C 3.78125,-1.140625 3.78125,-1.078125 3.6875,-0.75 c -0.03125,0.203125 -0.125,0.546875 -0.125,0.59375 0,0.171875 0.140625,0.265625 0.28125,0.265625 0.3125,0 0.375,-0.25 0.453125,-0.5625 l 0.59375,-2.40625 c 0.03125,-0.125 0.5625,-1.328125 1.65625,-1.328125 0.421875,0 0.53125,0.34375 0.53125,0.703125 0,0.5625 -0.421875,1.703125 -0.625,2.234375 -0.078125,0.234375 -0.125,0.34375 -0.125,0.546875 0,0.46875 0.34375,0.8125 0.8125,0.8125 0.9375,0 1.3125,-1.453125 1.3125,-1.53125 z m 0,0"
               id="id-2d7ba2fa-c3e7-4d9a-a8e7-f214d73e8e71" />
          </symbol>
          <symbol
             overflow="visible"
             id="id-d2fa51cf-ee20-442d-a9b3-b54598ce194c">
            <path
               style="stroke:none;stroke-width:0"
               d=""
               id="id-ee8c6949-894c-4f20-bc58-fde9aac3d32f" />
          </symbol>
          <symbol
             overflow="visible"
             id="id-54dd8633-99cc-41a1-b8f0-980ed24bc732">
            <path
               style="stroke:none;stroke-width:0"
               d="M 3.515625,-1.265625 H 3.28125 c -0.015625,0.15625 -0.09375,0.5625 -0.1875,0.625 C 3.046875,-0.59375 2.515625,-0.59375 2.40625,-0.59375 H 1.125 c 0.734375,-0.640625 0.984375,-0.84375 1.390625,-1.171875 0.515625,-0.40625 1,-0.84375 1,-1.5 0,-0.84375 -0.734375,-1.359375 -1.625,-1.359375 -0.859375,0 -1.453125,0.609375 -1.453125,1.25 0,0.34375 0.296875,0.390625 0.375,0.390625 0.15625,0 0.359375,-0.125 0.359375,-0.375 0,-0.125 -0.046875,-0.375 -0.40625,-0.375 C 0.984375,-4.21875 1.453125,-4.375 1.78125,-4.375 c 0.703125,0 1.0625,0.546875 1.0625,1.109375 0,0.609375 -0.4375,1.078125 -0.65625,1.328125 L 0.515625,-0.265625 C 0.4375,-0.203125 0.4375,-0.1875 0.4375,0 h 2.875 z m 0,0"
               id="id-5c535e6b-5167-45b5-bb2e-ede8fd2752ab" />
          </symbol>
        </g>
      </defs>
      <g
         id="id-4968934f-69d1-4c00-a076-1e6a18453082"
         transform="translate(-299.313,-142.314)">
        <g
           style="fill:#000000;fill-opacity:1"
           id="id-bb00b318-da7d-40b3-adde-cd295ad882e7">
          <g
             transform="translate(299.016,146.72)"
             id="g23655">
            <path
               style="stroke:none;stroke-width:0"
               d="m 8.453125,-1.421875 c 0,-0.109375 -0.09375,-0.109375 -0.125,-0.109375 -0.09375,0 -0.09375,0.03125 -0.140625,0.1875 -0.15625,0.53125 -0.46875,1.234375 -1.015625,1.234375 -0.171875,0 -0.25,-0.09375 -0.25,-0.328125 0,-0.25 0.09375,-0.484375 0.1875,-0.703125 0.1875,-0.53125 0.609375,-1.625 0.609375,-2.203125 0,-0.640625 -0.40625,-1.0625 -1.15625,-1.0625 -0.734375,0 -1.25,0.4375 -1.625,0.96875 0,-0.125 -0.03125,-0.46875 -0.3125,-0.703125 -0.25,-0.21875 -0.5625,-0.265625 -0.8125,-0.265625 -0.90625,0 -1.390625,0.640625 -1.5625,0.875 -0.046875,-0.578125 -0.46875,-0.875 -0.921875,-0.875 -0.453125,0 -0.640625,0.390625 -0.734375,0.5625 -0.171875,0.359375 -0.296875,0.9375 -0.296875,0.96875 0,0.109375 0.109375,0.109375 0.109375,0.109375 0.109375,0 0.109375,-0.015625 0.171875,-0.234375 0.171875,-0.703125 0.375,-1.1875 0.734375,-1.1875 0.15625,0 0.296875,0.078125 0.296875,0.453125 0,0.21875 -0.03125,0.328125 -0.15625,0.84375 L 0.875,-0.59375 c -0.03125,0.15625 -0.09375,0.390625 -0.09375,0.4375 0,0.171875 0.140625,0.265625 0.296875,0.265625 0.125,0 0.296875,-0.078125 0.375,-0.28125 0,-0.015625 0.125,-0.484375 0.1875,-0.734375 l 0.21875,-0.890625 C 1.90625,-2.03125 1.96875,-2.25 2.03125,-2.46875 l 0.125,-0.5 c 0.140625,-0.3125 0.671875,-1.21875 1.625,-1.21875 0.453125,0 0.53125,0.375 0.53125,0.703125 0,0.25 -0.0625,0.53125 -0.140625,0.828125 L 3.890625,-1.5 C 3.78125,-1.140625 3.78125,-1.078125 3.6875,-0.75 c -0.03125,0.203125 -0.125,0.546875 -0.125,0.59375 0,0.171875 0.140625,0.265625 0.28125,0.265625 0.3125,0 0.375,-0.25 0.453125,-0.5625 l 0.59375,-2.40625 c 0.03125,-0.125 0.5625,-1.328125 1.65625,-1.328125 0.421875,0 0.53125,0.34375 0.53125,0.703125 0,0.5625 -0.421875,1.703125 -0.625,2.234375 -0.078125,0.234375 -0.125,0.34375 -0.125,0.546875 0,0.46875 0.34375,0.8125 0.8125,0.8125 0.9375,0 1.3125,-1.453125 1.3125,-1.53125 z m 0,0"
               id="id-6f8b2ed6-b1c1-4e25-aef2-2fec187fb9fc" />
          </g>
        </g>
        <g
           style="fill:#000000;fill-opacity:1"
           id="id-64b8060d-9766-499e-927e-3829edcd2f28">
          <g
             transform="translate(307.763,148.214)"
             id="g23659">
            <path
               style="stroke:none;stroke-width:0"
               d="M 3.515625,-1.265625 H 3.28125 c -0.015625,0.15625 -0.09375,0.5625 -0.1875,0.625 C 3.046875,-0.59375 2.515625,-0.59375 2.40625,-0.59375 H 1.125 c 0.734375,-0.640625 0.984375,-0.84375 1.390625,-1.171875 0.515625,-0.40625 1,-0.84375 1,-1.5 0,-0.84375 -0.734375,-1.359375 -1.625,-1.359375 -0.859375,0 -1.453125,0.609375 -1.453125,1.25 0,0.34375 0.296875,0.390625 0.375,0.390625 0.15625,0 0.359375,-0.125 0.359375,-0.375 0,-0.125 -0.046875,-0.375 -0.40625,-0.375 C 0.984375,-4.21875 1.453125,-4.375 1.78125,-4.375 c 0.703125,0 1.0625,0.546875 1.0625,1.109375 0,0.609375 -0.4375,1.078125 -0.65625,1.328125 L 0.515625,-0.265625 C 0.4375,-0.203125 0.4375,-0.1875 0.4375,0 h 2.875 z m 0,0"
               id="id-17213a8a-6f44-4401-8c7c-93ac4fb92f3e" />
          </g>
        </g>
      </g>
    </g>
    <g
       transform="matrix(0.352778,0,0,0.352778,75.598838,48.521542)"
       ns1:version="1.2.0"
       ns1:texconverter="pdflatex"
       ns1:pdfconverter="inkscape"
       ns1:text="$$m_1$$"
       ns1:preamble="/Users/mbh/Library/Application Support/org.inkscape.Inkscape/config/inkscape/extensions/textext/default_packages.tex"
       ns1:scale="1.0000000566928784"
       ns1:alignment="middle center"
       ns1:inkscapeversion="1.0.1"
       ns1:jacobian_sqrt="0.352778"
       id="g23753">
      <defs
         id="id-799530b5-8eb9-47ba-8e01-b8adfdb63f63">
        <g
           id="id-d033fc16-3ac1-4082-92b9-74d343f7c07f">
          <symbol
             overflow="visible"
             id="id-0d166fd5-5082-498c-9bc1-97d4033e40e2">
            <path
               style="stroke:none;stroke-width:0"
               d=""
               id="id-eb01221b-d81f-454a-9ed9-a554afc267d7" />
          </symbol>
          <symbol
             overflow="visible"
             id="id-13f9c91a-eec6-4b0b-9636-23ed19839473">
            <path
               style="stroke:none;stroke-width:0"
               d="m 8.453125,-1.421875 c 0,-0.109375 -0.09375,-0.109375 -0.125,-0.109375 -0.09375,0 -0.09375,0.03125 -0.140625,0.1875 -0.15625,0.53125 -0.46875,1.234375 -1.015625,1.234375 -0.171875,0 -0.25,-0.09375 -0.25,-0.328125 0,-0.25 0.09375,-0.484375 0.1875,-0.703125 0.1875,-0.53125 0.609375,-1.625 0.609375,-2.203125 0,-0.640625 -0.40625,-1.0625 -1.15625,-1.0625 -0.734375,0 -1.25,0.4375 -1.625,0.96875 0,-0.125 -0.03125,-0.46875 -0.3125,-0.703125 -0.25,-0.21875 -0.5625,-0.265625 -0.8125,-0.265625 -0.90625,0 -1.390625,0.640625 -1.5625,0.875 -0.046875,-0.578125 -0.46875,-0.875 -0.921875,-0.875 -0.453125,0 -0.640625,0.390625 -0.734375,0.5625 -0.171875,0.359375 -0.296875,0.9375 -0.296875,0.96875 0,0.109375 0.109375,0.109375 0.109375,0.109375 0.109375,0 0.109375,-0.015625 0.171875,-0.234375 0.171875,-0.703125 0.375,-1.1875 0.734375,-1.1875 0.15625,0 0.296875,0.078125 0.296875,0.453125 0,0.21875 -0.03125,0.328125 -0.15625,0.84375 L 0.875,-0.59375 c -0.03125,0.15625 -0.09375,0.390625 -0.09375,0.4375 0,0.171875 0.140625,0.265625 0.296875,0.265625 0.125,0 0.296875,-0.078125 0.375,-0.28125 0,-0.015625 0.125,-0.484375 0.1875,-0.734375 l 0.21875,-0.890625 C 1.90625,-2.03125 1.96875,-2.25 2.03125,-2.46875 l 0.125,-0.5 c 0.140625,-0.3125 0.671875,-1.21875 1.625,-1.21875 0.453125,0 0.53125,0.375 0.53125,0.703125 0,0.25 -0.0625,0.53125 -0.140625,0.828125 L 3.890625,-1.5 C 3.78125,-1.140625 3.78125,-1.078125 3.6875,-0.75 c -0.03125,0.203125 -0.125,0.546875 -0.125,0.59375 0,0.171875 0.140625,0.265625 0.28125,0.265625 0.3125,0 0.375,-0.25 0.453125,-0.5625 l 0.59375,-2.40625 c 0.03125,-0.125 0.5625,-1.328125 1.65625,-1.328125 0.421875,0 0.53125,0.34375 0.53125,0.703125 0,0.5625 -0.421875,1.703125 -0.625,2.234375 -0.078125,0.234375 -0.125,0.34375 -0.125,0.546875 0,0.46875 0.34375,0.8125 0.8125,0.8125 0.9375,0 1.3125,-1.453125 1.3125,-1.53125 z m 0,0"
               id="id-44993bd2-5f1c-492f-ac6b-e0528d51ebf8" />
          </symbol>
          <symbol
             overflow="visible"
             id="id-87818ed8-f37c-45ba-97ac-e77df66b2838">
            <path
               style="stroke:none;stroke-width:0"
               d=""
               id="id-e5655036-bfd0-4e08-89d3-7455f0ff395b" />
          </symbol>
          <symbol
             overflow="visible"
             id="id-4b07de79-ee46-4c37-b193-e0880f54cade">
            <path
               style="stroke:none;stroke-width:0"
               d="M 3.296875,0 V -0.25 H 3.03125 c -0.703125,0 -0.703125,-0.09375 -0.703125,-0.328125 V -4.4375 c 0,-0.1875 0,-0.1875 -0.203125,-0.1875 -0.453125,0.4375 -1.078125,0.4375 -1.359375,0.4375 v 0.25 c 0.15625,0 0.625,0 1,-0.1875 v 3.546875 c 0,0.234375 0,0.328125 -0.6875,0.328125 H 0.8125 V 0 l 1.234375,-0.03125 z m 0,0"
               id="id-f66a82d2-0682-4e53-9da3-5d9f5f2de4b0" />
          </symbol>
        </g>
      </defs>
      <g
         id="id-cea9cee1-a14f-4fb7-b7d1-9d033f808c35"
         transform="translate(-299.313,-142.314)">
        <g
           style="fill:#000000;fill-opacity:1"
           id="id-03c9ab24-79de-483b-af0a-4d29192d29d6">
          <g
             transform="translate(299.016,146.72)"
             id="g23745">
            <path
               style="stroke:none;stroke-width:0"
               d="m 8.453125,-1.421875 c 0,-0.109375 -0.09375,-0.109375 -0.125,-0.109375 -0.09375,0 -0.09375,0.03125 -0.140625,0.1875 -0.15625,0.53125 -0.46875,1.234375 -1.015625,1.234375 -0.171875,0 -0.25,-0.09375 -0.25,-0.328125 0,-0.25 0.09375,-0.484375 0.1875,-0.703125 0.1875,-0.53125 0.609375,-1.625 0.609375,-2.203125 0,-0.640625 -0.40625,-1.0625 -1.15625,-1.0625 -0.734375,0 -1.25,0.4375 -1.625,0.96875 0,-0.125 -0.03125,-0.46875 -0.3125,-0.703125 -0.25,-0.21875 -0.5625,-0.265625 -0.8125,-0.265625 -0.90625,0 -1.390625,0.640625 -1.5625,0.875 -0.046875,-0.578125 -0.46875,-0.875 -0.921875,-0.875 -0.453125,0 -0.640625,0.390625 -0.734375,0.5625 -0.171875,0.359375 -0.296875,0.9375 -0.296875,0.96875 0,0.109375 0.109375,0.109375 0.109375,0.109375 0.109375,0 0.109375,-0.015625 0.171875,-0.234375 0.171875,-0.703125 0.375,-1.1875 0.734375,-1.1875 0.15625,0 0.296875,0.078125 0.296875,0.453125 0,0.21875 -0.03125,0.328125 -0.15625,0.84375 L 0.875,-0.59375 c -0.03125,0.15625 -0.09375,0.390625 -0.09375,0.4375 0,0.171875 0.140625,0.265625 0.296875,0.265625 0.125,0 0.296875,-0.078125 0.375,-0.28125 0,-0.015625 0.125,-0.484375 0.1875,-0.734375 l 0.21875,-0.890625 C 1.90625,-2.03125 1.96875,-2.25 2.03125,-2.46875 l 0.125,-0.5 c 0.140625,-0.3125 0.671875,-1.21875 1.625,-1.21875 0.453125,0 0.53125,0.375 0.53125,0.703125 0,0.25 -0.0625,0.53125 -0.140625,0.828125 L 3.890625,-1.5 C 3.78125,-1.140625 3.78125,-1.078125 3.6875,-0.75 c -0.03125,0.203125 -0.125,0.546875 -0.125,0.59375 0,0.171875 0.140625,0.265625 0.28125,0.265625 0.3125,0 0.375,-0.25 0.453125,-0.5625 l 0.59375,-2.40625 c 0.03125,-0.125 0.5625,-1.328125 1.65625,-1.328125 0.421875,0 0.53125,0.34375 0.53125,0.703125 0,0.5625 -0.421875,1.703125 -0.625,2.234375 -0.078125,0.234375 -0.125,0.34375 -0.125,0.546875 0,0.46875 0.34375,0.8125 0.8125,0.8125 0.9375,0 1.3125,-1.453125 1.3125,-1.53125 z m 0,0"
               id="id-68fdda16-6f7e-4e6f-9c68-e1c4c7bd9c93" />
          </g>
        </g>
        <g
           style="fill:#000000;fill-opacity:1"
           id="id-455d571c-a2b5-497f-b1ff-939f6c9c0ffe">
          <g
             transform="translate(307.763,148.214)"
             id="g23749">
            <path
               style="stroke:none;stroke-width:0"
               d="M 3.296875,0 V -0.25 H 3.03125 c -0.703125,0 -0.703125,-0.09375 -0.703125,-0.328125 V -4.4375 c 0,-0.1875 0,-0.1875 -0.203125,-0.1875 -0.453125,0.4375 -1.078125,0.4375 -1.359375,0.4375 v 0.25 c 0.15625,0 0.625,0 1,-0.1875 v 3.546875 c 0,0.234375 0,0.328125 -0.6875,0.328125 H 0.8125 V 0 l 1.234375,-0.03125 z m 0,0"
               id="id-15ea5f2f-424d-4525-bda6-849b98ea5b61" />
          </g>
        </g>
      </g>
    </g>
    <g
       transform="matrix(0.352778,0,0,0.352778,62.859413,42.076216)"
       ns1:version="1.2.0"
       ns1:texconverter="pdflatex"
       ns1:pdfconverter="inkscape"
       ns1:text="$$k$$"
       ns1:preamble="/Users/mbh/Library/Application Support/org.inkscape.Inkscape/config/inkscape/extensions/textext/default_packages.tex"
       ns1:scale="1.0000000566928784"
       ns1:alignment="middle center"
       ns1:inkscapeversion="1.0.1"
       ns1:jacobian_sqrt="0.352778"
       id="g23853">
      <defs
         id="id-36bb099c-f466-4d86-a057-5e8304c74442">
        <g
           id="id-854f286c-26ea-40b8-a361-97939c9ce2fc">
          <symbol
             overflow="visible"
             id="id-a4ab1702-8844-45db-9ae2-8d78d992705f">
            <path
               style="stroke:none;stroke-width:0"
               d=""
               id="id-e7bd5ce4-cd8b-4b21-9b07-6cdb500965e7" />
          </symbol>
          <symbol
             overflow="visible"
             id="id-b5172a68-8b28-45ef-b4bf-fa7e9758d324">
            <path
               style="stroke:none;stroke-width:0"
               d="m 4.890625,-1.421875 c 0,-0.109375 -0.09375,-0.109375 -0.125,-0.109375 -0.09375,0 -0.109375,0.046875 -0.140625,0.1875 -0.203125,0.71875 -0.421875,1.234375 -0.859375,1.234375 -0.203125,0 -0.328125,-0.109375 -0.328125,-0.46875 0,-0.171875 0.046875,-0.40625 0.078125,-0.5625 C 3.5625,-1.3125 3.5625,-1.34375 3.5625,-1.453125 3.5625,-2.09375 2.9375,-2.375 2.078125,-2.5 2.390625,-2.671875 2.71875,-2.984375 2.9375,-3.234375 3.421875,-3.765625 3.875,-4.1875 4.359375,-4.1875 c 0.0625,0 0.078125,0 0.09375,0.015625 0.125,0.015625 0.125,0.015625 0.21875,0.078125 0.015625,0 0.015625,0.015625 0.03125,0.03125 -0.46875,0.03125 -0.5625,0.421875 -0.5625,0.546875 0,0.15625 0.109375,0.34375 0.375,0.34375 0.265625,0 0.546875,-0.21875 0.546875,-0.609375 0,-0.296875 -0.234375,-0.625 -0.671875,-0.625 -0.28125,0 -0.734375,0.078125 -1.453125,0.875 -0.34375,0.375 -0.734375,0.78125 -1.109375,0.921875 L 2.859375,-6.8125 c 0,0 0,-0.109375 -0.125,-0.109375 -0.234375,0 -0.953125,0.078125 -1.21875,0.109375 -0.078125,0 -0.1875,0.015625 -0.1875,0.1875 0,0.125 0.09375,0.125 0.234375,0.125 0.484375,0 0.5,0.0625 0.5,0.171875 L 2.03125,-6.125 0.59375,-0.390625 c -0.046875,0.140625 -0.046875,0.15625 -0.046875,0.21875 0,0.234375 0.203125,0.28125 0.296875,0.28125 0.125,0 0.265625,-0.09375 0.328125,-0.203125 0.046875,-0.09375 0.5,-1.9375 0.5625,-2.1875 0.34375,0.03125 1.15625,0.1875 1.15625,0.84375 0,0.078125 0,0.109375 -0.03125,0.21875 -0.015625,0.109375 -0.03125,0.234375 -0.03125,0.34375 0,0.578125 0.390625,0.984375 0.90625,0.984375 0.296875,0 0.578125,-0.15625 0.796875,-0.53125 0.25,-0.4375 0.359375,-1 0.359375,-1 z m 0,0"
               id="id-0b933d1c-bf36-485b-a7bc-788945af954a" />
          </symbol>
        </g>
      </defs>
      <g
         id="id-cb11206a-a258-4942-8f59-5fec25f8e761"
         transform="translate(-303.421,-139.798)">
        <g
           style="fill:#000000;fill-opacity:1"
           id="id-a19e5291-7c26-47f2-84e6-31fe54550ff5">
          <g
             transform="translate(302.874,146.72)"
             id="g23849">
            <path
               style="stroke:none;stroke-width:0"
               d="m 4.890625,-1.421875 c 0,-0.109375 -0.09375,-0.109375 -0.125,-0.109375 -0.09375,0 -0.109375,0.046875 -0.140625,0.1875 -0.203125,0.71875 -0.421875,1.234375 -0.859375,1.234375 -0.203125,0 -0.328125,-0.109375 -0.328125,-0.46875 0,-0.171875 0.046875,-0.40625 0.078125,-0.5625 C 3.5625,-1.3125 3.5625,-1.34375 3.5625,-1.453125 3.5625,-2.09375 2.9375,-2.375 2.078125,-2.5 2.390625,-2.671875 2.71875,-2.984375 2.9375,-3.234375 3.421875,-3.765625 3.875,-4.1875 4.359375,-4.1875 c 0.0625,0 0.078125,0 0.09375,0.015625 0.125,0.015625 0.125,0.015625 0.21875,0.078125 0.015625,0 0.015625,0.015625 0.03125,0.03125 -0.46875,0.03125 -0.5625,0.421875 -0.5625,0.546875 0,0.15625 0.109375,0.34375 0.375,0.34375 0.265625,0 0.546875,-0.21875 0.546875,-0.609375 0,-0.296875 -0.234375,-0.625 -0.671875,-0.625 -0.28125,0 -0.734375,0.078125 -1.453125,0.875 -0.34375,0.375 -0.734375,0.78125 -1.109375,0.921875 L 2.859375,-6.8125 c 0,0 0,-0.109375 -0.125,-0.109375 -0.234375,0 -0.953125,0.078125 -1.21875,0.109375 -0.078125,0 -0.1875,0.015625 -0.1875,0.1875 0,0.125 0.09375,0.125 0.234375,0.125 0.484375,0 0.5,0.0625 0.5,0.171875 L 2.03125,-6.125 0.59375,-0.390625 c -0.046875,0.140625 -0.046875,0.15625 -0.046875,0.21875 0,0.234375 0.203125,0.28125 0.296875,0.28125 0.125,0 0.265625,-0.09375 0.328125,-0.203125 0.046875,-0.09375 0.5,-1.9375 0.5625,-2.1875 0.34375,0.03125 1.15625,0.1875 1.15625,0.84375 0,0.078125 0,0.109375 -0.03125,0.21875 -0.015625,0.109375 -0.03125,0.234375 -0.03125,0.34375 0,0.578125 0.390625,0.984375 0.90625,0.984375 0.296875,0 0.578125,-0.15625 0.796875,-0.53125 0.25,-0.4375 0.359375,-1 0.359375,-1 z m 0,0"
               id="id-e2f241bd-8d3c-4b47-96fe-d199cb847735" />
          </g>
        </g>
      </g>
    </g>
  </g>
</svg>
